<?xml version="1.0" encoding="UTF-8"?><svg xmlns="http://www.w3.org/2000/svg" xmlns:xlink="http://www.w3.org/1999/xlink" viewBox="0 0 330.12 206.46"><defs><style>.cls-1{fill:url(#radial-gradient-5);}.cls-1,.cls-2,.cls-3,.cls-4,.cls-5,.cls-6{opacity:.25;}.cls-2{fill:url(#radial-gradient-6);}.cls-3{fill:url(#radial-gradient-4);}.cls-4{fill:url(#radial-gradient-3);}.cls-5{fill:url(#radial-gradient-2);}.cls-7{fill:url(#Silver-3);}.cls-8{fill:url(#Silver-6);}.cls-9{fill:url(#Silver-2);}.cls-10{fill:url(#Silver-4);}.cls-11{fill:url(#Silver-7);}.cls-12{fill:url(#Silver-5);}.cls-13{fill:url(#Silver-8);}.cls-14{fill:url(#Silver-9);}.cls-15{fill:url(#linear-gradient-8);}.cls-16{fill:url(#linear-gradient-9);}.cls-17{fill:url(#Silver-19);}.cls-18{fill:url(#Silver-17);}.cls-19{fill:url(#Silver-12);}.cls-20{fill:url(#Silver-10);}.cls-21{fill:url(#Silver-15);}.cls-22{fill:url(#Silver-18);}.cls-23{fill:url(#Silver-13);}.cls-24{fill:url(#Silver-14);}.cls-25{fill:url(#Silver-11);}.cls-26{fill:url(#Silver-22);}.cls-27{fill:url(#Silver-24);}.cls-28{fill:url(#Silver-21);}.cls-29{fill:url(#Silver-23);}.cls-30{fill:url(#Silver-20);}.cls-31{fill:url(#Silver-16);}.cls-32{isolation:isolate;}.cls-33{fill:url(#Silver);}.cls-6{fill:url(#radial-gradient);}.cls-34{clip-path:url(#clippath-1);}.cls-35{fill:url(#linear-gradient-2);}.cls-35,.cls-36,.cls-37,.cls-38,.cls-39,.cls-40{opacity:.45;}.cls-36{fill:url(#linear-gradient-3);}.cls-37{fill:url(#linear-gradient-4);}.cls-38{fill:url(#linear-gradient-6);}.cls-39{fill:url(#linear-gradient-5);}.cls-40{fill:url(#linear-gradient);}.cls-41{fill:url(#linear-gradient-7);mix-blend-mode:overlay;}.cls-42{clip-rule:evenodd;fill:none;}.cls-43{fill:url(#linear-gradient-10);}.cls-44{fill:#020000;}.cls-45{clip-path:url(#clippath);}</style><clipPath id="clippath"><rect x="9.97" y="29.15" width="255.12" height="155.91" rx="10" ry="10"/></clipPath><radialGradient id="radial-gradient" cx="1456.28" cy="1256.37" fx="1456.28" fy="1256.37" r="556.11" gradientTransform="translate(2502.42 906.63) rotate(139.61) scale(1 1.7)" gradientUnits="userSpaceOnUse"><stop offset="0" stop-color="#622e8d"/><stop offset=".13" stop-color="#692d87"/><stop offset=".34" stop-color="#7e2a77"/><stop offset=".59" stop-color="#a1255e"/><stop offset=".87" stop-color="#d01f3b"/><stop offset=".99" stop-color="#e81d2a"/></radialGradient><radialGradient id="radial-gradient-2" cx="1418.59" cy="1197.91" fx="1418.59" fy="1197.91" r="540.43" xlink:href="#radial-gradient"/><radialGradient id="radial-gradient-3" cx="1443.78" cy="1189.61" fx="1443.78" fy="1189.61" r="540.37" xlink:href="#radial-gradient"/><radialGradient id="radial-gradient-4" cx="5852.26" cy="5623.81" fx="5852.26" fy="5623.81" r="556.11" gradientTransform="translate(-9511.15 -5504.63) rotate(-27.63) scale(1 1.7)" xlink:href="#radial-gradient"/><radialGradient id="radial-gradient-5" cx="5814.56" cy="5565.35" fx="5814.56" fy="5565.35" r="540.45" gradientTransform="translate(-9511.15 -5504.63) rotate(-27.63) scale(1 1.7)" xlink:href="#radial-gradient"/><radialGradient id="radial-gradient-6" cx="5839.75" cy="5557.05" fx="5839.75" fy="5557.05" r="540.39" gradientTransform="translate(-9511.15 -5504.63) rotate(-27.63) scale(1 1.7)" xlink:href="#radial-gradient"/><linearGradient id="linear-gradient" x1="1897.16" y1="291.12" x2="2317.1" y2="291.12" gradientTransform="translate(1121.32 -1724.44) rotate(105.3) scale(1 1.7)" gradientUnits="userSpaceOnUse"><stop offset="0" stop-color="#622e8d"/><stop offset=".3" stop-color="#502782"/><stop offset=".89" stop-color="#231768"/><stop offset=".99" stop-color="#1b1464"/></linearGradient><linearGradient id="linear-gradient-2" x1="1858.38" y1="233.88" x2="2297.75" y2="233.88" xlink:href="#linear-gradient"/><linearGradient id="linear-gradient-3" x1="1855.01" y1="234.56" x2="2290.97" y2="234.56" xlink:href="#linear-gradient"/><linearGradient id="linear-gradient-4" x1="5353.2" y1="6656.84" x2="5773.19" y2="6656.84" gradientTransform="translate(-12414.83 -245.35) rotate(-61.96) scale(1 1.7)" xlink:href="#linear-gradient"/><linearGradient id="linear-gradient-5" x1="5314.41" y1="6614.01" x2="5753.84" y2="6614.01" gradientTransform="translate(-12414.83 -245.35) rotate(-61.96) scale(1 1.7)" xlink:href="#linear-gradient"/><linearGradient id="linear-gradient-6" x1="5311.04" y1="6615.35" x2="5747.06" y2="6615.35" gradientTransform="translate(-12414.83 -245.35) rotate(-61.96) scale(1 1.7)" xlink:href="#linear-gradient"/><linearGradient id="linear-gradient-7" x1="30.93" y1="187.7" x2="222.27" y2="43.03" gradientUnits="userSpaceOnUse"><stop offset="0" stop-color="#000"/><stop offset=".54" stop-color="#e9e9e9"/><stop offset=".79" stop-color="#696969"/><stop offset="1" stop-color="#000"/></linearGradient><linearGradient id="linear-gradient-8" x1="41.08" y1="105.81" x2="74.96" y2="83.22" gradientUnits="userSpaceOnUse"><stop offset="0" stop-color="#c3922e"/><stop offset=".21" stop-color="#c3932f"/><stop offset=".29" stop-color="#c79836"/><stop offset=".35" stop-color="#cca142"/><stop offset=".39" stop-color="#d4ae53"/><stop offset=".43" stop-color="#dfbe69"/><stop offset=".46" stop-color="#ebd283"/><stop offset=".47" stop-color="#eed688"/><stop offset=".47" stop-color="#ebd283"/><stop offset=".51" stop-color="#dfbe69"/><stop offset=".55" stop-color="#d4ae53"/><stop offset=".6" stop-color="#cca142"/><stop offset=".67" stop-color="#c79836"/><stop offset=".75" stop-color="#c3932f"/><stop offset="1" stop-color="#c3922e"/></linearGradient><linearGradient id="linear-gradient-9" x1="227.37" y1="148.14" x2="200.75" y2="173.95" gradientUnits="userSpaceOnUse"><stop offset="0" stop-color="#8b878d"/><stop offset=".04" stop-color="#9b979b"/><stop offset=".16" stop-color="#cbc6c5"/><stop offset=".22" stop-color="#ded9d6"/><stop offset=".25" stop-color="#cfcac8"/><stop offset=".31" stop-color="#a8a4a6"/><stop offset=".35" stop-color="#8b878d"/><stop offset=".52" stop-color="#f3f4f4"/><stop offset=".58" stop-color="#e4e5e5"/><stop offset=".7" stop-color="#bfbec0"/><stop offset=".86" stop-color="#847f84"/><stop offset=".88" stop-color="#807b80"/><stop offset="1" stop-color="#d1d3d4"/><stop offset="1" stop-color="#a7a9ac"/></linearGradient><linearGradient id="Silver" x1="194.92" y1="152.71" x2="231" y2="171.66" gradientUnits="userSpaceOnUse"><stop offset="0" stop-color="#e5e2df"/><stop offset="0" stop-color="#ded9d6"/><stop offset=".06" stop-color="#cfcac8"/><stop offset=".18" stop-color="#a8a4a6"/><stop offset=".26" stop-color="#8b878d"/><stop offset=".52" stop-color="#f3f4f4"/><stop offset=".58" stop-color="#e4e5e5"/><stop offset=".7" stop-color="#bfbec0"/><stop offset=".86" stop-color="#847f84"/><stop offset=".88" stop-color="#807b80"/><stop offset="1" stop-color="#d1d3d4"/><stop offset="1" stop-color="#a7a9ac"/></linearGradient><linearGradient id="Silver-2" x1="194.99" y1="152.59" x2="231.06" y2="171.53" xlink:href="#Silver"/><linearGradient id="Silver-3" x1="195.04" y1="152.49" x2="231.11" y2="171.44" xlink:href="#Silver"/><linearGradient id="Silver-4" x1="197.92" y1="147.01" x2="234" y2="165.96" xlink:href="#Silver"/><linearGradient id="Silver-5" x1="198.28" y1="146.33" x2="234.35" y2="165.27" xlink:href="#Silver"/><linearGradient id="Silver-6" x1="198.32" y1="146.23" x2="234.41" y2="165.19" xlink:href="#Silver"/><linearGradient id="Silver-7" x1="198.63" y1="145.63" x2="234.74" y2="164.59" xlink:href="#Silver"/><linearGradient id="Silver-8" x1="198.72" y1="145.44" x2="234.85" y2="164.42" xlink:href="#Silver"/><linearGradient id="Silver-9" x1="199.14" y1="144.68" x2="235.22" y2="163.63" xlink:href="#Silver"/><linearGradient id="Silver-10" x1="199.41" y1="144.17" x2="235.48" y2="163.12" xlink:href="#Silver"/><linearGradient id="Silver-11" x1="199.37" y1="144.26" x2="235.43" y2="163.2" xlink:href="#Silver"/><linearGradient id="Silver-12" x1="198.89" y1="145.17" x2="234.96" y2="164.12" xlink:href="#Silver"/><linearGradient id="Silver-13" x1="199.07" y1="144.81" x2="235.16" y2="163.76" xlink:href="#Silver"/><linearGradient id="Silver-14" x1="199.02" y1="144.91" x2="235.1" y2="163.85" xlink:href="#Silver"/><linearGradient id="Silver-15" x1="196.05" y1="150.57" x2="232.12" y2="169.52" xlink:href="#Silver"/><linearGradient id="Silver-16" x1="200.59" y1="141.93" x2="236.66" y2="160.88" xlink:href="#Silver"/><linearGradient id="Silver-17" x1="198.66" y1="145.63" x2="234.72" y2="164.58" xlink:href="#Silver"/><linearGradient id="Silver-18" x1="199.12" y1="144.69" x2="235.21" y2="163.65" xlink:href="#Silver"/><linearGradient id="Silver-19" x1="200.01" y1="143.03" x2="236.08" y2="161.98" xlink:href="#Silver"/><linearGradient id="Silver-20" x1="199.13" y1="144.68" x2="235.22" y2="163.64" xlink:href="#Silver"/><linearGradient id="Silver-21" x1="199.42" y1="144.13" x2="235.5" y2="163.09" xlink:href="#Silver"/><linearGradient id="Silver-22" x1="198.66" y1="145.62" x2="234.73" y2="164.56" xlink:href="#Silver"/><linearGradient id="Silver-23" x1="197.09" y1="148.59" x2="233.16" y2="167.54" xlink:href="#Silver"/><linearGradient id="Silver-24" x1="198" y1="146.85" x2="234.08" y2="165.8" xlink:href="#Silver"/><clipPath id="clippath-1"><path class="cls-42" d="M234.74,74.78c0-7.68-3.87-13.74-11.28-13.74s-11.93,6.06-11.93,13.68c0,9.03,5.31,13.59,12.93,13.59,3.72,0,6.53-.81,8.65-1.95v-6c-2.12,1.02-4.56,1.65-7.65,1.65s-5.72-1.02-6.06-4.56h15.28c0-.39.06-1.95.06-2.67ZM219.3,71.93c0-3.39,2.16-4.8,4.12-4.8s3.94,1.41,3.94,4.8h-8.06ZM199.46,61.04c-3.06,0-5.03,1.38-6.12,2.34l-.41-1.86h-6.87v34.98l7.81-1.59.03-8.49c1.12.78,2.78,1.89,5.53,1.89,5.59,0,10.69-4.32,10.69-13.83-.03-8.7-5.19-13.44-10.65-13.44h0ZM197.59,81.71c-1.84,0-2.94-.63-3.69-1.41l-.03-11.13c.81-.87,1.94-1.47,3.72-1.47,2.84,0,4.81,3.06,4.81,6.99s-1.94,7.02-4.81,7.02ZM175.31,59.27l7.84-1.62v-6.09l-7.84,1.59v6.12ZM175.31,61.55h7.84v26.25h-7.84v-26.25ZM166.91,63.77l-.5-2.22h-6.75v26.25h7.81v-17.79c1.84-2.31,4.97-1.89,5.94-1.56v-6.9c-1-.36-4.66-1.02-6.5,2.22h0ZM151.28,55.04l-7.62,1.56-.03,24.03c0,4.44,3.47,7.71,8.09,7.71,2.56,0,4.44-.45,5.47-.99v-6.09c-1,.39-5.94,1.77-5.94-2.67v-10.65h5.94v-6.39h-5.94s.03-6.51.03-6.51ZM130.16,69.17c0-1.17,1-1.62,2.66-1.62,2.37,0,5.37.69,7.75,1.92v-7.05c-2.59-.99-5.16-1.38-7.75-1.38-6.34,0-10.56,3.18-10.56,8.49,0,8.28,11.87,6.96,11.87,10.53,0,1.38-1.25,1.83-3,1.83-2.59,0-5.91-1.02-8.53-2.4v7.14c2.91,1.2,5.84,1.71,8.53,1.71,6.5,0,10.97-3.09,10.97-8.46-.03-8.94-11.93-7.35-11.93-10.71h0Z"/></clipPath><linearGradient id="linear-gradient-10" x1="277.89" y1="-11.17" x2="109.75" y2="151.85" xlink:href="#linear-gradient-9"/></defs><g class="cls-32"><g id="Layer_1_copy_4"><rect x="9.97" y="29.15" width="255.12" height="155.91" rx="10" ry="10"/><g class="cls-45"><path class="cls-6" d="M37.9,56.11c2.07-15.39,5.3-29.94,9.7-43.65H8.43c-2.36,10.69-3.99,21.86-4.93,32.07-1.08,10.95-2.1,21.93-3.03,32.98-.95,35.47-.39,71.28,1.14,108.03.37,6.98.74,13.95,1.11,20.92h32.69c-1.25-40.82-1.95-81.21-.5-120.73,1-9.87,1.99-19.74,2.99-29.62Z"/><path class="cls-5" d="M119.85,12.46c-9.25,11.62-17.06,24.59-23.41,38.96-12.77,24.1-16.95,56.09-21.88,85.94-3.48,20.9-4.82,46.67-6.39,69.1h50.29c.25-16.83.92-33.42,2.05-49.75,1-9.11,1.99-18.22,2.99-27.33,2.83-20.45,7.55-39.54,14.18-57.26,7.88-25.48,24.42-42.51,41.65-58.77l-1.54-.88h-57.93Z"/><path class="cls-4" d="M177.78,12.46h-35.66c-3.83,3.59-7.63,7.2-11.42,10.84-12.78,12.2-23.24,26.68-31.38,43.45-7.71,16.31-13.57,34.06-17.55,53.26-6.99,26.21-8.54,56.71-10.26,86.44h37.8c1.03-19.48,2.66-38.6,4.7-57.61,2.79-20.42,7.47-39.47,14.08-57.15,6.03-15.98,14.21-29.97,24.48-42,7.25-6.8,14.51-13.61,21.75-20.41-1.77,1.44-3.54,2.87-5.32,4.32,6.2-5.24,12.52-10.34,18.95-15.29l-10.18-5.85Z"/><path class="cls-3" d="M178.17,12.46c-3.34,3.38-6.62,6.86-9.82,10.47-14.82,16.77-27.79,35.87-38.93,57.33-20.48,34.4-30.09,80.27-38.71,126.2h32.25c1.81-9.48,3.62-18.96,5.42-28.46,5.95-25.96,14.42-49.4,25.42-70.35,10.74-20.91,23.32-39.49,37.7-55.74,5.81-7.5,12.25-14.13,19.07-20.17l-20.95-19.28h-11.45Z"/><path class="cls-1" d="M58.62,12.46c-19.07,38.92-28.23,88.65-38.7,135.44-4.01,19.6-8.12,39.12-12.31,58.56h55.03c5.42-19.04,10.81-38.11,16.47-56.93,10.68-35.43,25.16-66.44,40.71-96.74,7.97-15.53,18.03-28.54,28.95-40.33H58.62Z"/><path class="cls-2" d="M128.3,12.46h-60.43c-4.8,12.15-9.24,24.66-13.65,37.13-6.94,26.13-13.27,52.77-19,79.94-5.1,24.26-10.39,48.36-15.84,72.31-.35,1.55-.72,3.08-1.07,4.62h39.84c2.98-11.31,5.94-22.65,8.86-34.02,6.85-27.21,14.6-53.62,23.2-79.21-.58,1.62-1.17,3.23-1.75,4.85,8.73-26.45,19.42-50.81,32.07-73.06,2.51-4.29,5.1-8.47,7.77-12.55Z"/><path class="cls-40" d="M86.04,59.53c-7.9-15.74-13.95-31.43-18.16-47.07H28.62c3.3,17.78,12.84,39.55,22.48,56.91,5.28,9.65,10.63,19.3,16.09,28.94,19.21,29.83,39.87,59.09,61.84,88.58,4.99,6.52,9.97,13.05,14.95,19.57h40.39c-29.52-40.18-58.48-80.11-84.11-120.78-4.74-8.71-9.49-17.42-14.23-26.15Z"/><path class="cls-35" d="M210.99,96.04c-4.31-8.08-8.63-16.17-12.94-24.26-9.2-18.48-16.05-36.92-20.58-55.29-.42-1.35-.79-2.69-1.14-4.03h-46.18c.44,3.38.97,6.78,1.6,10.19,3.04,27.11,17.63,55.89,30.38,83.31,9.46,20.4,23.99,43.96,35.74,64.2,7.04,12.11,14.29,24.21,21.59,36.3h65.25c-11.81-16.67-23.5-33.35-35.08-50.05-13.91-20.03-26.79-40.16-38.64-60.38Z"/><path class="cls-36" d="M201.19,93.21c-9.21-18.44-16.09-36.81-20.59-55.14-2.1-8.66-3.41-17.19-3.94-25.61h-35.61c.09,6.99.67,14.07,1.73,21.23,2.82,17.81,8,35.78,15.54,53.88,10.27,29.16,29.5,58.94,46.63,87.82,6.45,10.36,12.94,20.71,19.48,31.06h46.97c-5.23-7.58-10.43-15.16-15.6-22.74-20.67-30.11-38.29-60.08-54.61-90.51Z"/><path class="cls-37" d="M229.49,109.19c-9.72-24.79-15.95-48.93-18.67-72.43-1.03-8.21-1.7-16.3-2.03-24.29h-35.03c.36,5.1.85,10.24,1.47,15.42,3,48.36,28.63,101.62,51.01,152.95,3.73,8.55,7.45,17.09,11.13,25.63h35.86c-9.36-20.41-18.71-40.82-28.04-61.22-5.22-12.02-10.46-24.03-15.7-36.05Z"/><path class="cls-39" d="M152.06,12.46h-73.42c6.31,42.71,26.66,88.7,44.29,133.02,8.54,20.34,16.91,40.67,25.16,60.98h55.19c-9.91-30.96-20.74-62.06-30.53-93.01-10.96-34.64-16.47-67.82-20.68-100.99Z"/><path class="cls-38" d="M150.17,60.69c.43,1.66.86,3.33,1.29,4.99-5.19-18.02-9.1-35.76-11.75-53.22h-52.17c2.57,10.81,5.43,21.67,8.29,32.49,9,25.49,18.8,51.07,29.38,76.73,9.46,22.91,18.69,45.8,27.69,68.66,2.15,5.4,4.22,10.77,6.22,16.13h40.42c-7.8-22.4-15.74-44.81-23.88-67.26-9.68-26.34-18.17-52.52-25.5-78.51Z"/></g><rect class="cls-41" x="9.97" y="29.15" width="255.12" height="155.91" rx="10" ry="10"/></g><g id="Layer_1_copy_5"><path class="cls-15" d="M71.51,82.54h-27.99c-1.7,0-3.09,1.39-3.09,3.09v18.44c0,1.71,1.39,3.09,3.09,3.09h27.99c1.71,0,3.09-1.39,3.09-3.09v-18.44c0-1.71-1.39-3.09-3.09-3.09Z"/><path class="cls-44" d="M71.51,82.54h-27.99c-1.7,0-3.09,1.39-3.09,3.09v18.44c0,1.71,1.39,3.09,3.09,3.09h27.99c1.71,0,3.09-1.39,3.09-3.09v-18.44c0-1.71-1.39-3.09-3.09-3.09ZM40.72,85.63c0-1.54,1.25-2.8,2.8-2.8h4.23c.21.19.38.41.56.62.13.15.27.28.39.44.18.25.32.53.46.79.08.15.18.28.25.43.14.3.22.63.31.95.04.13.1.26.13.39.1.46.15.93.15,1.4,0,.29-.02.58-.06.87-.01.09-.04.18-.06.27-.04.2-.07.39-.12.58-.03.11-.07.21-.11.31-.06.18-.11.35-.19.53-.05.11-.11.22-.16.33-.07.15-.14.3-.23.45h-8.36v-5.58ZM40.72,91.5h8.36c.08.15.15.3.23.45.05.11.12.22.16.33.07.18.13.36.19.53.03.1.08.2.11.31.05.2.09.4.12.6.02.09.04.17.05.26.04.29.06.58.06.87s-.02.58-.06.87c-.01.09-.04.18-.05.26-.03.2-.07.4-.12.59-.03.1-.07.2-.1.3-.06.18-.12.36-.19.54-.04.1-.1.2-.15.3-.08.16-.15.32-.24.48h-8.36v-6.7ZM43.52,106.88c-1.54,0-2.8-1.26-2.8-2.8v-5.58h8.36c.09.16.16.32.24.48.05.1.11.2.15.3.08.18.13.36.19.54.03.1.08.2.1.3.05.2.09.4.12.59.02.09.04.18.05.26.04.29.06.58.06.87,0,.47-.05.94-.15,1.4-.03.13-.09.26-.13.39-.09.32-.18.64-.31.95-.07.15-.17.28-.24.42-.15.27-.29.55-.47.81-.1.14-.24.27-.36.4-.19.22-.37.45-.59.65h-4.23ZM74.31,104.08c0,1.54-1.25,2.8-2.8,2.8h-5.01c-.22-.2-.4-.43-.59-.65-.12-.14-.25-.26-.36-.4-.18-.25-.32-.53-.47-.81-.08-.14-.18-.27-.24-.42-.14-.3-.22-.63-.31-.95-.04-.13-.1-.26-.13-.39-.1-.46-.15-.93-.15-1.4,0-.29.02-.58.06-.87.01-.09.04-.18.06-.28.04-.2.07-.39.12-.58.03-.1.07-.21.11-.31.06-.18.11-.36.19-.53.04-.1.1-.2.15-.3.08-.16.15-.32.24-.48h9.14v5.58ZM74.31,98.21h-9.14c-.09-.16-.16-.32-.24-.48-.05-.1-.11-.2-.15-.3-.07-.18-.13-.35-.19-.53-.03-.1-.08-.21-.11-.31-.05-.19-.09-.39-.12-.58-.02-.09-.04-.18-.06-.28-.04-.29-.06-.58-.06-.87,0-1.16.31-2.29.91-3.35h9.14v6.7ZM65,91.21l-.04.07c-.66,1.13-1,2.33-1,3.57,0,.31.02.61.06.91.01.11.04.21.06.32.04.19.07.39.12.58.03.12.08.25.13.37.06.17.11.34.18.5.05.13.12.25.19.38.07.15.13.3.22.44-.08.15-.15.29-.22.44-.06.12-.13.25-.19.37-.07.17-.12.34-.18.51-.04.12-.09.24-.13.37-.05.19-.08.39-.12.58-.02.11-.05.21-.06.31-.04.3-.06.61-.06.91,0,.48.06.96.15,1.43.03.15.1.3.14.45.09.31.17.62.3.92.07.17.18.32.26.49.14.26.28.52.45.77.11.16.25.31.38.46.14.17.27.36.43.52h-17.88c.16-.16.28-.35.43-.52.13-.15.26-.3.38-.46.17-.24.31-.51.45-.77.09-.16.19-.32.26-.49.13-.3.22-.61.3-.92.04-.15.11-.29.14-.45.1-.47.15-.95.15-1.43,0-.31-.02-.61-.06-.91-.01-.11-.04-.21-.06-.31-.04-.19-.07-.39-.12-.58-.03-.12-.09-.25-.13-.37-.06-.17-.11-.34-.18-.51-.05-.13-.12-.25-.18-.37-.07-.15-.13-.3-.22-.44.08-.14.14-.29.22-.44.06-.13.13-.25.19-.38.07-.17.12-.34.18-.5.04-.12.09-.25.13-.37.05-.19.08-.38.12-.58.02-.11.05-.21.06-.32.04-.3.06-.61.06-.91s-.02-.61-.06-.91c-.01-.1-.04-.2-.06-.31-.04-.2-.07-.4-.12-.59-.03-.12-.08-.23-.12-.35-.06-.18-.11-.35-.19-.53-.05-.12-.12-.23-.17-.35-.08-.16-.14-.31-.23-.47.09-.15.15-.31.23-.47.06-.12.12-.23.17-.35.07-.18.13-.36.19-.54.04-.11.09-.23.12-.34.05-.2.09-.4.12-.6.02-.1.05-.19.06-.29.04-.3.06-.61.06-.91,0-.48-.06-.96-.15-1.43-.03-.16-.1-.3-.14-.46-.09-.31-.17-.61-.3-.9-.08-.17-.18-.33-.27-.5-.14-.26-.27-.51-.44-.75-.12-.17-.26-.32-.39-.48-.14-.17-.26-.35-.41-.5h23.33c1.54,0,2.8,1.25,2.8,2.8v5.58h-9.31Z"/><rect class="cls-44" x="53.86" y="85.04" width="7.31" height=".26"/><rect class="cls-44" x="53.86" y="104.31" width="7.31" height=".26"/></g><g id="Layer_1_copy_3"><path class="cls-16" d="M198.38,149.05h34.93c.84,0,1.52.68,1.52,1.52v17.5c0,.84-.68,1.52-1.52,1.52h-34.93c-.84,0-1.52-.68-1.52-1.52v-17.5c0-.84.68-1.52,1.52-1.52Z"/><path class="cls-33" d="M210.45,161.73l-.02-.02c-.35-.3-.43-.36-.57-.36-.03,0-.06,0-.09,0-.05,0-.09,0-.13,0-.11,0-.17-.04-.34-.2-.08-.08-.16-.09-.23-.09-.03,0-.05,0-.07,0-.02,0-.04,0-.07,0-.08,0-.15-.03-.2-.15-.03-.08-.05-.14-.07-.19-.05-.15-.07-.2-.18-.36-.09-.14-.29-.17-.45-.19-.09-.01-.17-.03-.2-.05-.03-.02-.08-.07-.13-.13-.14-.15-.36-.37-.54-.5-.08-.06-.16-.09-.24-.09-.04,0-.08,0-.11.01-.04,0-.07.01-.1.01s-.07,0-.11-.02c-.09-.03-.15-.06-.2-.09-.06-.03-.11-.05-.16-.06-.05,0-.12.08-.19.16-.04.05-.08.11-.1.11,0,0,0,0,0-.02,0-.07.05-.14.1-.2.05-.05.09-.1.06-.14-.02-.03-.04-.04-.08-.04-.05,0-.11.03-.16.06-.02,0-.04.02-.06.04-.1.06-.25.15-.33.27-.02.03-.04.06-.05.09-.05.09-.09.17-.13.17-.01,0-.02,0-.04-.02-.07-.08-.16-.19-.25-.19,0,0-.02,0-.02,0-.03,0-.07.04-.11.07-.05.04-.09.07-.13.07-.01,0-.02,0-.03-.01-.02-.02-.04-.04-.07-.05-.08-.05-.18-.12-.19-.31,0-.16.02-.19.05-.21.02-.02.04-.04.04-.08,0-.01,0-.03,0-.04.02-.11.06-.26-.11-.31-.03,0-.07-.02-.11-.02-.06,0-.12,0-.17.02-.05,0-.1.01-.14.01-.06,0-.09-.01-.09-.05,0-.08.02-.13.06-.2.02-.04.05-.09.08-.15.02-.04.04-.08.05-.12.06-.12.1-.22.08-.28,0-.02-.02-.03-.04-.03-.03,0-.06,0-.09,0-.07,0-.25.02-.34.21-.08.17-.23.28-.38.28-.03,0-.06,0-.09-.02-.2-.06-.32-.25-.34-.5-.02-.23.1-.52.17-.68,0-.02.02-.04.02-.05.05-.13.4-.39.6-.42.02,0,.04,0,.05,0,.08,0,.11.04.13.07.02.02.03.04.06.04h.03c.06,0,.1,0,.13-.09.03-.06.18-.14.3-.14.04,0,.09,0,.12.05.02.02.03.04.04.05.04.06.06.09.1.09.01,0,.02,0,.04,0,.01,0,.04-.01.06-.01.02,0,.1,0,.14.05.02.03.03.07.02.12-.04.2-.06.29.03.4.04.05.1.08.15.08.06,0,.09-.04.09-.09,0-.02,0-.04,0-.07,0-.12,0-.3-.03-.43-.04-.15,0-.2.03-.25h0s0-.02.01-.03c.05-.06.14-.2.37-.35.03-.02.06-.04.08-.06.21-.14.36-.24.46-.5.1-.28.29-.4.47-.49.08-.04.13-.04.18-.05.04,0,.07,0,.12-.03.08-.04.09-.08.11-.15,0-.03.02-.06.04-.1.04-.1.13-.13.28-.18.04-.02.09-.03.14-.05.12-.05.18-.08.21-.1,0,0,0,0,0,0-.01.03-.04.06-.07.1-.02.02-.03.04-.05.06-.02.03-.03.06-.02.08.01.03.05.02.13,0,.06-.02.11-.05.15-.07.06-.03.12-.06.22-.09.13-.04.16-.05.2-.07,0,0,.02,0,.03-.02.05-.03.15-.1.15-.16,0-.02,0-.03-.02-.04,0,0-.01,0-.02,0-.03,0-.06.03-.1.06-.05.04-.1.09-.16.09h-.02c-.09-.01-.22-.03-.24-.07,0-.01,0-.02,0-.04,0-.02.02-.04.03-.06.02-.06.04-.11.11-.17.05-.05.05-.09.04-.11-.02-.04-.07-.06-.13-.04-.04,0-.11.05-.18.09-.08.04-.16.09-.2.09,0,0-.01,0-.01,0,0,0-.01-.02,0-.03,0-.04.07-.11.24-.17.14-.05.34-.05.53-.05.09,0,.17,0,.25,0,.16-.01.25-.06.31-.1.03-.02.05-.03.08-.04.02,0,.04-.01.05-.02.02,0,.03-.01.04-.01,0,0-.02.03-.06.06-.04.04-.07.07-.1.1-.08.08-.15.16-.21.2-.08.06-.11.09-.1.12,0,.02.04.03.04.03.02,0,.05,0,.09,0,.08,0,.18,0,.25.04.04.03.07.05.09.07.03.03.05.04.09.04h.02s.11,0,.15-.06c.03-.05.03-.12-.01-.22h0s-.13-.14-.17-.2h0c-.03-.06-.03-.06,0-.14.01-.03.03-.05.04-.08.04-.06.07-.12.06-.18v-.02c0-.08,0-.14-.32-.46,0,0,0-.02-.01-.03-.02-.03-.06-.08-.05-.26,0-.02,0-.04,0-.06,0-.1,0-.17-.02-.2,0,0-.02-.01-.03-.01-.03,0-.07.02-.14.07-.1.08-.25.11-.34.11-.06,0-.1-.01-.11-.03,0-.02,0-.03.02-.05.09-.09.1-.15.1-.17,0-.02-.02-.03-.04-.03-.04,0-.15-.09-.23-.16-.03-.03-.04-.04-.06-.04,0,0-.01,0-.02,0,0,0-.02.01-.05.01-.03,0-.04,0-.05-.02-.02-.02-.04-.03-.07-.03-.02,0-.05,0-.08.02-.05.02-.07.03-.09.03-.05,0-.05.01-.12.15-.06.11-.14.17-.21.22-.06.04-.1.08-.11.12,0,.06.04.1.07.12.01.01.03.03.03.03,0,.03-.1.26-.24.29-.15.04-.25.08-.28.18-.03.11-.11.36-.24.36-.09,0-.14-.02-.16-.05-.02-.03,0-.07.03-.13,0-.02.02-.03.03-.04.07-.11.13-.21.11-.26,0-.02-.02-.03-.05-.03-.01,0-.03,0-.04,0-.08,0-.16,0-.38-.15-.1-.07-.19-.11-.25-.13-.08-.04-.12-.05-.13-.12,0-.05-.03-.08-.04-.09-.02-.02-.02-.03.05-.09.12-.11.78-.52,1.1-.61.08-.03.13-.04.15-.04,0,0,0,0,0,0-.02.02-.05.04-.05.07,0,.04,0,.07.02.09.02.02.04.03.08.03.03,0,.08-.04.12-.08.03-.03.06-.05.08-.05h0s.02.02.03.03c.02.03.05.07.1.07,0,0,.02,0,.04,0,.02,0,.05,0,.07,0,.06,0,.09,0,.1-.03,0-.01,0-.03,0-.04-.02-.05-.09-.09-.17-.12-.06-.03-.11-.06-.12-.08-.01-.03,0-.06,0-.08,0,0,.01-.01.02-.01,0,0,0,0,0,0,.01.02.06.04.11.04.08,0,.16-.03.22-.09.05-.05.08-.12.11-.19.04-.09.07-.17.14-.17h.01s.12,0,.2,0c.23,0,.28.04.29.05.02.04-.03.07-.09.11-.03.02-.05.03-.07.05-.01.01-.02.03,0,.04,0,.02.04.04.08.04s.12-.01.23-.11c.04-.04.06-.05.06-.05,0,.03-.08.17-.1.18-.02.01-.17.11-.17.11l-.05.05h-.16s-.16.03-.16.03l-.09.06v.08s.02.07.02.07h0s.12-.04.13-.06c0,0,.02-.01.04-.01s.06,0,.08.02c.05.02.19.13.19.13.04.04.17.16.19.17.01,0,.15.04.19.04,0,0,.01,0,.02,0,0,0,.02-.02-.04-.23.04.02.13.06.21.12.02.02.05.03.08.03.05,0,.1-.04.12-.07.02-.03.02-.06,0-.09-.01-.02-.03-.04-.04-.06-.04-.05-.08-.1-.08-.16,0-.05,0-.09.02-.11,0,0,.02-.01.02,0,.02,0,.05.04.08.06.04.04.05.05.06.05.02,0,.19-.02.2-.02l.18-.08h0s-.03-.12-.06-.14c-.02-.02-.18-.14-.22-.16l.03-.09-.02-.12-.22-.09-.35-.3h-.37s-.06-.04-.09-.04h0s-.25.07-.26.07l-.13.08.09-.16-.19.06-.27.12h0s-.11.12-.09.16c.01.04.07.08.08.08l.1.03v.11s-.12.1-.19.13c-.04.02-.06.05-.09.07-.03.03-.06.06-.08.05,0,0-.01,0-.01-.01,0,0,0-.02.02-.03.01-.02.03-.04.04-.06,0-.05-.01-.15-.01-.16h0s-.1-.05-.1-.05v-.18s-.04-.09-.04-.09l.12-.06.26-.05h0s.03-.09.03-.09h0c0-.05,0-.12,0-.12.02,0,.07-.08.1-.11l.06.02v.12h0s.07,0,.11,0c.01,0,.02,0,.02,0,.02,0,.22,0,.35,0,.01,0,.34,0,.35,0,.02,0,.12-.03.15-.04h0s-.01-.13-.01-.13h-.42l-.11-.04-.15-.03h-.27l-.05-.04h-.2s-.02.12-.05.15c-.04.03-.08.04-.11.02-.02-.02-.03-.05-.05-.08-.02-.03-.02-.05-.04-.05,0,0,0,0-.01,0-.03-.02-.1-.04-.15-.04-.03,0-.04,0-.05.03,0,.02-.04.03-.07.03-.03,0-.05,0-.06.03,0,0,0,.02,0,.03.02.06.1.1.12.1.02,0,.12.01.15.02.03,0,.06.05.06.06-.02.01-.11.07-.11.07h0s0,0,0,0c-.01.02-.04.09-.06.1,0,0,0,0-.02.02-.03.03-.07.08-.1.09,0,0-.03.01-.05.02-.11.04-.2.08-.2.12,0,.04-.03.1-.04.12-.03,0-.17.02-.28.04-.07.01-.09.05-.1.08,0,.02-.01.04-.04.05-.07.02-.25.06-.37.06h-.11c-.05,0-.11,0-.13-.03,0,0,0-.02,0-.03,0-.01,0-.02,0-.03,0,0-.02-.01-.05-.01-.09,0-.31.08-.32.09h0s-.12.1-.21.09c-.09,0-.32-.08-.34-.13-.03-.06-.25-.12-.28-.12l-.23-.04-.27-.04-.06-.05-.21.04s-.19.08-.26.08c0,0,0,0,0,0-.05,0-.27-.02-.28-.02l-.13-.02-.04.08-.38-.09s-.44-.06-.69-.08c-.24-.02-.35-.06-.49-.11h0s-.04-.01-.07-.01c-.14,0-.39.08-.61.16-.08.03-.16.05-.22.07-.24.07-.39.09-.4.1l-.15.04-.04.12h0s.02.07,0,.09c0,0-.02,0-.03,0-.03,0-.07,0-.11,0-.05,0-.1,0-.1,0l-.21.03h0s-.22.15-.23.2c0,0,0,.02,0,.03.03.03.11.04.16.04h.19s.04.05.04.07c-.01.01-.12.02-.32.03-.12,0-.24.07-.25.08-.03.02-.21.11-.22.11,0,0-.09.06-.11.08,0,0-.07.08-.07.11,0,.01-.02.09-.04.13h0s.13.14.13.14l.12.04-.03.06-.02.02-.68.26-.44.14-.21.1.48-.07s.34-.07.37-.09c.03-.02.3-.1.32-.11.02,0,.33-.1.35-.11,0,0,.09-.03.17-.05.12-.04.25-.07.27-.08,0,0,.14-.06.16-.09,0,0,0-.02.02-.03.01-.03.04-.08.07-.11.05-.03.17-.09.17-.09l.09-.03h.02s-.05.07-.05.07l-.1.05h.01s.06.06.07.06c.01,0,.06-.01.15-.04h.01s.04-.01.08-.02c.09-.01.16-.03.18-.05.02-.03.12-.07.16-.08l.15.03v.04s.01,0,.01,0c0,0,.04.05.07.05.03,0,.23-.01.27-.01l.09.07.05.19-.04.19v.16s0,0,0,0c.07.02.15.05.16.07.01.02.06.38,0,.46-.07.08-.13.05-.13.05h-.02s.01.15.01.15l.12.13.04.09v.13s-.15.25-.33.43c-.12.12-.18.27-.18.42h0s-.08.13-.15.23h0s-.01.11-.01.14c0,.03,0,.17.01.21,0,.04,0,.16,0,.16h0s0,0,0,0c0,0,.07.25.18.39h0s0,0,0,0c0,0,.12,0,.15.2,0,0,.07.31.07.42,0,.12,0,.2,0,.2v.12s0,0,0,0c0,0,.13.06.17.19.03.09.08.16.13.21.02.02.04.04.04.05,0,.01,0,.03.01.04.01.04.02.08.05.08,0,0,0,0,.01,0,.01,0,.03,0,.04,0,.02,0,.04,0,.04-.02.02-.02.02-.05,0-.1,0,0,0-.02-.02-.04-.04-.06-.12-.21-.14-.38-.01-.09-.04-.22-.11-.31h0s-.05-.12-.08-.18c0-.08,0-.16.02-.17,0-.01.05-.06.08-.06.02,0,.03.02.04.05,0,.03.02.07.02.11.02.12.05.27.1.35.02.04.05.07.07.1.05.06.09.11.09.19,0,.11.05.2.09.28h0s.04.05.07.09c.08.09.2.21.18.32,0,0-.01.15.01.26.02.1.39.41.71.54h0s.15.01.27.01c.05,0,.09,0,.11,0,.08-.01.14,0,.2.02.02,0,.05.06.09.11.04.06.08.12.12.15.05.04.11.05.18.06.05,0,.1.02.17.04h0c.16.05.25.08.28.13,0,.01.01.04.02.06.03.08.06.2.13.3.04.06.19.27.41.33.06.02.1.04.13.05.02.01.04.02.05.02.02,0,.04-.02.07-.06,0-.01.02-.03.03-.04.04-.06.07-.1.1-.1,0,0,.02,0,.03.02.02.03.04.06.06.09.02.03.04.06.05.08.04.04.12.39.03.54-.09.15-.21.31-.29.41h0c-.07.1-.13.26-.05.41.07.12.06.13,0,.19h0s-.02.02-.04.04c-.05.04-.11.09-.09.16,0,.01.12.33.39.69.16.22.26.42.33.55.03.06.05.11.07.14.07.11.25.24.34.3.07.05.13.12.18.16.02.02.03.03.04.04,0,0,.02.01.03.03.02.02.05.04.07.05.03.02.08.09.1.12.02.04.02.05.03.09,0,.01,0,.03.02.06.02.06.05.15.06.27,0,.05,0,.16,0,.31,0,.32-.02.76,0,.92.04.23.05.96.05.99,0,.04.02.15.03.16l.08.17.04.13v.13s0,0,0,0l.07.2h0s.05-.01.09-.01c.03,0,.03,0,.03,0,0,.02.03.17.04.23l-.06.08-.04.11s-.02.02-.02.04c0,.02,0,.03.02.05.04.04.09.13.1.14,0,.02,0,.11,0,.14,0,.04.03.09.03.1,0,0,.21.3.45.56.24.26.88.37.91.37h0s.08-.01.1-.06c0-.03,0-.05-.03-.09-.03-.03-.09-.07-.17-.12-.19-.12-.46-.27-.38-.45.05-.1.1-.16.13-.21.06-.07.09-.11.03-.18-.03-.03-.07-.07-.12-.11-.08-.06-.17-.13-.16-.19,0-.02.01-.04.04-.06.12-.08.11-.15.1-.21,0-.02,0-.04,0-.05,0-.03.02-.04.03-.04,0,0,.02-.01.02-.02,0,0,0-.02-.01-.04-.01-.02-.04-.04-.08-.07-.05-.03-.11-.07-.11-.1,0,0,0-.02.03-.03.04-.02.09-.03.13-.04.07-.01.14-.02.14-.1,0-.02,0-.04,0-.05,0-.04-.01-.08,0-.11.02-.03.07-.04.14-.04.15,0,.39-.07.44-.2.03-.06.01-.13-.05-.2-.21-.25-.2-.29-.2-.3,0,0,.02,0,.07.02.08.04.17.08.25.08.06,0,.11-.02.16-.07.04-.05.07-.14.1-.25.04-.14.09-.28.17-.31.16-.06.23-.22.21-.44-.02-.22.06-.31.13-.36.03-.03.06-.04.11-.06.06-.03.16-.07.34-.17,0,0,.44-.13.46-.58,0-.15,0-.28-.02-.39-.02-.22-.04-.38.1-.58.03-.04.06-.08.09-.12.22-.28.5-.63.11-.96Z"/><path class="cls-9" d="M205.28,158.11s.11.02.2.02c.1,0,.24-.01.31-.05h0s.01-.02,0-.04c0-.03-.04-.06-.1-.09-.13-.06-.28-.16-.35-.21-.07-.05-.13-.1-.22-.12-.01,0-.03,0-.05,0-.07-.01-.16-.03-.24-.03-.05,0-.1,0-.13.02-.1.04-.18.16-.18.23,0,.03.02.04.04.05h0s0,0,0,0c0,0,.09-.18.18-.18.01,0,.03,0,.04.02.03.03.05.04.05.05.01.02.02.02.06.02h.05c.14,0,.21,0,.25.09.01.03.01.06.01.09,0,.05,0,.1.06.12Z"/><path class="cls-7" d="M205.74,158.43s.05,0,.1-.01c.04,0,.08-.02.11-.02.03,0,.05.02.07.03.02.01.04.03.06.03,0,0,.02,0,.03,0,.03-.02.03-.04.03-.06,0-.02,0-.03.02-.05.01,0,.03,0,.06,0s.07,0,.11,0c.08,0,.16.01.21,0,.03,0,.04-.02.04-.03,0-.07-.27-.22-.43-.25-.02,0-.04,0-.06,0-.15,0-.2.09-.2.14,0,0,0,.01,0,.02,0,.04,0,.06-.06.06-.08,0-.13.05-.13.05-.01,0-.02.02-.02.03,0,.03.03.06.05.07Z"/><path class="cls-10" d="M204.22,150.95s.07.09.17.09h0s.04,0,.05,0c.05-.02.12-.06.19-.1.07-.04.14-.09.17-.09,0,0,0,0,0,0,.01.06-.05.15-.06.16-.07.05-.07.06-.07.07,0,.12,0,.12,0,.13,0,.01.07.08.13.07.02,0,.07,0,.11,0,.07,0,.12,0,.13,0,0,0,.01,0,.03,0,.02,0,.05.01.08.01s.07,0,.1-.02c.04-.02.1-.03.17-.03.08,0,.14.01.15.03.02.02.07.03.16.03.03,0,.06,0,.08,0h0s.21-.02.23-.1c0-.06-.01-.17-.02-.19l.04-.06.06-.07h0c0-.2-.02-.2-.03-.21h0s-.15.08-.2.12c-.02.02-.03.03-.04.05-.02.03-.03.05-.06.05,0,0-.02,0-.03,0-.08-.04-.21-.07-.3-.08-.1-.02-.16-.05-.18-.1-.02-.07-.13-.17-.33-.17h0c-.15,0-.19.04-.24.09-.02.02-.04.04-.07.05-.05.03-.1.07-.15.1-.04.03-.08.06-.1.07,0,0-.04,0-.07,0-.02,0-.04,0-.06,0-.02,0-.05,0-.06.02-.03.04-.02.11-.01.12h0Z"/><path class="cls-12" d="M206.63,150.66s-.07.03-.11.03c0,0-.13,0-.15.04,0,0,0,.02,0,.03h0s0,.02,0,.02c.01.02.12.18.19.18,0,0,0,0,.01,0,.15-.05.18-.07.19-.08,0,0,0,0,.01,0,.03,0,.08-.02.09-.05,0-.02.03-.04.05-.06.01-.01.03-.02.03-.04.02-.03.04-.11.04-.12,0-.01-.04-.03-.05-.04h0s0,0,0,0c-.03,0-.11.04-.13.04-.03,0-.05.01-.09.03-.01,0-.03.01-.04.02h-.02Z"/><path class="cls-8" d="M205.34,150.49s0,0,0,0c.05.01.11.03.16.04.13.04.26.07.39.08h.06c.14,0,.3,0,.42-.07.1-.05.1-.11.09-.19v-.03c-.01-.12.04-.19.14-.27l.06-.05-.07.04c-.05.03-.11.05-.16.07-.06.02-.12.04-.18.07-.05.03-.07.04-.07.06,0,.01,0,.02.02.04.02.01.04.03.04.06,0,.02,0,.03-.01.04-.04.04-.14.07-.25.07-.1,0-.18-.02-.2-.06,0-.02,0-.03,0-.05,0-.02.02-.02.03-.03.02-.01.04-.02.04-.07h0s0-.01,0-.01c-.08,0-.13-.01-.19-.01-.09,0-.16.01-.24.04-.02,0-.05.01-.09.02-.09.02-.2.04-.23.08-.02.02-.01.04,0,.05.02.04.1.08.25.11Z"/><path class="cls-11" d="M207.05,150.18s.02.03.04.03c.02,0,.15.03.25.03.12,0,.14-.02.14-.03,0,0,0-.01,0-.02,0-.07-.07-.1-.12-.11,0,0-.01,0-.02,0,0,0-.02,0-.03-.01-.05-.02-.12-.05-.19-.05-.02,0-.04,0-.06,0-.03.01-.05.04-.06.07,0,.01-.01.02-.02.03h0s.01.02.01.02c.02,0,.04.03.05.04Z"/><path class="cls-13" d="M207.63,150.24h0s.02.01.02.01h0s.03-.04.05-.06c.03-.03.06-.06.06-.09,0-.02,0-.03-.02-.05,0-.01-.03-.02-.04-.02-.05,0-.11.03-.14.05,0,0-.01,0,0,0h0s0,.02,0,.02h0s.06.08.08.13h0Z"/><path class="cls-14" d="M208.12,150.25s-.08.03-.13.03h-.09l.08.02c.17.04.34.04.49.04.03,0,.06,0,.09,0,.04,0,.08,0,.12,0,.11,0,.23,0,.35-.06.07-.03.14-.06.21-.1.1-.05.2-.1.31-.13.23-.07.43-.12.62-.17.1-.03.2-.04.31-.06,0,0,.21-.04.21-.06h0s0-.01,0-.01c-.1-.07-.27-.07-.41-.07h0c-.48,0-.87.04-1.26.12-.14.03-.29.04-.44.04-.1,0-.21,0-.31.02-.05,0-.1.03-.15.04-.06.02-.12.04-.18.04-.01,0-.03,0-.04,0h-.01s0,0,0,0c-.01.19.07.25.24.29Z"/><path class="cls-20" d="M213.48,151.02h0v-.2s.2-.14.25-.17c.06-.04.06-.16.06-.19l.06-.12.08-.04h0c-.04-.09-.07-.18-.05-.19.01,0,.05-.02.09-.03.09-.02.22-.06.31-.12.13-.09.26-.12.26-.12h.03s-.03-.02-.03-.02c0,0-.06-.02-.13-.02-.04,0-.09,0-.13.02-.06.02-.13.03-.2.03-.05,0-.09,0-.11-.02-.04-.03-.16-.09-.22-.11-.06-.01-.19-.05-.19-.05l-.12-.03h0s-.28,0-.57,0c-.48,0-.75.01-.79.04-.09.06-.19.06-.19.06,0,0-.31,0-.32,0,0,0-.67.04-.74.08-.03.01-.08.03-.14.04-.09.02-.2.04-.28.09-.03.02-.05.03-.06.04-.03.02-.04.02-.03.04,0,0,0,0,0,.02,0,.04-.19.04-.28.04h-.08c-.18,0-.25.02-.29.07-.03.04-.1.1-.1.1h0s.07.1.07.1h0s.14.1.4.09c.05,0,.11,0,.17,0,.16,0,.23.02.28.08.07.09.12.18.08.23-.05.06-.09.09-.09.09h0s0,.08,0,.08h0s.07.04.11.04c.02,0,.06.02.08.04,0,0,0,0,0,0,0,0,0,0-.03,0h-.01c-.1,0-.17.02-.18.06,0,0,0,.01,0,.02,0,.02,0,.04,0,.05,0,.01.03.02.06.02.03,0,.04.01.05.02,0,0,0,.02-.03.03-.05.02-.1.06-.16.13-.07.08-.11.35-.05.59.03.12.04.16.04.17,0,0,0,.01,0,.02,0,.04,0,.1.04.12.02.02.05.03.08.04.02,0,.03.01.04.02.02.01.12.07.12.07,0,0,.09.05.11.07,0,0,0,0,.02,0,.04,0,.15-.06.16-.07,0,0,.24-.17.27-.22.01-.02.07-.09.14-.16.08-.09.17-.19.2-.23.03-.04.11-.06.19-.08.04,0,.09-.02.13-.03.02,0,.05-.01.08-.02.13-.03.34-.07.54-.3.04-.01.57-.17.72-.2.16-.04.3-.12.3-.12Z"/><path class="cls-25" d="M214.12,151.66s-.02-.02-.04-.03c-.01,0-.03,0-.04-.02-.02,0-.03-.02-.04-.02-.03-.01-.03-.01-.08-.02-.02,0-.04,0-.06,0-.08,0-.18.01-.24.04-.02.01-.05.02-.08.02-.03,0-.06,0-.09,0-.02,0-.05,0-.07,0-.05,0-.09-.03-.13-.06-.01,0-.02-.01-.03-.02-.01,0-.02-.01-.03-.01-.02,0-.03.02-.04.03,0,0,0,.01-.02.02-.02.02-.14.09-.14.09h0s0,0,0,0c0,.04.01.05.02.05.01,0,.11.02.2.02.05,0,.06.01.07.05,0,.02.01.05.03.08.05.09.09.09.17.1.01,0,.03,0,.04,0,.02,0,.03,0,.05,0,.08,0,.14-.03.19-.06h.02c.07-.04.09-.05.19-.09.09-.04.11-.06.15-.11,0,0,0-.01.01-.02.02-.02.02-.04.02-.05Z"/><path class="cls-19" d="M214.7,153.06h.01s-.02-.02-.02-.02c-.01,0-.14-.05-.16-.05-.02,0-.05.02-.11.05-.03.02-.06.04-.07.04-.03,0-.18.11-.2.16,0,0,0,.02,0,.03.01.03.06.05.08.06-.02.02-.06.06-.13.11-.02.02-.04.04-.04.06,0,.05.07.1.07.11h0s.18-.02.18-.02c0,0,.11-.04.13-.04.03,0,.1-.05.1-.05h0s0,0,0,0c.02-.04.06-.14.06-.16v-.02s0-.1,0-.13c0-.04.06-.09.08-.11Z"/><path class="cls-23" d="M214.75,153.08c.08.04.19.11.2.16,0,.01,0,.02-.02.03-.03.02-.19.13-.2.19,0,.04.04.06.06.08l-.08.05h0s-.05.15-.06.18c0,0,0,.01,0,.02,0,0,0,0,.01,0,.01,0,.04-.02.09-.04.02-.01.04-.03.06-.04.04-.03.07-.02.12-.02.03,0,.07,0,.11,0,.05,0,.09,0,.13,0,.02,0,.05,0,.07,0,.04,0,.06,0,.08-.03.02-.02.04-.03.06-.04.07-.05.15-.11.11-.18-.03-.05-.06-.08-.09-.11-.03-.03-.05-.05-.08-.09-.02-.03-.05-.06-.09-.09-.06-.05-.13-.11-.14-.19,0-.03-.01-.05-.01-.06t0-.04s0-.02.01-.04c.03-.07,0-.16-.03-.19,0,0,0,0,0,0,0-.01.02-.04.03-.05,0,0,0,0,0-.01,0,0,0-.05,0-.13v-.02s-.01,0-.01,0c-.02,0-.39.17-.4.29,0,0-.07.26.07.34Z"/><path class="cls-24" d="M221.51,155.62h0c-.05.02-.1.04-.15.04-.04,0-.08-.01-.12-.04-.04-.03-.06-.04-.06-.06-.01-.02-.02-.03-.08-.03-.06,0-.12-.02-.13-.05,0-.02,0-.04.02-.08.02-.04.05-.07.08-.09.05-.05.1-.09.05-.17-.04-.07-.1-.11-.16-.15-.04-.03-.09-.06-.13-.11-.03-.03-.05-.06-.08-.08-.06-.06-.09-.09-.06-.12.01-.02.02-.03.02-.04,0-.02-.02-.03-.04-.04-.01,0-.03-.02-.03-.02,0-.03,0-.1,0-.11.02,0,.07-.04.08-.04h0s.02-.02.04-.03c.04-.02.11-.06.13-.1.02-.03.1-.07.16-.07.02,0,.04,0,.05,0,.01,0,.03,0,.04.02.05.02.1.04.11.07,0,0,0,.02,0,.04-.03.05-.04.05-.08.07-.02,0-.04.01-.06.03h-.01c-.07.04-.12.06-.13.1,0,.02,0,.03.02.05.02.02.06.04.1.07.06.03.12.07.16.12.03.04.04.1.05.13,0,.04.01.06.03.06,0,0,.02,0,.03-.02.01-.01.02-.03.03-.04.01-.02.02-.03.03-.03.01,0,.03.02.05.04.01.01.03.03.04.04.03.03.07.07.06.09,0,0,0,.01-.05.02h-.01c-.09,0-.14,0-.15.04,0,.02,0,.04.04.08.03.03.06.05.09.07.05.03.08.05.09.12v.02c.01.12.02.17-.07.2ZM227.39,158.58c.08.07.12.18.12.18,0,0,.04.1.08.34.02.13,0,.31,0,.45,0,.12-.01.21,0,.25.02.05.04.06.07.08.02,0,.04.02.07.04.07.06.22.2.23.29,0,.06,0,.09,0,.11,0,0,0,.02,0,.03,0,0,0,0,0,.02,0,.05-.01.14.16.29.18.16.29.23.29.23l.09.02-.04-.22h0s0,0,0,0c0,0-.1-.1-.1-.17,0-.03,0-.06,0-.09,0-.05,0-.1,0-.15,0-.04-.05-.08-.12-.14-.06-.05-.13-.12-.2-.2-.09-.11-.11-.14-.12-.15h0s-.14-.21-.14-.21c0-.01-.03-.13,0-.19,0-.01.01-.02.02-.04.03-.06.05-.11.05-.17,0-.01,0-.03,0-.04,0-.05,0-.13.01-.15h0s.05.12.05.16h0s0,0,0,0c0,0,.08.02.21.14.04.04.08.07.11.1.06.05.1.08.14.16.07.12.08.2.08.2h0s0,0,0,0c0,0,.02.02.04.02.03,0,.05-.02.08-.06.05-.09.13-.15.27-.26h0s.02-.02.03-.03c.13-.1.22-.17.1-.47-.1-.26-.19-.33-.28-.4-.02-.02-.05-.04-.07-.06l-.03-.03c-.11-.1-.23-.21-.19-.31.04-.1.24-.29.34-.29,0,0,.02,0,.02,0,.05.03.12.08.13.13,0,.02,0,.04,0,.06-.02.03-.04.05-.06.06-.03.03-.06.05-.04.1.02.06.05.13.05.13,0,0,0,.02.04.02.02,0,.04,0,.07-.02.04-.02.14-.06.16-.1,0,0,0,0,0,0,.01-.03.03-.06,0-.11,0,0-.02-.02-.03-.03-.04-.05-.07-.08-.05-.11.04-.04.13-.12.33-.2.21-.08.56-.27.66-.45.08-.15.19-.38.15-.61-.04-.21-.12-.33-.12-.33l-.14-.17-.15-.12-.13-.14s-.03-.04-.02-.09c.01-.04.06-.08.12-.11h.02s.06-.06.09-.08c.02-.02.04-.03.04-.04,0,0,0,0,.01,0,.01-.01,0-.06-.02-.11h0s-.07-.06-.07-.06h0s-.17.03-.2.06c-.03.03-.1.06-.13.06,0,0-.01,0-.01,0,0,0,0-.02-.01-.03-.02-.04-.04-.1-.08-.12-.02-.01-.04-.02-.07-.02-.05-.01-.09-.02-.09-.05,0-.02.02-.03.05-.04.03-.01.07-.03.12-.08.04-.04.07-.07.09-.1.02-.03.04-.05.05-.05,0,0,0,0,0,0,.04.01.04.04.03.08,0,0,0,.02,0,.03-.01.03-.03.08.02.13.03.04.09.06.13.06.03,0,.04,0,.04-.02,0-.01,0-.03-.01-.04v-.04s.03-.04.1-.04c.03,0,.06,0,.08,0,.02,0,.04,0,.05,0,.02,0,.04,0,.04.05,0,.03,0,.05,0,.08,0,.1,0,.15.03.15h.01s.04,0,.12.03c.03,0,.05.02.07.02.05.01.07.02.08.09,0,.06.01.08.02.1,0,.01.01.03.02.07,0,.04,0,.07,0,.1,0,.04-.02.08.01.11,0,0,.01.02.02.03.01.02.03.04.06.04.03,0,.06,0,.11-.03.03-.01.06-.02.09-.03.11-.04.16-.06.16-.12h0c0-.08.01-.22-.05-.29-.05-.05-.14-.13-.29-.25-.04-.03-.13-.1-.12-.14,0,0,0-.02.03-.03.09-.04.11-.06.1-.16,0-.07,0-.17.05-.22.03-.03.07-.04.12-.03.03,0,.06.01.08.01.11,0,.16-.08.22-.28v-.04c.08-.21.13-.37.08-.54-.05-.18-.22-.6-.42-.73-.08-.05-.15-.07-.24-.07s-.14.03-.14.03h0s0,.04,0,.04l-.08-.12h0s-.07-.03-.15-.04c-.06,0-.13-.02-.15-.03.01-.03.04-.1.07-.12,0,0,.02-.01.03-.02.03-.01.07-.03.08-.13,0,0,0-.02,0-.03,0-.11,0-.21.11-.24,0,0,.33-.06.55-.06.08,0,.14,0,.17.03.04.02.07.04.09.06.04.03.06.04.11.04.03,0,.07-.02.11-.04.04-.02.09-.04.13-.04h.03s.1,0,.1-.04c0-.02,0-.03-.03-.04-.03-.01-.06-.02-.09-.03-.06-.02-.1-.03-.1-.06,0-.03.01-.04.03-.05.02-.01.04-.03.04-.07,0-.06.04-.13.1-.13.01,0,.03,0,.04.01.02.01.05.02.07.03.05.02.1.04.12.1.03.09.05.12.05.13h0s0,0,0,0h.02s.08-.02.09-.05c0-.02.01-.05.02-.09,0-.05.02-.12.04-.13,0,0,.01,0,.02,0,.04,0,.11.06.11.11,0,.01,0,.02,0,.03,0,.03,0,.04-.03.07-.03.03-.04.07-.04.11,0,.02,0,.04,0,.07,0,.03,0,.05,0,.07,0,.04,0,.06-.03.08-.01,0-.03.02-.04.02-.03.01-.07.03-.06.08h0c.01.07.02.11.33.44.18.19.29.26.36.31.06.04.09.06.11.11.02.04.03.06.06.06,0,0,.02,0,.03-.01.02-.02.04-.07.03-.11,0-.03,0-.07.01-.12,0-.06.02-.14.02-.23,0-.16-.03-.31-.04-.34-.01-.02-.05-.04-.12-.08-.03-.01-.05-.03-.07-.04-.03-.02-.05-.03-.07-.04-.04-.02-.08-.04-.11-.07,0,0-.02-.02-.03-.03-.03-.03-.08-.07-.08-.08,0,0,0,0,0-.01,0-.01-.01-.03.05-.07.03-.02.05-.05.06-.07,0-.02.01-.02.02-.02.01,0,.04.02.05.03.08.06.11.08.12.08,0,0,.01,0,.02,0,0,0,.03-.03.08-.04.01,0,.02,0,.03,0,.04-.01.08-.02.11-.01,0,0,.01,0,.02,0,0,0,0,.01.04.02.02,0,.04.02.06.03.03.01.04.02.06.02s.02,0,.02-.02c0,0,0-.02,0-.04,0-.04,0-.1.01-.11,0,0,0,0,0-.01,0,0,0-.02.04-.05.02-.02.04-.03.05-.04.02-.02.03-.02.07-.04.02,0,.04,0,.04-.01.02,0,.02,0,.07-.01.02,0,.03,0,.04,0,.03,0,.04,0,.07,0,0,0,.02,0,.03,0,.03,0,.06,0,.06,0h.01s0-.02,0-.02c0-.02-.05-.09-.08-.1-.01,0-.04-.02-.06-.03-.02-.01-.05-.02-.06-.03,0,0-.02,0-.04-.01-.03,0-.08-.02-.1-.03-.02,0-.03-.02-.05-.02-.01,0-.03,0-.03-.02,0-.02,0-.1,0-.11,0,0,0,0,.01-.01.02-.02.04-.04.07-.04.04,0,.13.01.15.02,0,0,.02,0,.03,0,0,0,.02,0,.03,0,.03,0,.04,0,.06.02.01.01.02.03.02.04.01.02.02.04.06.04.06,0,.13,0,.14.02,0,0,0,.02,0,.03,0,.02,0,.04.02.04h.25s0-.09,0-.1c0,0-.01-.01-.03-.03-.03-.03-.06-.06-.09-.09h0c-.04-.06-.08-.11-.21-.14-.08-.02-.15-.04-.2-.06-.05-.02-.08-.03-.11-.03-.03,0-.06,0-.1,0h-.03s-.08,0-.1,0c-.01,0-.05-.01-.13-.03-.15-.02-.39-.06-.5-.12-.16-.09-.27-.1-.27-.1h-.26s0,.02-.02.02c0,0-.02,0-.03-.02-.04-.04-.11-.09-.13-.09h-.29s0-.01-.02-.01c0,0-.02,0-.03.02-.02.03-.02.09-.02.1,0,0-.03.03-.06.03,0,0,0,0-.01,0-.05-.01-.08-.02-.08-.02l-.12-.05h-.12s-.14.02-.16.03c-.01,0-.17.02-.3.02-.12,0-.16-.02-.16-.03-.05-.05-.32-.21-.45-.21-.04,0-.09,0-.15.02-.09,0-.2.02-.29.02s-.16-.01-.21-.04c-.16-.09-.35-.13-.39-.13h-.02c-.09,0-.43.02-.44.02l-.33.06s-.17.02-.22.02c-.01,0-.03,0-.05,0-.03,0-.05,0-.08,0-.04,0-.06,0-.07.02,0,.01-.09.03-.14.03-.02,0-.02,0-.02,0-.02-.01-.12-.06-.12-.07-.01,0-.28-.15-.41-.19-.03,0-.07-.01-.11-.01-.05,0-.1,0-.13,0-.03,0-.05,0-.06,0-.01,0-.01,0-.01,0,0,0-.01,0-.02,0-.06,0-.26.05-.28.06-.09-.01-.18-.04-.19-.06,0-.04-.21-.08-.3-.09h-.41l-.21.1.14-.13h0s.03-.14.03-.14l-.21-.07h-.33l-.31-.07h0s-.23.01-.39.05c-.15.04-.27.04-.27.04l-.28.06c-.18,0-.28.02-.29.04,0,.01-.08.08-.15.14h-.26s-.1-.04-.16-.04c-.02,0-.04,0-.04.02,0,.02.01.03.02.05.07.06.16.16.2.21l-.37-.1-.03.13h0s0,.04,0,.04l-.12-.02-.18-.26.05.27h0s0,0,0,0c0,0,.14.13.18.15,0,0,.02.01.03.02.03.03.06.05.1.05s.09.03.1.03l.02.04s-.05.12-.08.15c-.03.03-.13.17-.14.19,0,0-.04.02-.06.02-.02,0-.03,0-.03-.02,0-.02-.01-.03-.02-.04-.01-.02-.02-.03.03-.11.07-.1.01-.17-.02-.2,0,0,0,0,0-.01-.01-.02-.06-.15-.07-.19h0c-.07-.09-.15-.19-.15-.21,0-.03-.12-.11-.18-.15h0s-.06-.02-.1-.02c-.05,0-.06.02-.06.03,0,.01-.03.04-.06.07-.06.07-.14.15-.08.21.07.07.21.14.23.15l.08.11s.02.03.01.04c0,.01-.05.01-.11,0-.18-.05-.33-.09-.33-.09h-.26l-.15-.12h0s-.18.02-.18.02l.09.11-.04.06s-.04,0-.06,0c-.03,0-.03,0-.04.02,0,.01-.08.03-.16.03l-.05.02-.11-.04-.24.06h0s-.04.03-.04.06c0,.01-.07.06-.13.1h-.1s-.14-.12-.17-.15c0,0,0-.01-.01-.02-.01-.03-.02-.04-.1-.04-.05,0-.08,0-.09.03,0,.01,0,.03,0,.05.01.02.07.13.08.16l-.15.08s-.12,0-.13.03c0,.02-.07.08-.11.11l-.08.07-.29.04s-.12-.01-.12-.13c0-.09.04-.1.07-.1,0,0,.01,0,.02,0h.13s.02,0,.04,0c.03,0,.07,0,.1-.02.02-.01.02-.03.02-.04,0-.01,0-.02.08-.03.09-.01.11-.06.12-.1.01-.03.02-.04.04-.04.01,0,.03,0,.03-.01,0-.03-.22-.06-.25-.06-.18-.02-.47-.07-.56-.14-.04-.03-.08-.04-.12-.04-.05,0-.09,0-.14-.07-.05-.07-.1-.1-.14-.1-.02,0-.03,0-.05,0-.01,0-.05,0-.08,0-.03,0-.07,0-.1,0-.02,0-.04,0-.07,0-.05,0-.1,0-.1,0,0,0-.06,0-.1,0-.02,0-.03,0-.04,0-.02.01-.13.05-.14.06l-.24.03-.23.09-.15.09-.12.03v.07s-.09.12-.09.12c0,0-.13.16-.16.23,0,.03-.02.05-.03.08-.01.04-.03.08-.04.09,0,0-.02.02-.03.03-.01.01-.03.03-.04.03h0s-.02,0-.07,0h-.08s-.03,0-.03,0c-.03,0-.15.03-.18.08,0,.01-.02.03-.04.05-.04.05-.09.11-.1.15,0,.06-.03.31.04.39.07.08.18.09.18.09,0,0,.07,0,.1,0,.02,0,.13-.04.16-.08.02-.03.04-.05.05-.06h.04s.06.05.06.06c0,.02,0,.07.04.09.02.01.07.08.09.11.01.03.02.07.01.07-.01,0-.06.03-.09.04l-.03.02s-.11-.07-.11-.15c0-.05,0-.08,0-.09,0-.01,0-.02,0-.02h0s0,0,0,0c0,0,0,0-.01.02-.01.03-.08.11-.09.12h0s-.12.05-.14.06h0s-.01.07,0,.11c.01.04.04.12.04.13l.03.1-.02.03h0s-.21,0-.31.07c-.11.08-.18.16-.18.2,0,.02-.06.08-.11.13,0,0-.25.14-.4.21-.06.03-.16.04-.25.06-.13.02-.19.04-.2.06,0,0,0,.02,0,.03,0,0,.02.02.03.03.09.07.31.25.3.42-.01.2-.02.26-.27.26,0,0-.12.02-.24.02-.07,0-.14,0-.19-.02-.13-.03-.21-.02-.24.02-.01.01-.02.03-.02.06,0,.03.01.05.02.09.02.05.04.12.02.17,0,.03-.02.04-.04.05-.03.02-.07.04-.06.13,0,.05-.02.1-.04.14-.02.05-.04.1-.02.13,0,.02.03.04.07.06.04.02.07.02.11.02.02,0,.03,0,.05,0,.06,0,.1,0,.14.08.07.13.08.22.09.24-.02.02-.15.14-.25.23-.03.03-.05.04-.08.06-.08.06-.15.11-.17.26-.02.17-.11.34-.12.36-.02,0-.14.06-.32.26-.3.33-.44.52-.45.61,0,.11-.05.33-.05.33,0,0-.05.11,0,.17.04.06.05.19.05.22,0,0,0,.01,0,.02,0,.01,0,.03,0,.09,0,.02,0,.05-.01.09,0,.07-.02.15-.05.18-.04.04-.08.13-.08.14,0,0-.03.07,0,.12l.08.16.19.28h0s.08.07.12.1c.03.03.12.18.15.21,0,0-.01.02-.01.03,0,.02,0,.04.03.07l.05.06s.11.19.16.2c.02,0,.04.02.07.04.02.02.04.04.08.06.03.03.05.05.06.07.02.04.03.06.11.06.05,0,.08,0,.11,0,.04,0,.06,0,.1-.01.06-.04.1-.04.15-.04.01,0,.03,0,.05,0,.05,0,.13-.03.26-.03.05,0,.1,0,.15,0,.03,0,.05,0,.07,0,.12,0,.16-.04.2-.08.04-.03.08-.07.16-.1.03,0,.06-.02.08-.03.09-.03.18-.06.25-.06.08,0,.14.04.17.13.07.19.09.21.19.21h.18c.12,0,.18.02.2.12,0,.04.01.08.02.12.02.12.04.25,0,.3-.11.11-.13.21-.07.27.02.02.03.03.06.05.09.07.21.19.33.52.13.39.2.71.1,1.01-.03.08-.06.15-.08.21-.06.15-.11.26-.07.43.03.13.1.26.17.39.05.09.1.19.14.29.07.19.08.27.08.36,0,.03,0,.06,0,.1,0,.02,0,.03,0,.04.01.12.02.21.16.45.12.2.13.28.15.4,0,.04.01.08.02.13.02.09.02.18.01.26,0,.1,0,.18.05.21.06.03.11.05.19.05.07,0,.15-.02.26-.05.08-.02.16-.04.24-.06.16-.04.29-.06.41-.14.14-.08.29-.28.44-.48.05-.06.1-.12.14-.18.11-.14.13-.25.14-.33,0-.06.02-.12.06-.16.03-.03.07-.05.11-.08.11-.06.24-.14.23-.35,0-.08-.02-.15-.03-.21-.03-.15-.05-.24.15-.35.18-.1.23-.16.29-.22.04-.04.07-.07.14-.13.19-.15.19-.46.13-.69-.01-.06-.04-.12-.06-.19-.08-.22-.18-.51-.11-.77.06-.23.18-.35.35-.53.1-.1.2-.21.33-.37.1-.12.18-.21.26-.29.19-.2.35-.36.53-.9,0-.01.08-.3.03-.37,0-.01-.02-.02-.04-.02-.06,0-.12.03-.18.05-.04.02-.09.04-.15.05-.05.01-.11.04-.18.07-.09.04-.17.08-.23.08-.02,0-.03,0-.04,0-.03-.02-.05-.05-.09-.11-.07-.11-.18-.28-.46-.56-.34-.34-.36-.42-.39-.6,0-.04-.02-.1-.03-.16-.05-.21-.13-.33-.2-.45-.04-.06-.07-.11-.1-.18-.02-.05-.05-.1-.07-.14-.06-.12-.13-.26-.12-.3,0,0,0,0,0,0,0,0,.02,0,.02,0,.01,0,.02,0,.04,0,.04,0,.08.03.18.16.18.23.3.42.36.57.02.05.03.09.03.12.01.07.02.12.16.26.21.23.36.42.36.46,0,.01,0,.02,0,.02h0s-.02,0-.06-.04c-.02-.02-.05-.04-.08-.04-.02,0-.03,0-.04.02,0,0,0,.03,0,.05.01.03.04.06.08.09.06.06.14.14.16.21.01.05.02.09.02.13,0,.07,0,.12.05.15.06.04.14.05.22.01.02,0,.06-.02.12-.04.12-.03.29-.08.38-.14.04-.03.09-.07.14-.11.11-.09.26-.21.4-.27.2-.09.35-.15.57-.47.22-.32.19-.38.07-.49-.04-.04-.1-.07-.16-.11-.1-.06-.2-.13-.21-.18-.01-.07.02-.11.02-.11h-.01s-.16.12-.29.21c-.11.06-.19.08-.23.04-.02-.03-.04-.07-.03-.14h0c-.06-.19-.08-.19-.08-.19-.01,0-.01.02-.01.02,0,.06-.05.15-.07.15,0,0,0,0,0-.02-.01-.05-.06-.13-.11-.2-.03-.04-.06-.08-.08-.12-.01-.03-.04-.05-.06-.08-.06-.07-.12-.14-.03-.23.04-.04.08-.06.11-.06.06,0,.11.06.14.12.06.1.21.29.35.36.02.01.04.02.06.03.07.04.11.06.16.06.03,0,.05,0,.08-.02.04-.02.06-.04.08-.06.01-.02.03-.03.03-.03,0,0,.01,0,.03.04.01.02.02.04.02.06.02.06.03.09.14.13.09.04.18.04.3.05.06,0,.13,0,.21.02.03,0,.05,0,.08,0,.08,0,.15-.01.22-.02.06,0,.11-.02.16-.02.06,0,.1.01.13.04.02.02.04.03.05.04.09.07.15.12.29.36.09.15.15.22.2.22.02,0,.04-.01.05-.02,0,0,0,0,0,0,.01,0,.03-.03.05-.08.03-.04.07-.12.09-.12,0,0,0,0,0,0,.03.05.05.15.07.3,0,.04.01.08.02.13.02.15.06.25.14.44.03.08.08.19.13.32.09.24.15.36.2.44.04.07.06.11.07.17,0,0,.03.18.11.23.01,0,.03.01.04.01.07,0,.15-.08.2-.13h.01s.03-.03.03-.03c0,0,.02.02.02.04.01.04.05.14.04.21,0,.08.04.2.1.24h0s0,0,0,0c.12-.04.13-.06.13-.06,0,0,0,0,0,0,.03-.02.09-.07.08-.2-.01-.12-.12-.19-.17-.23-.01,0-.02-.02-.03-.02,0-.01-.04-.03-.09-.05-.02-.01-.06-.03-.07-.04.02-.01.04-.04.04-.05,0,0,0,0,0-.01,0,0,.05-.08.06-.1h0s-.01-.43-.03-.51c-.01-.07,0-.1.06-.15,0,0,.02-.01.03-.02.38-.3.6-.53.63-.68.03-.08.09-.19.12-.19,0,0,0,0,.01,0,.04.07.09.09.12.09,0,0,.01,0,.02,0,0,0,0,0,.02-.01.18-.14.26-.17.29-.17.01,0,.01,0,.01,0,.04.06.06.17.06.17h0s.15.23.23.3c.03.02.05.04.07.04.04.02.07.03.08.11,0,.06,0,.1,0,.14,0,.05-.02.09,0,.13.04.08.11.09.11.09h0s.13-.16.21-.16c.01,0,.02,0,.03.01ZM216.69,153.04s.1-.04.15-.05c.11-.03.22-.05.27-.2.02-.04,0-.07-.01-.1-.01-.03-.03-.06,0-.11.02-.04.12-.07.18-.08h.03s0-.02,0-.02c-.01-.02-.03-.04-.04-.06-.04-.06-.08-.12-.09-.18,0-.07.05-.2.15-.31.13-.15.3-.25.41-.25.05,0,.1.02.13.05-.02,0-.04.02-.05.03-.1.06-.22.13-.29.22-.08.1-.1.19-.07.26.06.12.31.15.51.15.16,0,.3-.02.38-.03-.05.09-.15.09-.26.09h-.05s-.04,0-.05,0c-.08,0-.16,0-.22.04h0s0,.01,0,.01c.01.04.04.08.06.11.04.06.08.11.05.18-.09-.05-.16-.07-.21-.07-.1,0-.13.08-.17.18-.03.09-.07.2-.19.26,0-.02-.01-.04-.02-.05-.01-.02-.02-.04-.02-.07h0s-.01,0-.01,0c-.02,0-.04.02-.06.03-.1.05-.25.12-.36.12-.07,0-.12-.03-.15-.08h0s0,0,0,0c-.04.02-.08.04-.12.07.04-.06.07-.09.14-.13ZM219.41,156.21c-.06.08-.07.13-.07.16,0,.03,0,.04-.1.05-.15.03-.26.03-.37.04-.02,0-.05,0-.07,0-.04,0-.08,0-.12,0-.05,0-.09,0-.13,0-.04,0-.07,0-.08-.02-.05-.03-.16-.08-.16-.09l-.17-.06s-.11-.06-.12-.07c-.01,0-.14-.02-.18-.02h-.02s0,0-.02,0c0,0-.02,0-.03,0-.03,0-.05,0-.08.03-.07.05-.1.11-.12.19,0,.04.01.06.03.07,0,0,0,0,0,0-.01,0-.04,0-.06,0-.05,0-.08,0-.11.01-.05,0-.08,0-.11-.01-.05-.04-.29-.05-.32-.05-.01-.01-.05-.06-.08-.1-.04-.06-.14-.12-.16-.13-.01,0-.04-.01-.08-.03-.04,0-.08-.02-.1-.03,0,0-.02,0-.03,0-.04,0-.08-.02-.09-.05,0-.02-.02-.03-.03-.04-.01,0-.02-.02,0-.06.02-.07.02-.09.03-.1,0-.02,0-.06,0-.07,0-.02,0-.07,0-.09,0-.03-.01-.13-.02-.15h0s0,0,0,0c-.02,0-.04-.01-.05-.02-.06-.02-.11-.04-.23-.04-.09,0-.15.02-.21.03-.04,0-.07.02-.1.02-.04,0-.07.01-.1.02-.03.01-.07.03-.11.02h-.07s-.1,0-.14,0h-.14s-.02,0-.03,0c-.03,0-.1.01-.15.09v.02c-.08.09-.14.17-.2.15-.04-.02-.08-.03-.13-.04-.04,0-.08-.02-.13-.03-.06-.02-.09-.03-.09-.05,0-.01,0-.02.03-.04.01-.01.02-.02.03-.03.03-.03.07-.06.18-.11.05-.02.09-.03.13-.04.08-.02.14-.03.18-.1.02-.04.03-.07.04-.1.02-.06.04-.11.11-.18.04-.05.09-.06.14-.08.07-.03.13-.05.17-.15.03-.06.05-.11.06-.14.02-.05.03-.08.06-.1.03-.02.04-.02.07-.01.02,0,.04,0,.08.02.03,0,.06.01.08.02.02,0,.04.01.05.01.03,0,.05-.02.07-.05.05-.08.1-.17.2-.15.02,0,.05,0,.07,0,.07,0,.11,0,.13.07.01.03.01.05.02.07,0,.05.01.1.11.18.08.07.14.1.2.12.04.02.07.04.11.06.03.02.07.04.09.06.06.03.1.06.11.1.02.07.04.13,0,.14-.03.02-.11.07-.12.08-.04,0-.12,0-.14,0-.02,0-.11,0-.12,0,0,0-.04,0-.05.04,0,.03-.01.05,0,.07.01.02.04.03.08.04.04,0,.08.03.13.05.05.02.09.04.12.04.02,0,.03,0,.03-.02.01-.03.03-.04.06-.06.02-.02.05-.04.07-.07.02-.02.03-.03.05-.05.05-.04.1-.09.09-.15,0-.03-.01-.06-.02-.08,0-.02-.01-.04-.01-.05,0,0,.01,0,.02,0h.05s.03,0,.04-.01c0-.01,0-.03-.01-.07-.04-.09-.07-.15-.15-.2-.02-.01-.06-.03-.1-.04-.08-.03-.19-.07-.24-.14-.09-.1-.2-.29-.17-.35,0-.02.03-.03.08-.02.11.02.14.06.19.13.05.06.11.15.25.25.05.04.09.06.13.09.18.12.19.13.2.22,0,.04,0,.08,0,.12,0,.07,0,.13.06.19.04.03.06.04.08.05.03.01.05.02.09.08.02.03.03.06.05.08.03.05.04.08.08.08,0,0,.02,0,.03,0,.06-.03.14-.09.16-.12,0,0,0,0,0,0,.02-.03.05-.06.02-.13-.02-.04-.04-.08-.07-.12-.02-.03-.04-.06-.05-.09-.02-.03-.05-.1-.05-.11,0,0,0,0,.02,0,.03.02.04.04.06.07.02.03.03.05.05.05.01,0,.02,0,.04-.03.02-.03.03-.06.04-.09,0-.03.01-.04.02-.03.04.01.06.02.12.14.03.05.05.1.07.14.03.06.06.12.08.15,0,.02,0,.03,0,.05,0,.02-.01.04,0,.06.01.02.04.04.1.06.05.01.09.03.13.05.07.03.13.05.18.05.03,0,.06,0,.08-.02.03-.02.05-.03.06-.03,0,0,.01,0,.01,0,0,0,0,0,.02,0,.01,0,.03,0,.06.02.01,0,.03,0,.04.01.05.01.08.02.12.02s.06,0,.09-.03c.07-.05.13-.08.15-.08.01.03.07.39-.06.56ZM220,154.95s0,.05,0,.06c0,0,0,.02,0,.02,0,0,0,0-.02,0-.01,0-.02,0-.04,0-.03,0-.06,0-.09,0-.02,0-.03,0-.04,0-.03,0-.06,0-.09,0-.03,0-.05,0-.08,0-.05,0-.09,0-.15-.04-.03-.02-.05-.04-.07-.05-.04-.04-.08-.06-.13-.06-.02,0-.03,0-.04,0-.05,0-.08,0-.1,0,0,0-.01,0-.03.02-.06.04-.21.13-.3.13h0c-.13,0-.22-.04-.27-.1,0-.01-.02-.02-.02-.03-.04-.05-.06-.08-.03-.15.04-.08.13-.22.14-.23,0,0,0,0,.03-.03.03-.05.14-.2.18-.2,0,0,0,0,0,0,.08.07.16.17.2.22.04.04.11.08.15.08.01,0,.02,0,.03,0,0,0,0-.01,0-.02,0-.02.01-.03.03-.05.03-.03.06-.07.07-.13.01-.09.14-.23.24-.21.03,0,.05.01.06.03,0,.01,0,.04-.02.07,0,0,0,.01-.01.02,0,.02-.02.03-.03.04-.03.03-.05.05-.01.12,0,.02.02.03.02.04.02.04.02.05.14.13.03.02.06.04.08.05.09.06.14.09.17.15.01.02.02.04.04.05.03.04.04.05.02.09Z"/><path class="cls-21" d="M221.48,162.83s-.02-.02-.02-.03c-.01-.06-.03-.13-.06-.13-.02,0-.02.02-.02.03-.02.08-.06.14-.1.18h0s-.16.25-.26.3c-.03.01-.06.03-.1.04-.08.03-.17.05-.2.13-.01.04-.04.06-.06.08-.03.03-.07.05-.02.13.07.13.09.28.06.39-.01.05-.06.09-.1.12-.05.05-.11.1-.11.17,0,.04-.01.1-.03.14-.03.09-.05.18.03.22.12.07.31.17.31.17h0s0,0,0,0c0,0,.23-.14.25-.24v-.03c.03-.11.1-.36.18-.64.09-.3.13-.43.13-.49,0,0,0-.02,0-.02,0-.05,0-.09.07-.12.07-.04.13-.1.1-.24-.02-.09-.05-.14-.07-.16Z"/><path class="cls-31" d="M230.25,157.76h.01s.08-.06.12-.15c.04-.09,0-.26,0-.27h0s-.11-.06-.11-.06h0c-.04.07-.12.22-.11.24,0,.02.09.22.09.23h0Z"/><path class="cls-18" d="M228.64,161.61c0-.07.02-.08.04-.09,0,0,.02-.02.03-.04.03-.06.01-.08-.06-.14-.01-.01-.03-.02-.05-.04-.07-.05-.16-.11-.21-.29-.05-.15-.11-.18-.17-.2-.03-.02-.07-.03-.1-.06-.05-.05-.09-.09-.14-.12-.04-.03-.09-.07-.13-.12-.1-.11-.23-.2-.27-.22-.04-.02-.2-.12-.2-.13h0s0,0,0,0c-.02,0-.14.05-.15.09,0,0,0,.02.01.03,0,0,.21.14.37.34.02.03.04.05.06.07.13.16.25.3.32.53.08.26.11.29.26.43h0s.04.04.06.06c.1.09.16.15.21.15.02,0,.03,0,.04-.03,0-.01.02-.03.03-.04.03-.04.06-.09.07-.18Z"/><path class="cls-22" d="M230.08,161.23s.05-.02.05-.08v-.02c0-.09.02-.18.06-.21,0,0,.02,0,.02-.01.04-.02.09-.05.06-.12-.02-.03-.05-.06-.08-.1-.04-.04-.08-.07-.08-.1,0-.05.08-.13.09-.13,0,0,.01,0,.04-.06.03-.04.06-.09.09-.12.05-.06.02-.08-.04-.14,0,0-.02-.02-.03-.03-.08-.08-.15-.17-.15-.17h0s0,0,0,0c0,0-.08.02-.1.1-.01.04-.05.08-.09.13-.02.02-.04.04-.05.06-.06.08-.24.22-.37.32-.07.05-.11.1-.14.14-.03.04-.06.07-.09.08-.01,0-.03,0-.04,0-.01,0-.02,0-.02,0-.01,0-.03,0-.05,0-.04.01-.16.04-.14.13,0,0,0,.02,0,.03.01.06.02.12.09.19.05.05.05.06.05.09,0,.01,0,.03,0,.05,0,.02,0,.05,0,.08,0,.09,0,.21.08.22.04,0,.07,0,.1-.03.03-.01.05-.03.09-.03.02,0,.05,0,.07.02.13.06.33.1.33.1h0s.09,0,.12-.03c0,0,.01-.02.01-.03,0-.04,0-.15.06-.25.03-.04.05-.05.07-.06Z"/><path class="cls-17" d="M231.19,160h0s.02,0,.04-.02c.03-.05,0-.22,0-.23,0,0,0-.11-.04-.16-.03-.04-.04-.06-.07-.12,0-.02-.01-.03-.02-.05-.02-.04-.03-.08-.04-.11,0-.04-.02-.07-.05-.11-.01-.01-.02-.02-.02-.03t-.04-.06l-.02-.02s-.02-.04-.03-.06c-.03-.06-.06-.12-.15-.16-.04-.02-.07-.03-.09-.04-.05-.02-.07-.02-.12-.08-.05-.06-.02-.11.02-.17.02-.03.04-.06.04-.1.03-.11-.12-.3-.12-.31-.01-.02-.03-.03-.04-.03-.05,0-.09.07-.1.14,0,.02,0,.03,0,.05,0,.06-.01.1-.06.19-.06.12-.02.17.04.23h0s.04.08.05.13c0,.04.02.1.05.16.03.06.04.09.07.09.02,0,.03-.01.05-.03.02-.02.04-.03.06-.05.03-.01.05-.02.06-.02.02,0,.03.01.05.04,0,0,0,.01.01.02,0,.01.01.02.02.03.03.04.06.07.06.16,0,.03,0,.04,0,.04,0,0,0,0,0,0,0,0-.03-.02-.05-.03-.02-.02-.05-.04-.08-.04-.02,0-.04,0-.05.01-.03.04-.01.13,0,.2.02.09.11.1.18.12.02,0,.04,0,.06.01.03,0,.05,0,.06,0,.02-.02.01-.05.01-.08,0,0,0,0,0-.01h0s0-.1-.03-.15c0,0,0,0,0,0,.02.01.07.05.1.11.04.09.05.14-.03.22-.05.05-.1.08-.14.09-.02,0-.04.02-.06.03-.03.02-.05.07-.06.11,0,.04,0,.07.03.1,0,0,.02.01.03.01.02,0,.03-.01.04-.03.02-.03.05-.06.11-.06h0c.06,0,.07.04.08.1.01.05.03.12.09.17.04.03.06.04.08.04,0,0,.01,0,.02,0,.01-.01,0-.04,0-.08,0-.03,0-.06,0-.09,0-.08,0-.08.01-.08Z"/><path class="cls-30" d="M230.68,160.91s.04.02.05.03c.03.02.04.03.08.03.02,0,.03,0,.04.01.02,0,.04,0,.07,0,.01,0,.02,0,.03,0,.03,0,.05,0,.08-.04.02-.02.03-.04.04-.06,0-.02.02-.04.03-.04.03-.02.04-.08.04-.09h0s-.01-.01-.01-.01c-.02,0-.08,0-.08.03,0,.01-.04.04-.07.05,0,0-.01,0-.02,0-.01,0-.02,0-.02,0-.02-.01-.11-.03-.13-.03h0s0,0-.01,0c0,0-.01,0-.02,0-.03-.02-.06-.05-.06-.05h0s0,0,0,0c0,0-.02,0-.04,0-.01,0-.02,0-.02,0,0,0,0,0,0,0-.03,0-.21.09-.22.15,0,.07-.03.19-.05.23,0,.02,0,.05,0,.08,0,.02,0,.04,0,.05,0,0-.04,0-.06.01-.03,0-.04,0-.04.02,0,0,0,0,0,.02,0,0,0,.04,0,.06,0,.04,0,.09.02.13.02.05.05.08.06.1,0,0,0,0,0,0,0,0,0,.03,0,.06,0,.01,0,.04,0,.06,0,.03,0,.05,0,.06,0,.01,0,.04,0,.07,0,0,.01.02.02.02,0,0,.02,0,.02,0,.04,0,.1-.01.11-.05,0,0,0-.01,0-.02.01-.03.03-.07.02-.11-.01-.06-.02-.13-.02-.15,0-.03,0-.12.02-.15.02.03.01.06.01.06h0s0,0,0,0c.07.08.09.12.12.23.02.07.08.18.13.18.01,0,.03,0,.04-.04.03-.11.03-.12-.02-.26-.02-.05-.05-.1-.08-.14-.03-.05-.06-.09-.06-.12,0-.02.01-.03.03-.04.05-.03.09-.05.12-.06.03-.01.04-.02.05-.03,0-.01,0-.02-.01-.03-.01,0-.02-.02-.03-.03-.01-.02-.03-.04-.04-.04,0,0-.01,0-.02,0-.01,0-.03.02-.04.02-.01,0-.02.01-.03.02h0s-.03.03-.04.03c-.02,0-.09-.02-.12-.03-.01-.02-.03-.05-.03-.07,0,0,0-.02,0-.03,0-.03-.02-.07,0-.08.01,0,.02-.02.02-.02.01-.01.02-.02.05-.02.02,0,.04,0,.05,0,.02,0,.03,0,.04,0h0s0,.02.04.03Z"/><path class="cls-28" d="M234.21,162.4s-.04-.03-.08-.08c-.04-.05-.08-.08-.11-.11-.04-.03-.07-.06-.09-.1-.01-.02-.03-.04-.04-.06-.02-.02-.04-.05-.03-.06,0,0,0,0,.03,0,.06,0,.09-.01.1-.03,0-.02,0-.04,0-.06-.01-.02-.05-.05-.09-.08-.06-.04-.15-.1-.22-.19-.09-.11-.16-.15-.25-.2-.04-.02-.08-.04-.13-.07-.14-.09-.3-.18-.44-.18h0c-.13,0-.18,0-.24.07-.03.03-.03.07-.04.1,0,.04,0,.06-.04.06,0,0-.01,0-.02,0-.1-.03-.19-.05-.24-.15v-.03s-.04-.04-.03-.05c0,0,0-.01.01-.03.01-.04.02-.06,0-.08,0-.02-.03-.03-.05-.03-.01,0-.03,0-.06,0s-.26,0-.31.05c-.06.06-.02.11-.02.11h0s0,0,0,0c.05,0,.2.04.22.1.02.04.02.07.02.1,0,.03,0,.07.02.1.04.07.09.09.17.1.04,0,.07.02.09.04.03.02.06.03.11.04.07,0,.1,0,.2.08.02.01.03.03.04.04.07.05.11.09.09.16-.02.07-.03.09-.05.11,0,0-.01.02-.02.03-.02.03-.02.06-.01.08.01.02.03.03.06.02.02,0,.03-.01.05-.02.02-.01.05-.03.07-.03.02,0,.04,0,.07.03.04.03.05.06.06.07.02.03.03.04.06.05.01,0,.03.01.05.02.03.02.06.03.09.03.03,0,.06-.01.09-.04h.01c.08-.09.16-.18.22-.18.03,0,.05-.02.05-.02,0,0,0,0,0,0,0,0,0,0,.02.02.01.01.03.02.04.03.03.03.06.05.1.1.1.14.18.21.25.21h0s.05-.01.07-.02c.01,0,.02,0,.03,0,0,0,.02,0,.03.02.03.03.07.06.1.06.01,0,.02,0,.03-.01,0,0,0-.03,0-.05-.01-.04-.03-.05-.05-.06Z"/><path class="cls-26" d="M229.19,162.19s.03.01.05.02c.03.02.05.03.07.03.04,0,.13,0,.18,0,.04,0,.06.02.09.04.01.01.03.02.04.04.02.01.04.02.08.02.05,0,.11-.02.17-.03h.02s.06-.03.07-.04c0,0,.01,0,.04,0,.03,0,.04,0,.06.01.02,0,.05.02.12.04.03,0,.1.01.2.01.08,0,.17,0,.26,0,.07,0,.14,0,.2,0,.07,0,.09,0,.09,0,0,0,.01,0,.01,0,0,0-.02.02-.03.03-.02.02-.06.04-.08.07-.02.03-.03.05-.02.07,0,.01.02.02.04.02h.01s.04-.02.08-.07c.02-.02.05-.04.08-.06.03-.02.07-.04.09-.07h0c.04-.05.06-.07.12-.07s.07-.05.07-.07c0,0,0-.02,0-.02,0,0,0-.03,0-.04-.01-.02-.04-.05-.09-.04-.06,0-.11.01-.15.07-.01.02-.02.02-.02.02s0,0-.02,0c-.01,0-.04-.01-.07-.01-.03,0-.06,0-.1,0-.06,0-.12,0-.18,0-.05,0-.08,0-.11,0-.08.02-.17.02-.23.02-.02,0-.04,0-.06,0-.04,0-.04,0-.05-.03,0-.01-.01-.03-.03-.04-.01,0-.03-.01-.05-.01-.04,0-.08.01-.11.03-.02,0-.03.02-.05.03-.02.01-.04.03-.05.03-.02,0-.05-.03-.07-.05,0,0-.01-.02-.02-.02,0,0-.02,0-.04,0-.03,0-.07,0-.07,0,0,0-.06,0-.1-.02-.01,0-.02,0-.02,0,0,0,0,0,0,0,0,0,0-.02,0-.03s.02-.01.03-.01c.01,0,.02,0,.02,0h.01s0,0,0,0c0,0,0-.07-.01-.1,0-.02-.03-.03-.07-.03-.02,0-.03,0-.04,0-.01,0-.04,0-.07,0-.03,0-.09,0-.13-.02-.02,0-.04-.01-.06-.01-.03,0-.05.02-.06.05-.01.03-.03.04-.12.04-.01,0-.02,0-.04,0-.06,0-.1-.03-.15-.06-.04-.02-.07-.04-.12-.06-.01,0-.03,0-.05,0-.1,0-.18.08-.18.09h0v.04h0s.11,0,.22.11c.12.11.27.12.28.12,0,0,.04,0,.08,0,.03,0,.04,0,.04,0Z"/><path class="cls-29" d="M232.54,166.86s-.07.01-.11.04c-.01,0-.02,0-.03,0-.04,0-.07-.05-.07-.05h0s-.06-.04-.06-.04c-.02-.01-.04-.02-.05-.02-.02,0-.02.02-.02.03,0,.02,0,.04,0,.08q0,.09-.06.13s-.02.02-.04.03c-.08.06-.05.13-.02.18,0,.02.02.04.02.06,0,.01,0,.04.05.04.03,0,.06,0,.09-.02.02,0,.04,0,.05,0,.04,0,.16-.13.19-.15,0,0,.1-.15.12-.17.02-.03.02-.08,0-.11,0-.01-.02-.03-.05-.03Z"/><path class="cls-27" d="M234,164.32c-.03-.05-.05-.1-.08-.16-.02-.05-.04-.09-.05-.14-.03-.08-.06-.15-.1-.21-.02-.02-.04-.04-.06-.06-.05-.05-.1-.1-.12-.22v-.1c-.03-.09-.04-.15-.04-.24-.01-.12-.05-.14-.09-.16,0,0-.02,0-.04-.01-.02,0-.06-.02-.06-.03,0-.02-.02-.14-.02-.14,0,0,0-.21-.04-.27-.02-.02-.03-.04-.03-.06,0-.02-.01-.03-.02-.03-.01,0-.02.01-.04.07-.02.06-.04.09-.06.12-.03.04-.05.07-.05.13,0,.03,0,.07,0,.11,0,.1-.01.2-.03.26,0,.03-.01.06-.01.08,0,.04,0,.07-.05.11-.03.03-.04.05-.05.07-.02.03-.03.05-.07.06-.02,0-.03,0-.04.01-.02,0-.04.01-.06.01-.03,0-.06-.01-.09-.04-.09-.07-.2-.21-.21-.23,0,0-.02-.02-.04-.03-.04-.02-.1-.05-.08-.1,0-.02,0-.03,0-.04,0-.03,0-.03.06-.1.03-.03.05-.05.06-.06.03-.02.05-.04.05-.1,0-.1-.02-.15-.02-.15,0,0-.02-.04-.06-.04-.02,0-.03,0-.05.02-.02.01-.04.03-.05.04-.03.02-.04.04-.07.04-.03,0-.12-.03-.13-.04,0,0-.01-.02-.05-.04-.01,0-.03-.02-.04-.02,0-.02-.07-.09-.08-.09h0s-.13.01-.13.01h-.03s.02.02.02.02c.06.04.13.11.13.13,0,0,0,0,0,0-.04.02-.09.02-.13.02-.03,0-.05,0-.05,0,0,0,0,0-.01,0-.04.01-.13.04-.15.13,0,.03,0,.05-.01.08-.01.07-.02.13-.05.14-.02,0-.03.03-.04.05-.01.02-.02.04-.04.04-.01,0-.03,0-.04-.03-.03-.03-.06-.07-.09-.11-.04-.06-.08-.11-.12-.11,0,0-.01,0-.02,0-.03.02-.09.08-.15.15-.05.05-.1.11-.14.15-.06.06-.12.08-.18.1-.04.01-.06.02-.09.04h0c-.06.05-.1.08-.12.17-.02.09-.06.16-.07.18,0,0-.08.1-.23.14-.14.04-.48.17-.68.29-.19.11-.22.23-.22.45,0,.07,0,.11,0,.15,0,.05,0,.08,0,.21.02.11,0,.16,0,.22,0,.05-.02.11-.01.2,0,.05,0,.09,0,.12,0,.11,0,.16,0,.19-.02.04-.09.11-.14.16l-.02.02s-.05.07-.05.1c0,.03.01.05.03.06.01.01.03.02.04.03.02.02.03.03.06.04.04.01.1.02.1.02h0s.19-.07.24-.13c.04-.05.15-.07.28-.07.03,0,.07,0,.1,0,.03,0,.06,0,.08,0,.03,0,.07,0,.1-.04.05-.06.08-.07.14-.1h.01c.06-.03.09-.04.24-.09.05-.02.12-.04.2-.06.09-.03.15-.05.2-.07.07-.03.11-.04.14-.04s.07.02.14.06c.07.04.12.06.16.08.06.02.09.03.1.11.01.13.07.25.08.25,0,0,0,0,0,0,.01,0,.03.02.05.02,0,0,.02,0,.02,0,0,0,.01-.03.01-.05,0-.07.02-.08.07-.12,0,0,.02-.01.03-.02.05-.03.11-.07.14-.07,0,0,0,0,0,0s0,0,0,.01c0,.03-.03.07-.06.1-.02.03-.04.05-.05.08,0,.01,0,.02,0,.03,0,0,.02,0,.03,0,.02,0,.04,0,.05,0,.01.01.03.03.03.04-.02.01-.08.04-.08.04l-.04.02s-.05,0-.07.02c-.02.01-.05.03-.05.03h0s-.02.06-.02.06l.02.06h.01s.02-.02.04-.02c0,0,.02,0,.03,0,.06-.01.11-.02.12-.04,0,0,0,0,0-.01,0-.02.03-.06.04-.06,0,0,0,0,0,0,0,.01.02.02.03.03.01,0,.03.02.03.03,0,0,0,.02-.02.03,0,0-.02.02-.02.02-.03.03-.04.04-.04.07,0,.08.03.13.07.16h0c.05.05.11.11.19.11.03,0,.06.02.08.03.02.01.04.02.06.02.02,0,.04-.01.05-.04.02-.06.07-.1.1-.1,0,0,.02,0,.02.01.01.02.02.04.03.05,0,.02.02.04.03.06,0,0,0,.02.01.04,0,.02,0,.04.03.04.01,0,.02,0,.04-.03.01-.02.02-.03.03-.03t.07-.07l.02-.02c.09-.08.11-.09.24-.1.14-.01.31-.11.34-.24.02-.09.13-.21.23-.32.05-.06.1-.11.14-.16.04-.05.08-.09.13-.14.11-.11.23-.23.28-.41.02-.06.04-.11.06-.16.06-.15.11-.25.02-.45-.06-.14-.1-.21-.13-.27Z"/></g><g id="Layer_2"><g class="cls-34"><path class="cls-43" d="M320.11,0H90.05c-5.51,0-10.01,3.96-10.01,8.79v101.26c0,4.84,4.5,8.79,10.01,8.79h230.06c5.51,0,10.01-3.96,10.01-8.79V8.79c0-4.84-4.5-8.79-10.01-8.79Z"/></g></g></g></svg>