<?xml version="1.0" encoding="UTF-8"?>
<svg id="Layer_1" xmlns="http://www.w3.org/2000/svg" version="1.1" viewBox="0 0 675 402">
  <!-- Generator: Adobe Illustrator 29.3.1, SVG Export Plug-In . SVG Version: 2.1.0 Build 151)  -->
  <defs>
    <style>
      .st0 {
        fill: #8a90a2;
      }

      .st1 {
        fill: #f25f37;
      }

      .st2 {
        fill: #f7b94a;
      }

      .st3 {
        fill: #e7b058;
      }

      .st4 {
        fill: #111428;
      }

      .st5 {
        fill: #18172a;
      }

      .st6 {
        fill: #b37023;
      }

      .st7 {
        fill: #f8b843;
      }

      .st8 {
        fill: #f7b834;
      }

      .st9 {
        fill: #6a2f22;
      }

      .st10 {
        fill: #7e8397;
      }

      .st11 {
        fill: #9ea4b4;
      }

      .st12 {
        fill: #f0eedf;
      }

      .st13 {
        fill: #e49032;
      }

      .st14 {
        fill: #989dac;
      }

      .st15 {
        fill: #53c96c;
      }

      .st16 {
        fill: #9297a8;
      }

      .st17 {
        fill: #101326;
      }

      .st18 {
        fill: #9ca1b1;
      }

      .st19 {
        fill: #eef1f4;
      }

      .st20 {
        fill: #f8f9fa;
      }

      .st21 {
        fill: #e6623d;
      }

      .st22 {
        fill: #798092;
      }

      .st23 {
        fill: #221719;
      }

      .st24 {
        fill: #171a31;
      }

      .st25 {
        fill: #63677b;
      }

      .st26 {
        fill: #75788c;
      }
    </style>
  </defs>
  <path class="st20" d="M375.9,335.2c-4.7-.2-9.4,1.1-13.5-1.9-6.5-4.6-4.5-15.6,3.5-16.9,9.5-1.5,25.7,0,36,0,2.2,0,4.1-.9,6.7-.8,4.5.1,9,1.8,12,5.2,1.1-.9,1.9-2.1,3.1-2.9,4-2.4,25.1-2.1,30.7-1.6,17.3,1.5,30.1,18,24.5,35-2.2,6.6-6.5,10.4-11.3,15l10.8,15.3,23.8-60.2c7.5-9.1,19.5-6.8,24.5,3.7,6.1,12.9,10.7,29.6,16,43.2,1.5,3.9,2.9,9,5.8,11.8v-57.4c0-3.1,6.7-6.7,9.6-7,2.2-.2,8,1.9,9.2,3.6.8,1.2,1.4,5.1,1.5,6.8.1,1.5,0,3,0,4.5.8,21-.5,42.2,0,63.3-.7,5.3-5.4,7.9-10.4,7.9-.7,0-1.8.1-2.2,0-1.2-.3-4.3-3.5-5.8-3.6l-6.2,3.6c-.5,0-1.1.1-1.5,0-1.2-.3-2.8.1-4.5-.4-6-1.7-8.6-10.8-10.5-16.1-.2-.7-.5-1.5-.8-2.2-.2-.6.5-2-.4-2.3l-24.6.2c-5.1,6.1-3.5,19.4-13.7,20.9-4.3.6-5.9-2.2-8.2-2.2-1.2,0-4.3,1.8-6.4,2.2-.9.2-3.4-.2-3.8,0-1.8-1.4-3.2-2-4.8-3.8-3.2-3.7-8.2-13.9-10.9-18.7-.2-.4-.4-1-.8-1.5-1-1.7-1.6-4.9-3.8-6.4l-8.5.4c-2.6,2.5-.6,5.9-.5,8.3.1,5,.8,14.4-2.2,18.4-3.6,4.7-10.5,3.9-15,1.1-.1,0-.9-1.6-1.5-2.2l-1.5-3.8c0-10.7.2-21.5,0-32.2l.8-30c-2,0-2.6,2-4.3,2.8-.5.3-4.8,1.7-5.1,1.7h-10.9c.3,12.2-.6,24.2-.8,36.4,0,3.3.9,6.8.8,10.5,0,4.3-1,10.2-1.5,14.6-3,2.7-3.6,4.5-8.6,4.6-14.2.3-10.8-19.2-10.9-28.6,0-5.7,0-11.5,0-17.2,0-5.2.2-10.5,0-15.8,0-1.5,0-3,0-4.5,0-1-.8-.7-1.5-.8-.7,0-1.5,0-2.2,0h0ZM440.4,353.2h11.6c1,0,4.3-2.1,5.3-3,3.7-3.5,3.9-10.1-.1-13.4-.6-.5-3.9-2.4-4.4-2.4h-12.4v18.8h0ZM507.2,363.7h10.9c.3,0,1.2-.8,1.8-.9.9-1.5-3.9-15.3-5.1-17.5-.5-.9-.6-2-1.9-1.9l-5.6,20.3h0Z"/>
  <path class="st20" d="M117.9,394.1c-1.8,10.9-18.5,10.5-20.2-1.6v-68.9c1.2-4,4.3-6.8,8.5-7.2,8-.7,27.7-.8,34.7,2.1,20.1,8.5,23.1,35.6,4.1,46.8v1c-.1,0,15.3,22.2,15.3,22.2l26-66.2c10-11.1,20.4-7.6,25.9,5.3,7.2,16.8,14.8,37.1,20.5,54.5,2.3,7.1,5.9,17.9-5.1,19.7-13.3,2.2-12.4-12.5-17.4-20.5l-25,.4c-2.1.5-3.7,17-11.2,19.7-7.8,2.8-10.8-3.3-13.6-3-1.4.1-3.8,2.7-5.7,3.2-14.5,3.9-18.9-20.8-26.6-29l-10.2-.7c-.8,6.7,1.1,15.7,0,22.1h0ZM117.9,353.2h11.6c3.1,0,8.4-5.3,8.7-8.6.3-3.8-3.4-10.1-7.2-10.1h-13.1s0,18.8,0,18.8ZM198.9,343.5c-1.7-.3-1.2,0-1.7,1-.8,1.5-6.5,17.9-5.8,18.5,4.6.8,8.9,1.2,13.5,0l-6-19.5h0Z"/>
  <path class="st20" d="M255.2,369c2.1.3,1.1-.2,1.5-1.1,5.5-13.6,8.7-29.6,14.6-43.1,1.9-4.4,4.9-9.1,10.4-9,2.4,0,5.3,2.1,6.8,2.1s4.7-2.3,7.5-2.1c3.2.1,6.6,2.6,8.4,5.1,5.3,7.1,8.9,17.4,14.1,24.9,1.6,0,11-23.8,15.4-27.3,7.7-6.1,19.8,0,16.6,9.9-3.9,12.2-16.6,26.8-21.6,39.2-2.6,10.1,6.1,37.4-12.7,34.5-13.7-2.1-6.7-26-9-35.2-.8-3.2-14.1-25.8-16.7-29-.5-.6,0-1.4-1.7-.9l-23.1,59.8c-5.2,8.1-17.2,7.1-21.3-1.5-6.5-21.3-17-42.6-23.1-63.9-1.2-4.2-2.9-8,.4-11.7,5.3-6,14.5-3.8,18.3,2.8,4.6,7.9,10.4,30.9,13.8,40.9.6,1.9,1.1,3.9,1.3,5.8h0Z"/>
  <path class="st20" d="M570.9,326.2c.8-8.4,6.7-10.9,14.7-9.8,1.3.2.9,1.1,1.7,1.5.5.3,1.5,0,1.7,0,0,0,.2.9.8,1.5,6,6.6,12.3,17.3,17.2,24.8,1.1,1.6,1.4,1.4,1.5,1.5.4.6.5,1.5,1.5,3,.2.3.6.5.8.8,1.1,1.8,1.4,4,3.5,6.5.5.5,0,1.4,1.7,1,0-5.5,0-11,0-16.5,0-1,0-2,0-3,0-4.6-1-13.8,1.5-17.2.9-1.3,4.4-3.4,6-3.8.6-.1,1.5,0,2.2,0,.5,0,1,0,1.5,0s1,0,1.5,0c1.1.1,2.2.1,3.2.7l4.3,5.3c0,.5,0,1,0,1.5,2,22.1-1.5,47,0,69.4-1.6,8.7-10.9,11.6-17.3,5.3-9-8.9-17.5-30-25.9-40.9-.5-.6-1-1.5-1.8-1.5v39.4c0,.9-2.8,4.3-3.8,4.9-.4.3-1,.6-1.5.8-1.8.6-4.9,1.1-6.8.8-4.6-.9-7.6-5.8-8.2-10.2-1.9-16.3-.6-43.9,0-61,0-1.5-.1-3.1,0-4.5h0Z"/>
  <path class="st20" d="M75.9,370.5c-3.2,0-6.4.3-9.5-.6-7.4-2.2-8.3-14-1.4-16.7,2.9-1.2,19.5-1.2,23.3-.7,3.2.4,6.6,3.2,7.1,6.4.7,4.5.7,23.1,0,27.7-.9,6-9.5,11.1-14.8,13-32.2,11.7-61.2-20-53.8-51.6,5.9-25.3,34.3-41,57.9-27.1,6.4,3.8,11.6,11,5.5,17.8-8.7,9.6-15.1-5.2-25.7-3.9-22,2.6-26.5,37.3-5.1,46.7,9.8,4.3,19,1.2,16.5-10.9h0Z"/>
  <path class="st22" d="M592.7,294c0,2.6-.5,2.1,1.8,2.2,24.2,1.9,50.7-1.5,75.1,0l3.3-1.5c.3.6,1.1,1.2.8,2.2-.2.3-.1,1.3-.7,1.9-2.8,2.6-3.1,2.4-6.8,2.6-10.8.7-22.8,0-33.8,0-2,0-4,0-6,0h-6c-204.1.5-408.8-.4-613.2,0-1.2,0-4-.3-4.8-.8-1.2-.8-1.6-3.1-1.5-4.5h79.5c7.7,2.4,16.6-.5,24-.8,1.7,0,3.6.8,5.6.8,94.3,0,188.5,0,282.8,0l4.1-.8-2.2-2.2c18,5,19.6,4.6,37.5,0,.3,1.1-1,2.9,1.1,3,8.9.6,22.7.7,31.5,0,1.5-.1,3.1-.4,4.1-1.5,14,4,19,1.8,32.2-1.5-.6,1.6-1.2,2.6,1.1,3h50.6l-2.2-4.5c5.5.5,10.3,3.7,15.7,4.9,10.5,2.3,16.5.3,26.3-2.6h0Z"/>
  <path class="st2" d="M348.9,51c-1.3-1.6-5.7-2.5-4.5-6,1.9-.6,2.5,2.7,3.5,3s2.4-.2,3.4,0c.2,0,1.7,3.1,4.3,1.1-2.4-2.1-5.2-4.1-8.2-4.2.9-3.1-1.5-2.3-1.5-4.5h5.2l.7-1.5c0,1.7.6,3.3-1.5,3v1.5c2.7-.9,2.5,1.3,4.5,1.5.1.2-.1.6,0,.8.9,1,4.2,1.2,4.9,3.8,3.2-.4,3.9-3.8,7.1-3-.1,1.9-.5,2.8,1.5,3.4-.9,1.3-1.7,1-3,.4-.2,1.5.3,3.3,0,4.7-.1.6-1.4.5-1.5,1-.2,1.1.2,2.5,0,3.5-.1.6-2.6.4-1.5,2,0,0,1.3-.2,1.5.5.4,1.6-.5,3.5.2,5.3.1.4,5,4.4,5.8,5.1.2,1.8-2.8,2.2-3,3.2-.5,1.9.3,4.3.8,6.2,1.4,0,.4-2.4,1.1-3.8.5-.9,4.3-3.9,5.6-3,.7,2.3-2.5,1.2-.8,2.2-2.8,6.2,6.1,7.5,5.2.8-.4-2.7-2.7-1.7-2.2-3.4.5-1.8,2.1-.6,2.6.3l-.4-1.5h3c.1-.9-.8-.7-.8-.8,0-.4,5.1-3.3,6.3-5.3,3.3-5.1,2.2-13.4-2.6-17.2l1.5-4.5-2.2.8-.8-3c2.7.1,4.6-1.4,6.4-1.4,4.7,0,3.8,7.4,6.3,10.1,1.9,2,7.2,1.5,7.5,3-.8,1.8-1.4,3.8-2.2,5.6-2,4-5.2,8.7-7.5,12.8-1.3,2.2-2.6,6.3-3.8,8.2-.4.6-1.9,1.9-3,3.8-.3.6-.5,1.1-.8,1.5-2.1,3.3-4.7,5.4-6,9.8-.5.2-1,.5-1.5.8-1.4.6-1.6.2-2.6,2.2-.8,0-4.1-7.9-5-9.3-.4-.7-1.2-1-1.4-1.2-.5-3.3.6-6.5-4.5-6.8-1.7-2.7-7.1-13.5-9.5-14.2s-5.7,4.3-4.7,6.7l6-3c.9,2.5,2.3,6.1,3.8,8.2-2.9,1.8-7.3.1-10.5,0l2.2-3-7.2,3.6-3.2-1.5.7-7.4c3.2-.8,2.8,2.3,6,1.5l-1.6-4.9c3.3-3.9,3.7-8.3,3-13.4-.1-1-.8-3.4-1.4-4.2h1.5v-1.5h-1.5v1.5h0ZM372.9,84h-2.2v1.5h1.1l1.1-1.5Z"/>
  <path class="st19" d="M167.4,41.2c.5,0,1,0,1.5,0,1.9.2,4.1-.2,6,0,.4,0,1.8.6,3,.8,2.8.4,5.5.9,8.2,1.5,1.4.3,3.2.3,4.5.8,2.7.9,5.4,3.1,8.2,3.8-.6,1.9.4,6.6,0,9l-5.2,2.2c-.1-3,.2-.5,1-2.4.7-1.6.5-3.4.5-5.1-16.8,5.3-36,6.4-53.7,5.3-8.9-.6-19-2.8-26.6-7.5,1.7-4.6,6.1-4,9.9-5.3.6-.2.6-1.2.7-1.2,1-.4,8.7-1.1,10.4-1,.5,0,1,0,1.5,0v1.5c-2,.2-6.2,1.1-6.7,3.4.3,1.5,9.3,4.3,11.2,4.9,1.5.4,2.8,1.3,4.5,1.5,4.6.5,18.8.2,22.5-2.2,1.5-1,1.9-1.7,1.4-3.7-5.3-1.7-10.8-3.4-16.4-3.1-.5-1.3-1.1-2.5-1.5-3.8,5.3,0,9.9.4,15,.8h0Z"/>
  <path class="st11" d="M114.9,49.5c7.6,4.7,17.7,6.9,26.6,7.5,17.6,1.2,36.9,0,53.6-5.3,0,1.7.2,3.5-.5,5.1-.8,1.9-1.1-.6-1,2.4,0,.2,0,.5,0,.8l-16.5,3.8h-.8c-.8-1.2-2.9-.8-4.1-.8-17.2-.2-35.4.3-52.1-3-.5,0-2.9-.7-3-.8-.2,0-2.9-2.1-3-2.2-.6-1.5.1-5.8.8-7.5h0Z"/>
  <path class="st9" d="M389.4,39.7c5.8-.3,5.7,7.6,9,10.5,1.4,1.2,5.5,1,7.5.8,3-.3,1.2-3.6,4.5-3.8v.8c0,.5,0,1,0,1.5h-.8l-1.5,2.2c-.3.1-.5.7-.8.8-.6.2-1.9-.3-2.6.7-.1.2,0,2.7-.4,3.8-.5,1.8-1.6,2.4-3,3.8.9-1.8,1.5-3.8,2.2-5.6-.3-1.5-5.6-1-7.5-3-2.6-2.7-1.6-10.1-6.3-10.1-1.8,0-3.7,1.6-6.4,1.4-2.9-.2-3.9-3.2-6.7-4.2-1.5-.5-7.2-1.4-8.6-1.1-2.4.5-1.8,3.2-3,5.3-2.5,4.6-6,2.5-10.2,2.2-.1-.1.1-.6,0-.8-1.3-2.2-1.4-4.7-3-6.8.4-.1.9-.8,1.5-.8.4.5,1.2.5,1.8,1.5,1,1.8,0,4.2,3.8,4.4,2.2,0,5.6-4.8,6.4-6.7,3.7,0,7.9,0,11.4,1,7,1.9,4.1,2.5,12.6,2h0Z"/>
  <path class="st21" d="M222.9,71.2c1.2,4.1,2.5,9,4.5,12.8-1.2,6.1.3,13,1.5,19.2.3,1.4-.1,1.9,1.5,2.6-1.4-.4-3-.3-4.4-.9-2.4-10.5-5.2-20.9-7.6-31.4-.1-.7.2-1.6,0-2.2s.2-1.6,0-2.2c1.9.1,3.1,1.2,4.5,2.2Z"/>
  <path class="st3" d="M230.4,27h12.3s1.1,6.6,1.1,6.6l-7.3,2.4v8.2h-3.8c.7-2.4-.6-5.1-.8-6.8,0-.5,0-1,0-1.5-.2-2.6,1.1-6.9-1.5-8.2v-.8h0Z"/>
  <path class="st26" d="M193.7,60c0,1-.1,2,0,3,0,.5,0,1,0,1.5-5,3.1-10.9,3.6-16.5,4.5v-5.2s16.5-3.8,16.5-3.8Z"/>
  <path class="st19" d="M635.4,234c0,.8,2.5,6.3,3.1,7.7,1.9,4.5,4.6,9.6,6.7,14.8.4,1,0,3.3.8,4.7.5.8,1.4.5,1.5.5.1.3.1,2.2.8,3.8,1.8,4.5,3.7,8.5,5.2,12.8.6,1.7,1.7,3.2,1.5,5.2-1.5,0-3,0-4.5,0-7.9.3-16.1.1-24,0-2.7,0-5.5.1-8.2,0,.4-1.1-.7-2.4-.8-2.9-.4-3.3-.3-7-.8-10.5-.2-1.2-.7-2.3-.8-3-.4-3-.4-6.6-.8-9.8-.9-7.7-3.6-16.6-1.5-24,7.2.6,14.4,1.1,21.8.8h0ZM621.9,247.5c-.5-3-.4-6.1-1.9-9l-3.4-.7c.9,13.8,3.6,27.6,6.1,41.2,1.7.2,3.5.2,5.2.1,1.2,0,2.5,0,3.8,0,1.1-1.1-6.7-26.1-7.7-29.4-.4-1.2-.2-2.4-2-2.1h0ZM629.4,238.5c-1.3,0-5-.8-4.5,1.1l11.3,39.3c2.2.1,4.5.1,6.7,0,1.3,0,5.8.8,5.2-1.1l-16.2-38.6-1.6-1.4c-.6-.1-.9.6-1,.6h0Z"/>
  <path class="st19" d="M643.7,291.7h7.5c2.5,0,5,0,7.5,0,1.2,0,2.5,0,3.8,0,2.1,0,4.8-.3,6.8,0,2.8.4,2.8.8,3.8,3l-3.3,1.5c-24.4-1.5-50.9,1.9-75.1,0-2.3-.2-1.9.4-1.8-2.2,1.3-.4,4.4-2.2,4.9-2.2h39c2.2,0,4.7,0,7.1,0h0Z"/>
  <path class="st4" d="M651.2,291.7h-1.5,1.5Z"/>
  <path class="st10" d="M369.2,216c-.6,1.5-.8,3-1.5,4.5-1.7,3.8-4.3,7.8-6,11.2-5,1.8-9.8,0-14.6,0-44.9-1.1-91.3.8-136.5.8-42.1,0-84.5-1.8-126.8-.8-5.7.1-12.7,1.5-18.3,1.5-.2-.9,0-1.6-1.1-2.2l-1.1.7c1.6-2.4,2.3-5.9.7-8.6-.5-.8-2-1-2.2-1.7-.4-1.5.2-3.8,0-5.5h307.5ZM67.4,220.6c-4.4,1.4,4.4,12.2,7.8,10.1,3.4-2.5-5-11-7.8-10.1ZM87.2,229.5c.7-4-1.3-5.9-4.9-3.8l-.3,3.8h5.3,0Z"/>
  <path class="st16" d="M390.9,168.7v6.8c-.2-.1-2.3,0-3,0H31.7c0-.5,0-1,0-1.5,0-1.4.2-3.2,0-4.5l359.3-.8Z"/>
  <path class="st25" d="M621.2,208.5c0,2.2,0,4.5,0,6.8,0,2.7,0,5.5,0,8.2v3c-4.4,1.5-13.6.8-18.8.8-2,0-4,.1-6,0-1.8,0-3.5-.5-5.2-.8h-.8c-1.9-2.2-6.1-3.3-9-3l-1.5-.8h-8.2c-5.4-.4-7.2,1.7-11.2,3-15.4,4.9-41.7-.6-58.5,1.5v-10.5c0-2.7,0-5.5,0-8.2h119.2Z"/>
  <path class="st26" d="M381.2,180.7h3c0,.5,0,1,0,1.5-.7.6-1.8,2.8-2.2,3.8l-337.5-.8c0,.8,0,1.6.2,2.4.5,1.9,6.1,12.7,7.4,15.1,1.4,2.5,7.4,12.8,9.6,13.3.2,1.7-.4,4,0,5.5.2.7,1.7.9,2.2,1.7,1.7,2.6.9,6.1-.7,8.6v.8c-1.5-1-5.5-8.2-5.2-10.5.3.4.8.9.8,1.5h.7l.8-3.7h-3.8c-2.5-4.1-4.5-8.9-6.6-13.3-3-6.2-6.1-15.4-9.7-21-1.2-1.8-5.2-2.9-1.7-4.7h342.7,0ZM61.7,222.7h-1.5l-.8,3,2.2-1.5v-1.5h0Z"/>
  <path class="st25" d="M65.4,233.2c5.6,0,12.6-1.4,18.3-1.5,42.3-1,84.7.8,126.8.8,45.2,0,91.6-1.9,136.5-.8,4.8.1,9.6,1.8,14.6,0-.8,1.8-1.3,4.1-1.9,6-1.6,2.1-15.5,0-18.7,0-85.5,0-171.7.3-257.3.8-3.2,0-15.1.5-16.9-.4-2.1-1.1-1.2-3.3-1.5-4.9-1.3,0-1.3,0-2.2-.8v-.8l1.1-.7c1,.6.9,1.3,1.1,2.2h0Z"/>
  <path class="st14" d="M545.4,249.7l1.5.4c8-14.4,25.2-23,40.8-14.5,11.5,6.3,16.2,16.6,18.5,29.1-5.3,30.4-49,35-58.5,6.8h.8c.5,0,1.1.1,1.5,0,.8-.2.8,0,1.5-.8,1.7,0,3.5,0,5.2,0-.3,1.6.9,1.6,1.8,2.2,8.2,5.2,17.7,8.1,26.3,1.5.9-.7,4.9-5.5,5.5-6.4.6-1.1,1.5-3.3,1.6-4.5.1-1.7-.7-2.8-.7-3.3,0-3.8,1-3.6-.8-7.5-1.3-2.7-3.2-5.6-6-6.8-.4-.2-.9-.7-1.5-.8-.4-.5-1.1-.5-1.5-.8-5.5-3.1-14.2-.9-19,3-.6.5-.5,1.5-.5,1.5-.5.4-3.3,2.8-3.5,2.9-.7.2-9.7.9-11.1.9-4.7,0-2.5-1.3-2.6-3.1h.8,0Z"/>
  <path class="st19" d="M394.7,293.2l2.2,2.2-4.1.8c-94.3,0-188.5,0-282.8,0-2,0-3.9-.8-5.6-.8,1.4-.7,1.8-1.5,1.5-3,22.7-3.6,59.3-.7,83.7-.8,52.4-.1,105.2-.2,157.4,0,13.4,0,35.7-1.8,47.7,1.5h0Z"/>
  <path class="st18" d="M429.9,264.7c0,0,.5.4.6,1.1.2,1.1-1.3,3,1.3,4.1.7.3,6.3-4.8,1.1-3.8,1.2-5.1-.6-9.6,1.5-15-1.5-.4-2,1.6-3.2,1.4-.3,0-5-3-5-3.3,2.5-1.3,3.6-2.4,6.7-3-1.8-2.9-3.6-.9-6.3-1.1-3.2-.3-7-3.9-11-3l2-3.8,5.5-.7c-.9,1.6-.7,3.1,1.5,3v-3c9,4.8,15.9,13.3,17.2,23.6l-.7,10.9c-14,29.3-57.9,20.6-57.8-11.2,2.6,0,5.7-3.4,7.9-3.8,1.5-.2,1.5,3.2,4.1,2.3-.3,2.4.1,5.9.8,8.2.5,2,1.4,2.7,2,4.4.3.8,0,2.2.2,2.4,0,0,1.1-.7,2.2-.4,1.2.4,2.9,2.3,4.5,3,5.3,2.2,9.7,2.4,15,0,3.2-1.4,2.9-2.3,4.5-4.1,2.3-2.7,3.8-4.9,5.2-8.2h0Z"/>
  <path class="st16" d="M76.7,249.7c5.6-3.7,15.4-4.9,21.7-2.6,6.9,2.5,9.2,8.6,13.2,13.8.6.7,1.7.6,1.8.8,5.7,6.5-4.7,20.8-11.2,24-1.4.7-6.2,2.1-7.9,2.2-3.9.4-7.6-1.2-10.9-.8l-9-6.3c.2-2.4-2.5-3.9-2.7-4.4-3.7-7.6-2.7-21.7,5-26.8h0ZM91.5,254.4c-3.2.2-6.9,2.1-8.8,4.7-8.7,12.2,9.6,25.9,18.8,12.8,5.4-7.8-1.1-17.9-10-17.4Z"/>
  <path class="st16" d="M327.9,247.5c2.1,1.2,4.9-1.1,7.2-1.4,8.7-1.2,16.1,1.5,21.3,8.6,2.1,2.8,2.1,7,6,7.1,1.7,10.2-2.5,18.5-11.8,23-25.4,12.2-45.4-21.4-22.7-37.3h0ZM339,254.4c-13.9,1.1-13.5,25.4,4.1,22.2,3.4-.6,8-5.3,8.6-8.6,1.6-7.7-5.1-14.1-12.7-13.6h0Z"/>
  <path class="st16" d="M219.9,261.7c4.2,26.2-30.5,34.6-41.4,14-3.8-7.2-2.8-21.4,4.6-26,8.4-5.2,21.3-5.5,28.5,1.9,3.1,3.1,4,8.7,8.2,10.2ZM189.4,258.2c-8.3,9.2,3.6,24.4,15.4,16.6,14.3-9.5-4.3-29-15.4-16.6Z"/>
  <path class="st16" d="M306.9,261c2.5,2.8.8,8.8-.4,12-8.6,22.7-47.2,17.8-42.4-12,2.2-2.9,4.1-7.3,6.8-9.8,8-7.5,20.7-7.1,28.4.5,2.4,2.4,5.2,6.6,7.6,9.3ZM284.3,254.4c-18.8,1.9-8.7,31.3,7.6,20.4,10.1-6.7,3.6-21.5-7.6-20.4Z"/>
  <path class="st14" d="M468.9,237.7c-1.8,2.5,5.4,6.4,6.5,6.5.8.1,2.8.1,4,.2-9.2,3.9-15.8,9.3-13.5,20.2,1.4,6.5,3.5,8.4,9,11.2.2,0,.5,1,1.3,1.3,5.3,2,20.1,1.6,21.2-5.8,3.5-.6,8.3.4,12,0-13.1,33.9-66.4,16.1-54.8-19.5,1.2-3.6,5.8-10.6,8.2-12l.4.7.4-.7c.2-.2.5-.5.8-.8h.8v2.2h1.5s1.5-1.9,1.5-1.9l-.8-1.1c.4-.2.9-.5,1.5-.8h0Z"/>
  <path class="st0" d="M175.7,247.5c-2.2,2.6-4.4,10.5-7.3,11.1l-47.2.2-2.2-.8-4.9-10.5h61.5Z"/>
  <path class="st14" d="M494.4,258.7c20,1,44.2,2.1,64.2.8,6.9-.5,4.9-1.6,8.4-3.7,7-4.2,6.9,3.5,11.4,3.7.3,3.9-1.4,5.8-4.2,8.2-.7.6-2.4.7-2.5.8h-1.5c-.5,0-1.1,0-1.5,0l-1.5-.8h-.8c0-.3-.8-2.1-.9-2.1-.9-.4-1.9,0-2.8-.1-2.7-.1-5.5,0-8.2,0h-2.2c-18.9-.2-37.8.2-56.7,0-1.9,1.4-2.4,2.2-4.8,3-1.8-1.3-2.5-3-3.8-4.5-.8-4.1,4.5-.7,3.8-5.3,1.4,1.4,3.2,0,3.7,0h0Z"/>
  <path class="st14" d="M424.7,237.7v3c-2.2.1-2.4-1.4-1.5-3l-5.5.7-2,3.8c4-.9,7.7,2.7,11,3,2.6.2,4.5-1.8,6.3,1.1-3.1.6-4.2,1.7-6.7,3,0,.3,4.7,3.2,5,3.3,1.2.2,1.8-1.8,3.2-1.4-2.1,5.3-.3,9.9-1.5,15,5.2-1-.4,4-1.1,3.8-2.6-1.1-1.1-3-1.3-4.1-.1-.7-.6-1-.6-1.1-.2-1.4.2-3.1,0-4.5,4.7-1.1.4-3.3,0-4.2-.5-1.3,2.5-3.2-1.5-1.8-6.9-14.3-31-10.3-33,5.2-2.6.9-2.6-2.5-4.1-2.3-2.2.4-5.4,3.8-7.9,3.8,0-9.8,6.1-17.8,13.5-23.2l13.1-3c6-.4,9.5.3,14.7,3h0Z"/>
  <path class="st25" d="M508.7,233.2c2,.1,4,0,6,0,8.2,0,16.5-.1,24.8,0,1,0,2,0,3,0,.8,0,1.5,0,2.2,0s1.5,0,2.2,0c.5.6-1.7,4.5-2.2,5.2-.5.6-1.2-1.6-1.5,3,0,.2,0,.5,0,.8-1.1,0-1.9.5-2.2,1.5-1.5.6-1.2,2.8-1.5,3.8s-.9,1.9-.8,3l-22.1-.7c-.8-2.1-1.6-4.9-2.7-6.8-.8-1.4-1.9-1.7-2.2-2.2-1.7-2.4-2.5-4.8-5.2-6v-1.5c.7.1,1.5,0,2.2,0h0Z"/>
  <path class="st0" d="M263.4,247.5c-3,3.3-3.8,7.8-6.5,11.1-9.1-.6-20.4,1.3-29.2.2-.8-.1-1.7,0-2.2-.8l-4.9-10.5h42.8Z"/>
  <path class="st19" d="M578.4,228c1.2.1,2.7-.2,3.8,0,.2,0,.8.6,1.5.8,1.5.4,4.6,1.6,6,2.2,1.6.8,3.2,2.8,5.2,3,1.2,2.1,2.8,2.3,3.8,3.6,6.8,9,9.5,15.6,7.5,27.2-2.4-12.5-7-22.8-18.5-29.1-15.6-8.5-32.7,0-40.8,14.5l-1.5-.4c.5-6.3,7.5-14.8,12.8-18,1.6-1,7.9-3.4,9.8-3.8,3.7-.8,6.9-.3,10.5,0h0Z"/>
  <path class="st19" d="M80.4,293.2v3H.9c.1-1.4,1.1-2.7,1.4-4l72.5-.5c2.1-.3,3.7,1.3,5.6,1.5Z"/>
  <path class="st16" d="M510.9,251.2c0,.5,0,1,0,1.5l-10.1-.8c-7.6-7.6-11.8-6.7-21.4-7.5-1.2-.1-3.2,0-4-.2-1-.1-8.3-4.1-6.5-6.5,14.5-5.8,25-3.8,35.6,7.5,1.9,2,3.1,6.2,6.4,6Z"/>
  <path class="st19" d="M483.9,252.7c1.9-1.1,1.9-1.8,4.9-1.5,4.5.3,6.4,4.4,6.9,4.6,3.2.8,13.3,0,17.5,0,14.3.1,29.2.5,43.5,0,1.5,0,3.1.2,4.5,0,2.8-.3,1.9-.8,3-1.5.3-.2.5-.6.8-.8,5.5-3.2,13.1,0,13.5,6-4.5-.2-4.4-7.9-11.4-3.7-3.5,2.1-1.5,3.3-8.4,3.7-19.9,1.3-44.1.2-64.1-.8,0-6.8-6.4-4.2-10.5-6h0Z"/>
  <path class="st19" d="M114.2,247.5c-2.2-.3-4.2-1.7-5.2-3.8h70.5c.2,2.1-2.1,3-3.8,3.8h-61.5Z"/>
  <path class="st19" d="M550.7,291.7l2.2,4.5h-50.6c-2.3-.3-1.7-1.4-1.1-3,10.7-2.6,37.8-2.5,49.5-1.5h0Z"/>
  <path class="st19" d="M417.2,232.5c3.4.7,7.2,1.8,10.5,3,1.6.6,2.2,2.4,5.2,2.2-.5,2.9,2,3.1,3.3,4.6,7.9,9.2,10.3,18.8,5,29.9l.7-10.9c-1.4-10.3-8.3-18.8-17.2-23.6-5.1-2.8-8.7-3.4-14.7-3l-13.1,3c1.1-.8,1.4-1.4,3-2.2.5-.3,1-.5,1.5-.8.5-.2,1.2-.6,1.5-.8.7-.2,1.8-.6,2.2-.8,4.2-1.1,7.8-1.6,12-.8h0Z"/>
  <path class="st19" d="M220.7,247.5c-1.4-.2-5.1-2.3-4.5-3.8h51v1.5c-.7.2-3.5,2-3.8,2.3h-42.8Z"/>
  <path class="st25" d="M459.2,233.2c-.1,1.6-1.4,2.6-2.2,3.8-1.2,1.7-1.5,2.5-2.2,3.8,0,.1-1.2.3-1.5.8-.4-.1-.6,1.2-.8,1.5-4.4,6.9-8.2-1.4-10.5-3.9-1.6-1.8-3.5-3.5-5.2-5.1v-.8c7.4-.4,15.2.5,22.5,0Z"/>
  <path class="st19" d="M432.2,293.2c8-2,19.7-2.1,28.1-1.5,3.8.3,5.1,2,8.6,3-1,1.1-2.7,1.4-4.1,1.5-8.9.7-22.6.6-31.5,0-2.1-.1-.8-1.9-1.1-3h0Z"/>
  <path class="st19" d="M476.4,232.5c12.6-1,21.8,1.2,30.8,9.8,0,0,.5,1.1.8,1.5.5.9,2.9,6.9,3,7.5-3.2.2-4.5-4-6.4-6-10.6-11.3-21.1-13.2-35.6-7.5-.6.2-1.1.6-1.5.8-.6.2-1.7,0-2.2.8h-.8c1.9-1.4,5.6-5.8,6.8-6,.7-.1,1.6.1,2.2,0,.9-.2,2.9-.7,3-.8Z"/>
  <path class="st19" d="M269.4,250.5c6.3-6.6,13.4-8.3,22.5-6.4,6.2,1.3,16.3,9.8,15,16.9-2.4-2.7-5.2-6.9-7.6-9.3-7.7-7.6-20.4-8-28.4-.5l-1.5-.8h0Z"/>
  <path class="st16" d="M372.9,222.7c8.7-.8,19.5-1.5,28.2-.8,1.5.1,1.8.1,2.5,1.6v2.2c-2.1-1.3-30.4,1.1-31.5,0-.4-1.2.6-2.1.8-3Z"/>
  <path class="st19" d="M219.9,261.7c-4.2-1.5-5.1-7-8.2-10.1-7.2-7.4-20.1-7-28.5-1.9,1.5-2.6,6.1-5.1,9-5.7,13.5-2.8,25.6,4.1,27.8,17.7Z"/>
  <path class="st19" d="M362.4,261.7c-3.9-.1-3.9-4.3-6-7.1-5.2-7-12.6-9.7-21.3-8.6-2.3.3-5.1,2.6-7.2,1.4,13.3-9.3,31.8-2,34.5,14.2h0Z"/>
  <path class="st19" d="M113.4,261.7c-.1-.1-1.3,0-1.8-.8-4-5.2-6.3-11.3-13.2-13.8-6.3-2.3-16.1-1.1-21.7,2.6,11.2-12.7,35.3-4.9,36.8,12h0Z"/>
  <polygon class="st0" points="378.2 249.7 376 258.3 374.8 258.8 367.7 258.7 366.9 249.7 378.2 249.7"/>
  <path class="st10" d="M69.2,246.7c-3.5,5.5-3.3,14.6-12,11.2v-8.2c1.5,0,3.1.2,4.7-.1,1.8-.4,2.6-2,2.8-2.1,1.1-.4,3-.2,4.5-.8h0Z"/>
  <path class="st11" d="M494.4,258.7c-.6,0-2.3,1.4-3.7,0,.7,4.6-4.6,1.2-3.8,5.3-1-1.2-4.1-4.1-4.4-5.8-.2-1.5,2.6-2.2,2.1-4-.8-.8-4.8,2.9-5.2,3.8,1.1-3.1,1.8-3.8,4.5-5.2,4.1,1.8,10.5-.8,10.5,6h0Z"/>
  <path class="st26" d="M479.4,258c.5-.8,4.5-4.5,5.2-3.8.5,1.8-2.4,2.5-2.1,4,.3,1.7,3.4,4.6,4.4,5.8,1.2,1.5,2,3.2,3.8,4.5-6.8,2.2-10.1-2.9-11.7-9-.7-1.1.3-1.2.5-1.5h0Z"/>
  <path class="st16" d="M105.9,292.5c.3,1.5-.1,2.3-1.5,3-7.4.2-16.3,3.2-24,.8v-3c12.2,1.7,13.8,1.1,25.5-.8Z"/>
  <path class="st0" d="M318.2,246.7l-5.6,10.5-5.6-10.5c2,.3,9.2.3,11.2,0Z"/>
  <path class="st25" d="M497.4,271.5c-1.1,7.5-16,7.8-21.2,5.8-.8-.3-1.1-1.2-1.3-1.3v-1.5h1.5c6,1.5,9.3,1.9,15.2-.2,2.1-.7,3.9-2.5,5.8-2.8Z"/>
  <path class="st19" d="M306.9,246.7c-1.7-.3-3-1.5-3.8-3h17.6c1.2,1.6-1.3,2.8-2.6,3-2.1.3-9.2.3-11.2,0Z"/>
  <path class="st11" d="M375.9,220.5h6c7.1,0,14.2,0,21.4,0,.8.2.3,1.6.4,2.3,0,.2,0,.5,0,.8-.7-1.4-1-1.4-2.5-1.6-8.7-.7-19.5,0-28.2.8.1-.6,0-1.5,0-2.2h3Z"/>
  <path class="st25" d="M606.9,232.5h.8v.8c0,.2,0,.5,0,.8s0,.5,0,.8,0,.5,0,.8-.7.5-.7,1.1c0,1.3,1,2.7.7,4.2l-2.2-.8c0-.2,0-.6,0-.8-.5-1-1.2-1.1-1.5-1.5-.2-.2,0-.9-.4-1.4-1-1.3-3.3-1.1-2.6-3.8h6Z"/>
  <path class="st17" d="M556.7,255.7c-14.3.5-29.2.1-43.5,0h43.5Z"/>
  <path class="st12" d="M64.7,247.5l-.3-3,7.8-.8c.3,1.8-1.7,2.5-3,3-1.5.6-3.4.4-4.5.8h0Z"/>
  <path class="st12" d="M270.9,251.2c-2.6,2.5-4.5,6.9-6.8,9.7,1-5.9,1.1-6.2,5.2-10.5l1.5.8h0Z"/>
  <path class="st10" d="M56.4,219.7h3.8l-.8,3.7h-.7c0-.6-.4-1-.8-1.5-.7-.9-1-1.3-1.5-2.2Z"/>
  <path class="st17" d="M79.3,285c.5.2.5.5,0,.8v-.8Z"/>
  <path class="st18" d="M515.4,107.2c-.6,2.7-1.8,5.1-2.2,7.5,0,.2,0,.5,0,.8-1.6,1.7-3.2,1.4-5.2,1.5-1,0-2,0-3,0-5,.1-10,0-15,0-10.7,0-21.5,0-32.2,0h-4.5c-7.5,0-16.1,1.5-22.5,1.5s-14.4-1.5-21.8-1.5h-4.5c-4.9,0-10.6,1.9-14.8-1.2-2.2-1.7-2.9-5.9-1.7-8.5,0,0,127.5,0,127.5,0Z"/>
  <path class="st20" d="M540.2,151.5c1.6,0,3.2-.8,4.9-.8,3.3,0,6.7,1.4,10.1.8v3c7.4-.5,14.8.1,22.2,0,1.5,0,3-.8,4.1-.8,2.8,0,10.7,3.4,10.5-2.2,9,.9,20.7-1.5,29.2.8v3.8c-1.9.5-4-.6-5.7-.6-.7,0-1.2.6-1.5.6h-18c-.2,0-3.5,2.6-3.7,3-1.2,2.3-.3,5.9-3,8.3-3.6,3.2-7.6,1.4-11.2,1.4-8.8,0-19.2.9-27.7.5-5.8-.3-9.3-3.9-8.8-9.9.2-2.1,2.5-3,.3-4l-39.3.6c0-1.5,0-3,0-4.5,8,0,16,0,24,0h2.2c2.5,0,5,0,7.5,0h3.8Z"/>
  <path class="st12" d="M457.7,57.7c.1,0,1.7,0,2.2,0,.5,0,1,0,1.5,0,1.9,0,4.2-.2,6,0,3,.4,8.6,2,11.6,3,16.8,5.4,31.3,20.6,34.1,38.3-2.1,0-3.9.8-6,.8-.2,0-.6-.8-.8-.8.4-5-3.5-12.1-6.3-16.2-.6-.9-9.5-9.8-10.4-10.6-.6-.4-1.9,0-2.5-.5-2-1.4-1.1-1.3-4.1-2.8-15.9-8.2-26.6-7.2-43.4-2.2-2.1.6-5,.9-6.8,1.5l.8-2.2c1.8,0,7.2-3.5,9.5-4.3,3.5-1.3,9.4-3.4,13-3.9.5,0,1,0,1.5,0h0Z"/>
  <path class="st19" d="M482.4,103.5c5.3,0,10.3-.8,15.8-.8,5,0,10.5.8,15.8.8h1.5c.2.4.8.5.8,1.5,0,.8-.6,1.6-.8,2.2h-127.5c.4-.9,1.6-2.1,2.2-3,4.6-1.3,9.5-.7,14.2-.8h6c2.2,0,4.5,0,6.8,0,1.5,0,3,0,4.5,0h1.5c19.7,0,39.4,0,59.2,0Z"/>
  <path class="st19" d="M582.9,127.5c1.5,0,3,0,4.5,0v21.7c-1.2,0-2.5,0-3.8,0-1-6.2-.8-12.5-.8-18.8,0,0,0-3,0-3Z"/>
  <path class="st15" d="M139.7,135c.5,0,1,0,1.5,0,1.9-.2,2.9-.5,4.5-1.5.3.8,1.2,4.2,1.5,4.5-4.8-.6-8.8,5.1-13.1,5.3-6.1.3-11.3-6.5-17.2-6.9-7.8-.4-11.9,6.3-18,6.8-7.5.7-11.4-6-18-6.8-11.6-1.4-18,8.7-27.3,6.3-3.3-.9-6.9-5.1-10.5-3.5-1.1.5-.6,2.1-3.2,1.8-.9-.1-1.9.3-2.7-.7l.4-3.8c.2-.2.5-.5.8-.8.8-.6,4.3-3.3,4.5-3.8,10.2.2,10.5,7.8,22.5,3,6.3-2.5,8.4-4.7,16.2-3.8,5.9.7,11.9,7.1,17.1,6.7s10.1-7.4,16.6-7.5c8.7,0,16.6,11.1,24.4,4.5h0Z"/>
  <path class="st6" d="M45.9,118.5v6c6.5-.8,13-.8,19.5-.8v1.5c3-1,5.9-.7,9-.8,2.5,0,5,0,7.5,0,1.8,0,3.5,0,5.2,0,4.6,0,9.2-.7,13.5-.8v2.2c1.2,0,2.5,0,3.8,0-.8,1.2-2.8.8-4.1.8-18.8.2-37.5-.2-56.3,0-2.2-.1-4.7-1.3-4.9-3.8.2-1.5.5-3.1.8-4.5h6,0Z"/>
  <path class="st9" d="M68.4,86.2v.8c-2.2,1.6-.6,3.9-4.5,3v2.7s-3,.3-3,.3c.2,2.8,2.6,2.8,4.5,3,.3,0,.7.4.8.8-3-.2-6,.2-9,0-.4-.4,1.1-3.2,1.5-3.8,1.3-1.9,7-4.9,7.5-6.8.7-.1,1.7.2,2.2,0Z"/>
  <path class="st12" d="M370.7,7.5c6,.5,19.7,4.4,24.8,3.8.2,0,.5,0,.8,0,.4,1.2,1.1,1.3,2.2,1.5,3.5.5,6.3,1.1,9.8,2.2,5,1.7,10.2,4.2,14.2,7.5v.8l.8,1.5c0,.2,0,.5,0,.8-.2,1.9-.1,3.3-.8,5.2-2.9.4-.7-2.9-1.9-4.5-.4-.6-1.8-.5-2.4-1-4-3.5-2.1-1.3-5.5-2.7-.3-.1-.5-.7-.8-.8-16-6.6-34.8-10.4-52.1-10.5-13.4-.1-28.1,1.8-40.4,4-1.2.2-5.5,1.8-5.8,2.8-2,.2-4,.5-6,.8-1.7.2-3.5-.1-5.2,0,0-.2,0-.5,0-.8l8.2-4.5,1.5-.8c3.2.4,8.7-1.1,12-2.2.4-.1,1.4.2,1.5,0h1.5v-1.5c1.1-.3,13.2-1.5,14.6-1.5h11.2c5.7,0,11.7-.5,17.6,0Z"/>
  <path class="st1" d="M288.9,79.5c-2.7,4.9-1.8,12.8-3.7,17.7-.8,2.2-5.3,6.1-7,8.8-2.1,3.3-7.2,15-7.4,18.5-.7,0-1.5.1-2.2,0-2.8-.4-5.1-4.4-7.3-6-9.8-6.9-19.5-9.7-30.9-12.8-1.7-.7-1.3-1.2-1.5-2.6-1.2-6.2-2.7-13-1.5-19.2,2.7,5.1,13.9,14.7,19.3,16.3s11.5.6,16.7-1.3,5.3-2.8,8.2-6.8c5-6.5,9.1-13.4,10.5-21.8l8.2-3c-.4,3.8-1.5,8-1.5,12h0Z"/>
  <path class="st1" d="M183.9,73.5c1.2-.5,7.8-2.8,8.2-2.2-1,10-2.2,20.2-3.9,30.2-.6,3.4-2.5,15.6-4.8,17.1-1.7,1.1-4,1.1-6.2,3-.6-1.3-2.5-.3-3.5-.1-6.2,1-11.9,1.9-18.2,1.6.2-4.1-2-5.4-2.1-7.2,0-1,1.8-2.7,2.1-4.8l1.5,1.5c-1-1.2,1.2-6,1.5-6h12c0,0,0-.9.3-1.2,4.5-3.7,1.9-4,2.7-9,.4-2.6,1.1-8.3,1.5-10.3.1-.6,1.3-.5,1.5-1,.2-.9.2-4.2,0-5s-1.4-.4-1.5-.5c-.1-.2-1.9-2.7-1.5-3,4.5,1.1,6.9-1.6,10.5-3h0ZM180.9,79.5h-3v1.5h3v-1.5Z"/>
  <path class="st20" d="M32.4,167.2h358.5v1.5l-359.2.8c0-.4-.5-1.7-.8-2.2,0,0,1.5,0,1.5,0Z"/>
  <path class="st9" d="M308.4,141c-2.1.7-3.5,1.1-6,.8,6,5.7,16.2-.7,23.6-.8,4.2,0,8.1,2.1,12,2.4,6.3.4,11.7-3.4,17.9,0,3.2,1.8,4.2,6.5,8.7,7.4-2.1,0-5.2-.7-6.8.8h-1.5c-.8-1.2-2.9-.8-4.1-.8-14.6-.2-29.3-.2-43.9,0-.8,0-1.5,0-2.2,0-1.2,0-2.5,0-3.8,0-3,0-5.4.6-8.2.8-1.2,0-2.5,0-3.8,0-1,0-2,0-3,0-.8-3.2,4.4-6.9,7.2-7.4,1.8-.4,5.4,1.1,4.8-1.5-7.2-3-11.4,1.5-17.5,3.7-2.1-.6-2.3-7.3-3.5-8.9l1.5-1.5c3.7.4,8-3.5,11.5-2.9,4.6.8,9.8,11,17,8.1h0Z"/>
  <path class="st12" d="M253.7,121.5c7.2,5.5,8.2,8.1,13.5,14.6,3.9,4.8,8,6.1,9.5,13,1,4.4,1.9,9.6,2.4,13.7h-4.5c0-.4-.4-.7-.8-.8-.1-.6.2-1.8,0-2.2-.1-.3-1.3-.6-1.5-1.3-.3-1.3-.7-5.3-.8-6.9-.2-3.1,1.7-2.9-.8-7.5-1.5-2.8-1.3-1.6-3.9-3.1-2.2-1.3-4.9-2.8-6.6-5-3.6-4.8-3-7.7-9.8-9.6-4.6-1.2-7.3-1.4-12.2-3.4s-5.1-.8-9.9-1.4c-3.7-.5-6.9-3.9-10.5-3.7-2.4.1-6,1.2-6.1,3.8-7.6-.3-10-2.6-17.6,0,1.6-5.6,7.2-5.4,12-5.2.1,0,.9.8,1.8.8,4.6.3,8.4-4.7,11.2-4.6,2.2.1,5.8,3.3,8.5,3.6,2.5.3,4.7-1.1,7.9-.4,4.9,1,11.1,7.9,17.8,5.8h0Z"/>
  <path class="st21" d="M172.7,75c3.7-.6,7.5-1,11.2-1.5-3.6,1.4-5.9,4.1-10.5,3-.4.3,1.4,2.8,1.5,3,0,0,1.3-.3,1.5.5s.2,4.1,0,5c-.1.6-1.3.5-1.5,1-.5,2-1.2,7.7-1.5,10.3-.7,5,1.8,5.3-2.7,9-.4.3-.3,1.2-.3,1.2h-12c-.3,0-2.5,4.7-1.5,6l-1.5-1.5c.2-1.1.2-4.3,0-5.2,3.3-1.6,12.8.3,14.8-1.7s3.9-20.5,4.7-24.6h-33.8c1.6,3.8,1.9,13.7,3.8,16.5l-10.3-.2c-1.7-1.3-2.2-4-3.2-5.2-1.4-1.7-7.1-6.3-7.5-7.3-1.2-2.9-1.1-8.1-1.5-11.2l25.9,4.5c8.4.6,16.2-.3,24.4-1.5h0Z"/>
  <path class="st6" d="M210.2,114c-1.4.7-2.1,1-3.8.8v1.5c-4.8-.1-10.4-.3-12,5.2-1.9.6-5.4,2.1-7,3.1-5.4,3.6-15.7,23.7-16.2,30.3-.1,1.6-.2,3.4.3,4.9.5.8,1.5.6,2.3.7,11.5,1.4,26.6-.6,38.7,0,.1,0,.9.7,1.8.8,3,.2,7-.8,9.4.7-17.7,0-35.5-.3-53.2,0-.5,0-1,0-1.5,0h-7.5v-5.2c.3-1.2.3-2.6.8-3.8.2,0,.5,0,.8,0,4.4-1.6,3.9-9.5,6-12.4.9-1.3,4.4-3.1,6-5.2,2.3-3,2.8-6.7,6-9,3.5-2.6,4.5-.9,7.5-4.8,2.6-3.3,9-8.2,13.2-8.2,2.6,0,5.7,1.3,8.5.7h0Z"/>
  <path class="st19" d="M177.2,121.5c-3.1,2.6-5.7,8.3-7.5,12-1.4.3-4.4,2.4-5.3,3.4-2.9,3.5-2.6,7.7-4.1,10.9-.7,1.5-3.5,2.7-3.9,4.3-.6,2.1.1,4.8-.1,7,0,.4-.7,2.5-1.5,2.2-.6-3.6-.7-6.9-3.6-9.4,2.1-2,2.1-4.8,3.3-7.1.9-1.8,2.8-2.1,3.3-5,1.1-7-4.5-8.2-4.5-10.4,0-1.1,2.1-3.5,2.2-6.4,6.3.3,12.1-.6,18.2-1.6,1-.2,2.9-1.2,3.5.1h0Z"/>
  <path class="st0" d="M176.4,63.7h.8v5.3c-16.1,2.6-26,1.8-42,.8l-.8-6c3.8.5,10.6,1.5,13.9,1.5h17.2c2.5,0,8.3-.9,10.9-1.5h0Z"/>
  <path class="st21" d="M210.2,114c1.9-1,5.1-4.7,7.7-4.3.6,0,1.5,1.1,2.5,1.2,13.8,2.7,21.8,1.8,33.3,10.6-6.7,2.1-12.9-4.8-17.8-5.8-3.2-.7-5.3.7-7.9.4-2.8-.3-6.3-3.5-8.5-3.6-2.9-.2-6.6,4.8-11.2,4.6-1,0-1.7-.8-1.8-.8v-1.5c1.7.2,2.3,0,3.8-.8h0Z"/>
  <path class="st6" d="M295.7,155.2c0,.7,0,1.5,0,2.2,0,.6-1.1,1.5.1,2.9,9.2,1.7,18.7.6,28.1.8,1.4,0,2.4.8,2.5.8l-37.8.7c-3.6-.1-3.9-3.8-4.2-6.7,0-.2,0-.5,0-.8h11.2,0Z"/>
  <path class="st10" d="M134.4,63.7l.8,6c-.2,0-.5,0-.8,0-.4,0-1.4.1-1.5,0,0,0,.3-1.2-.5-1.5-.7-.2-1.8.2-2.5,0-.9-.2-.9.3-1.5-.8-.2-.3.4-1.4-.4-1.5l-3.3.8c-1.4-.3-3-.4-4.4-.8-.2-1.5,0-3,0-4.4,4.9-.1,9.5,1.6,14.2,2.2ZM132.2,64.5h-2.2v.7h2.2v-.7Z"/>
  <path class="st25" d="M270.9,124.5c-.3,5.7,3.3,10.3,9,11.2l-1.5,1.5c-.9-1.3-5.9-3.5-7.1-5.3-1.4-2.1-1.3-5.2-2.6-7.5.7.1,1.5,0,2.2,0h0Z"/>
  <path class="st7" d="M267.9,42c-.2,1.7-.6,3.7-.8,5.2-1.1-2-.8,1.3-.8,1.9v4.9c-3.4.7.4-5.2-3-4.5.2,1.7-.4,3.9,0,5.5.3,1.4,2.3,2,1.5,6.9-1,5.6-1,8.2-1.5,13.9,0,.2,0,.5,0,.8l-3-1.5c0,2.6,0,5.3,0,7.9,0,1.4-.8,3,1.5,2.6,0,.5.1,1.1,0,1.5-2.9-.7-.9,3.9-1.5,4.5-2.1.3-5.3-1.4-4.5,2.2-.5,0-1,0-1.5,0-.6-.8,1.4-12.5,1.5-14.7.6-7.4.2-15.5.7-23.2.3-4.4,2-9.4,2.2-13.9h9,0Z"/>
  <path class="st3" d="M237.9,54c.2,4.2-.5,6.8-1.5,10.8l6,24.5c-6.9-4.8-10.2-12.8-11.8-20.8-.9-4.7-.7-9.8-1.7-14.4,2.9-.5,7.5,1.4,9-1.5,0,.5,0,1,0,1.5h0Z"/>
  <path class="st3" d="M271.7,56.2v3.8h7.5c-.5,4.2-2.8,12.2-4.4,16.3-2,5.1-5.3,10.5-9.9,13.7,2.8-10.8,5.6-21.7,6-33,0,0,.8-.8.8-.7Z"/>
  <path class="st3" d="M251.4,68.2c0,8.2,1.3,16.5.8,24.8l-5.9-.9-3.2-21.6c1.3-2.4,5.6-1.6,8.2-2.2h0Z"/>
  <path class="st3" d="M224.4,41.2c-.7,6.9.5,14.7,0,21.8-1.5-.5-3.1-.5-4.5-.8-.2,0-.6-.7-.8-.8-.2-1.9.8-4.7-.8-6,0-.5,0-1,0-1.5-.2-4.2-.9-9.3-1.5-13.5,2.5,0,4.9,1.1,7.5.8h0Z"/>
  <path class="st3" d="M249.9,43.5c.6,2.9,1.6,11.1.6,13.8-.6,1.7-5.3,1.6-7,2-.5-5.2-.6-10.5-1.1-15.8,2.4-.2,5.2-1.2,7.5,0h0Z"/>
  <path class="st3" d="M282.2,42c2.6.4,6.2-1.2,7.5,1.5-.2,1.2-.7,2.4-.8,3.8,0,1,0,2,0,3-1.2,2.5-1.5,6.1-1.5,9,0,0-1.5,2.1-1.5,2.2l-2.9-.5c.2-6.3-1.5-12.7-.9-19Z"/>
  <path class="st3" d="M255.9,22.5c.5.5-.6,10.6-.9,12.3-.2,1.2-.3,4.5-1.4,5v-7.5l-4.9-.7-.4-7.9,7.6-1.2h0Z"/>
  <path class="st3" d="M273.2,37.5c1-3.2,1.9-4.8,4.5-1.5l-1.5,15c-.1.2-.5.5-.8.8-1.3,0-3.2.3-3.7-1.2-.3-.8,1-11.5,1.4-13Z"/>
  <path class="st3" d="M222.9,71.2c2.3,1.6.9,1.2,1.6,2.1.4.4,1.2,0,1.4.2.6.5,2.7,7.5,3.7,9.4,1.7,3.1,8.1,10.9,10.7,12.9,4.5,3.3,16.4,4.2,21.5,2.5l1.5.8c-5.2,1.9-11.1,3-16.7,1.3s-16.6-11.2-19.3-16.3c-2-3.8-3.3-8.6-4.5-12.8h0Z"/>
  <path class="st12" d="M261.9,27c.9.7,4.6.8,6,.8,0,.2,1.6,1.3,2.2,3-2.5,4-5.7,1.7-9.7,1.5.3-1.3-1.3-5.7,1.5-5.2Z"/>
  <path class="st12" d="M258.9,38.2l9.8-.8c.6,1.7-.6,3.3-.8,4.5h-9c0-.9.1-2.3,0-3,0-.2,0-.5,0-.8Z"/>
  <path class="st12" d="M251.4,63.7c-.1,1.4,0,3,0,4.5-2.6.7-7-.2-8.2,2.2,0-.8,0-1.5-.3-2.3s-1.1-1.2-1.2-1.5c0-3.1,7-3,9.8-3Z"/>
  <path class="st12" d="M230.4,49.5c2-.2,4.3,0,6.3.1,1.5.5,1.1,1.8,1.2,2.9-1.5,2.9-6.1,1-9,1.5-.3-1.4-1.1-2.1-1.5-3.4.8-1.3,1.8-1,3-1.1Z"/>
  <path class="st12" d="M249.2,38.2h1.5c0,.7,0,1.5,0,2.2,0,.5,0,1.1,0,1.5-.7,0-.9,1-.8,1.5-2.3-1.2-5.1-.2-7.5,0,0-.1-.6-.5-.8-.8.9-3.2,1.5-3.7,5.2-4.5.6-.1,1.6,0,2.2,0Z"/>
  <path class="st3" d="M267.2,47.2c-1,9.5-1.2,19.2-3.8,28.5.4-5.7.5-8.3,1.5-13.9.8-4.8-1.1-5.5-1.5-6.9-.4-1.6.2-3.8,0-5.5,3.4-.7-.4,5.2,3,4.5,0-1.6,0-3.2,0-4.9s-.3-3.9.8-1.9h0Z"/>
  <path class="st12" d="M216.9,40.5c-.1-.7-1-2.8-.8-3h8.6c.9.1.2,2.2.4,3-.4,0-.7.4-.8.8-2.6.4-5-.8-7.5-.8Z"/>
  <path class="st12" d="M225.9,73.5c-.1-.1-1,.3-1.4-.2-.7-.8.6-.5-1.6-2.1-1.4-1-2.6-2.1-4.5-2.2,0-.2-1.2-2.5-1.5-3,4.9,1.4,9.9.7,9,7.5Z"/>
  <path class="st12" d="M276.9,56.2c.7,0,1.5,0,2.2,0-1,1.3,0,3.4,0,3.7h-7.5v-3.8c1.7,0,3.5-.1,5.2,0h0Z"/>
  <path class="st12" d="M285.2,66c2.3-.3,3.8-1.1,6-1.5.4,1.1-.7,2.3-.8,3l-8.2,3c.1-.9-.1-2,0-3,.6-.5,1.8-.6,2.2-1.5.2,0,.5,0,.8,0Z"/>
  <path class="st3" d="M261.9,85.5c-2.3.4-1.5-1.2-1.5-2.6,0-2.6,0-5.3,0-7.9l3,1.5c-.3,3.5-.9,5.7-1.5,9Z"/>
  <path class="st12" d="M278.4,35.2s-.8.3-.8.8c-2.6-3.3-3.5-1.7-4.5,1.5v-6c4.2-1.4,7.1-1.5,5.2,3.8Z"/>
  <path class="st12" d="M284.4,39c1.1-.2,2.5.1,3.8,0,.7,0,1.5,0,2.2,0-.2,1-.6,2-.8,3,0,.5,0,1,0,1.5-1.2-2.8-4.9-1.1-7.5-1.5,0-.8-.1-1.6.4-2.3.5-.7,1.2-.6,1.9-.7Z"/>
  <path class="st13" d="M271.7,92.2c-3,3.9-3.2,4.9-8.2,6.8l-1.5-.8c3.3-1.1,6.5-4.7,9.8-6Z"/>
  <path class="st3" d="M261.9,87c-.3,1.6,0,3.5-.9,5.1-.2.3-4.4,1.6-5.1,1.7-.8-3.7,2.4-1.9,4.5-2.2.6-.6-1.4-5.2,1.5-4.5Z"/>
  <path class="st3" d="M351.9,38.2c1.6,2,1.7,4.5,3,6.8-2-.2-1.8-2.4-4.5-1.5v-1.5c2.1.3,1.5-1.3,1.5-3l-.7,1.5h-5.2c0,2.2,2.4,1.4,1.5,4.5,3,0,5.9,2.1,8.2,4.2-2.5,2-4-1.1-4.3-1.1-1.1-.2-2.3.2-3.4,0s-1.7-3.6-3.5-3c-1.2,3.5,3.2,4.4,4.5,6v-1.5h1.5v1.5h-1.5c.6.8,1.3,3.2,1.4,4.2.6,5.1.3,9.5-3,13.4l1.6,4.9c-3.2.8-2.8-2.3-6-1.5l-.7,7.4,3.2,1.5,7.2-3.6-2.2,3c3.2.1,7.6,1.8,10.5,0,.3.5,1.9,1.1,2.2,1.9l-1.5.4c-2.8-.5-10.3.8-12.6,2.5-.6.4-.6,1.6-.9,2-.2.3-.5.6-.8.8-2.1-.3-4-1.8-6-2.2.7-4.4-1.2-8.4-1.5-12.8.3,0,4.8-2.9,5.3-3.3,3.1-2.9,5.6-11.2,2.2-14.7,0-.2,0-.5,0-.8-1.6-8.5-16.7-9.6-21,.8-1.4-2.3-3.4-4.6-3-7.5,5.5-1.7,3-3,4.5-4.5.2-.2,1.5.4,1.5-.4.3-1.3-.5-1.1-1.5-1.9,8-1.4,16.3.4,24-2.2h0ZM350.8,81.7v.8c.5-.2.5-.5,0-.8Z"/>
  <path class="st3" d="M354.9,45.7c4.2.3,7.7,2.4,10.2-2.2,1.1-2.1.5-4.9,3-5.3,1.4-.3,7.1.6,8.6,1.1,2.9.9,3.8,4,6.7,4.2l.8,3,2.2-.8-1.5,4.5c-2.7-2.1-8.7-2.8-12-2.2-.4-2.8,4.6-1,6-2.3.2-1.5-1.9.1-1.5-1.9.2-.8,2.2.3,1.5-1.9-1.5,0-3,0-4.5,0,.8-1.1,1.6-.4,1.5-1.5-1.7-.3-4,.4-5.5,0-.7-.2-.4-1.4-.5-1.4-1.3-1-4,3.4-2.9,4.4,1.5,1.5,3.3-1.4,3.5-1.5,1.1-.3,2.8,0,4,0-1.2,1.8-1.1,3.7-4.5,3l.8,3.8c-.1,0-2,1.8-2.3,2.1-8.5,10.7-1,24.9,12.8,21.9,0,0,.9-.1.8.7h-3l.4,1.5c-.5-.9-2.1-2.1-2.6-.3-.5,1.7,1.9.7,2.2,3.4l-5.2-.8c-1.8-1.1,1.5,0,.8-2.2-1.4-.9-5.2,2-5.6,3-.7,1.4.3,3.7-1.1,3.8-.5-1.9-1.2-4.3-.8-6.2.2-.9,3.3-1.3,3-3.2-.8-.7-5.6-4.7-5.8-5.1-.7-1.8.2-3.8-.2-5.3-.2-.7-1.4-.4-1.5-.5-1.1-1.6,1.4-1.4,1.5-2,.2-1-.3-2.4,0-3.5.1-.6,1.3-.5,1.5-1,.3-1.4-.2-3.2,0-4.7,1.2.6,2.1,1,3-.4-2-.6-1.6-1.5-1.5-3.4-3.1-.8-3.8,2.7-7.1,3-.7-2.6-4.1-2.8-4.9-3.8h0Z"/>
  <path class="st13" d="M369.9,89.2c.1.2.9.5,1.4,1.2.9,1.4,4.2,9.3,5,9.3,1-2,1.2-1.7,2.6-2.2-.4,1.7-2,4.7-3,6-1.5,1.9-3.5,4.3-6,4.5-.7-1.6-1-2.8-1.5-4.5,3.9-3.9,2.2-9.4,1.5-14.2h0Z"/>
  <path class="st6" d="M365.4,82.5c.3.5.5,1,.8,1.5-1.9.9-4-1.4-4.5-1.5l1.5-.4c-.4-.8-1.9-1.4-2.2-1.9-1.5-2.1-2.9-5.8-3.8-8.2l-6,3c-1-2.4,2.2-7.3,4.7-6.7s7.8,11.5,9.5,14.2h0Z"/>
  <path class="st3" d="M369.9,89.2c-1.2-1.8-2.6-3.5-3.8-5.2-.3-.5-.5-1-.8-1.5,5.1.2,4,3.4,4.5,6.8Z"/>
  <polygon class="st3" points="372.9 84 371.8 85.5 370.7 85.5 370.7 84 372.9 84"/>
  <path class="st12" d="M122.4,12c3.7-1.9,7.3-4.3,11.6-3.7,4.3.6,4.2,2.6,5.7,6,.7,1.6.9,3.9,2.2,5.2.2.2.3.6.8.8v.8c.3,3.8,2.4,7.1,3.8,10.5.9,2.2,1.4,4.5,2.2,6.7.4,1,1.4,1.9,1.5,2.2.5,1.5,2.3,7.4,2.3,8.6,0,1.7-.2,1-1.5,1.1l-17.7-38.2c-1.4-.4-2.6,0-4,.3-8.1,2.5-20,12.3-29.1,15.9-1.5.6-3,1.2-4.7,1-.1-.6.4-1.7.8-2.2,1.9-.7,7.2-4.6,9.8-6,.5-.3,1-.5,1.5-.8,4.5-2.4,9.2-5.2,13.5-7.5.5-.3,1-.5,1.5-.7Z"/>
  <path class="st6" d="M439.7,66.7l1.5,1.1c-11.4,6.3-19.5,17.5-21.7,30.4,3.9,0,7.8.1,11.7,0,1,0,1.7-.8,1.8-.8,1.8,0,3.5,0,5.2,0,6,0,9.7.8,16.5,0,1.4-.2,3,.1,4.5,0v1.5c-5.6,0-11.8-.4-17.2,0-.8,0-5,.6-5.2.8-.1-.9-1.5-.8-2.2-.8-4.8.6-11.3,0-16.5,0-2.5,0-5,0-7.5,0-.6-.6,4-12.5,4.9-14.2,3.2-5.8,5.9-7.8,10.6-11.5.6-.5.7-1.9,1-2,.7-.5,5-2.6,6-3,1.8-.6,4.7-.9,6.8-1.5h0Z"/>
  <path class="st10" d="M153.9,44.2c5.6-.3,11.1,1.3,16.4,3.1.4,2,.1,2.6-1.4,3.7.4-2.3-1.1-1.5-2.6-1.5-3.5-.1-7,.4-10.4-.8-1.2-.7-1.6-3.3-2.1-4.5Z"/>
  <path class="st10" d="M137.4,43.5c.3,0,1.1.8,1.5.8l3,7.5c-2-.6-10.9-3.4-11.2-4.9.5-2.3,4.8-3.1,6.8-3.4Z"/>
  <path class="st19" d="M176.4,63.7c-2.6.6-8.3,1.5-10.9,1.5h-17.2c-3.3,0-10.1-1-13.9-1.5-4.7-.6-9.4-2.4-14.2-2.2v-1.5c16.7,3.3,34.9,2.8,52.1,3,1.3,0,3.3-.5,4.1.8h0Z"/>
  <path class="st21" d="M150.9,50.2c-.6,0-1.6,0-2.2,0-.8-.1-2.3-1.3-3.7-.8.5-2.8-1.5-4.2-2.3-6-.6-1.4-.6-3.4-2.2-4.5,0-.2,0-.5,0-.8-.1-1.3-.7-1.4-.8-1.5-.2-.8-.5-1.5-.8-2.2-.9-2.8-2.1-7.3-4.5-9l-.8-.8c1.8-1.9-1.5-7.6-3.2-7.4-8.5,4.7-16.9,9.8-25.5,14.3-.7.4-1.1,1.3-1.2,1.4-.2,0-.5,0-.8,0-1.2.5-3.2,1.4-4.5,1.2-.8-.4-2.8-4-3-4.9,1.7.2,3.1-.4,4.7-1,9.1-3.6,21-13.3,29.1-15.9,1.4-.4,2.5-.8,4-.3l17.7,38.2Z"/>
  <path class="st20" d="M174.9,79.5c-.8,4-2.7,22.6-4.7,24.6s-11.5.1-14.8,1.7c0-.2-.6-.5-.8-.8-2.6-7-7.8-6.1-9.8-9s-2.1-12.8-3.8-16.5h33.8Z"/>
  <path class="st2" d="M69.9,87c4.6,0,4.3-1.3,5-1.5,15-3.4,30.7-3,42.6,7.5.9.8,2.4.4,1.9,2.9-3.1-.2-9,.7-11.2,3-.2,0-.5,0-.8,0-7.6.4-7.3-1.9-13.3-2.8-8.7-1.4-11.2,3.6-16.3,3.6s-7.3-2.7-11.6-3c0-.4-.4-.7-.8-.8.9-2.7,5.9-4.3,6.6-6.5.8-2.4-1.1-1.5-2.1-2.5h0Z"/>
  <path class="st12" d="M107.4,81c7.9,2.5,17.6,7.8,21,15.8-2,.2-4.1-.2-6,0-1-.1-2-.7-3-.8.6-2.5-1-2.2-1.9-2.9-11.9-10.6-27.6-10.9-42.6-7.5-.8.2-.4,1.5-5,1.5h-1.5v-.8c7-1.9,11.2-5.8,20.2-6.8,6.9-.8,12.2-.5,18.8,1.5h0Z"/>
  <path class="st14" d="M111.2,102c.8,0,1.5,0,2.2,0l2.2,2.2c-4.4.5-6.4,3.1-11.6,3.1s-9.8-3.8-13.4-3.6c-2.6.2-6.1,2.7-8.7,3.2-7.2,1.5-10.1-1.9-16.2-2.6-4.6-.5-9.8.4-14.2,0-1.7-.2-2.6-.3-2.6-2.3,2.4-.8,2.8-.6,5.2-.8,2.6-.1,5.7-.2,8.2,0,6.8.4,12.8,3.9,18.8,2.7,2.8-.6,5.8-3.2,8.7-3.4,5.8-.4,14.9,8.2,21.3,1.5h0Z"/>
  <path class="st12" d="M148.7,111.7c-2.7-1.4-5.2-6.1-9-7.5s-10.4-.8-14.6-.8c-1.3,0-3.3-.5-4.1.8-1.7,0-3.6-.2-5.2,0l-2.2-2.2c.2,0,1.2-.8,2.5-.8,6.6-.2,21.9-.9,27.7.2,4.8,1,8.4,5.8,5.1,10.3h0Z"/>
  <path class="st21" d="M407.4,41.2c.9.4,2.3,1.8,3.4,2.2,0,1.3-.4,2.5-.4,3.8-3.3.2-1.5,3.5-4.5,3.8-.6-1,.4-4.2-1.1-4.5-1.7-.4-2.2,5.7-6.4,3.8-3.3-2.9-3.2-10.8-9-10.5.4-2-1-1.4-2.2-1.9-7-2.5-14.3-4-21.8-3.4-.2.7.2,1.8,0,2.2-.8,1.9-4.2,6.8-6.4,6.7-3.8-.2-2.8-2.6-3.8-4.4-.6-1-1.4-1-1.8-1.5-.1-.1.4-1.4-.5-1.5-4.6-.8-8.8.7-13,1.2-4.6.5-8.6-.3-12.8,2.6-.1.8.6.7.8.7,1,.7,1.8.6,1.5,1.9,0,.8-1.3.2-1.5.4l-5.9,1.1c-2.9-1.2-3.1,1-3.6,1.2-4.7,1.3-5.5-2.3-6.2-6,2.2-2.1,21.8-5.4,26-5.9,20.5-2.3,50.2-.2,69.3,8.2h0Z"/>
  <path class="st6" d="M327.9,40.5c-.1,0-.9.1-.8-.7,4.2-2.9,8.2-2.1,12.8-2.6,4.2-.5,8.4-1.9,13-1.2.9.2.4,1.4.5,1.5-.6,0-1.1.6-1.5.8-7.7,2.6-16,.9-24,2.2Z"/>
  <path class="st1" d="M365.4,36.7c.2-.4-.2-1.6,0-2.2,7.5-.6,14.7.9,21.8,3.4,1.2.4,2.7-.2,2.2,1.9-8.5.5-5.6-.2-12.6-2-3.5-1-7.8-1-11.4-1h0Z"/>
  <path class="st6" d="M405.9,51c-2,.2-6.1.4-7.5-.8,4.2,1.9,4.6-4.1,6.4-3.8,1.5.3.6,3.5,1.1,4.5Z"/>
  <path class="st0" d="M124.7,66.7l3.3-.8c.8.1.2,1.3.4,1.5-1.4.4-2.6-.5-3.8-.8Z"/>
  <path class="st2" d="M313.7,18c.3-1.1,4.6-2.6,5.8-2.8,12.3-2.2,26.9-4.1,40.4-4,17.4.1,36,3.9,52.1,10.5-5.6-.5-6.5,5.6,0,4.4l.8-3.7c3.5,1.4,1.6-.8,5.5,2.7.5.5,1.9.4,2.4,1,1.1,1.6-1,5,1.9,4.5-.5,1.5-2,4-3,5.2-2.2-.7-2.5-2.3-5.3-3.3-8.5-3.3-23.6-7.3-32.7-8.5-23.4-3.3-46.8-1.6-69.5,4.5l-4.2-9.8c2-.2,4-.5,6-.8-.2.8-.1,2.1.7,2.6l3.8.4v-3.8c-1.7-.6-3.3.6-4.5.8h0Z"/>
  <path class="st6" d="M307.7,18.7l4.2,9.8c22.7-6,46.2-7.8,69.5-4.5,9.1,1.3,24.2,5.2,32.7,8.5,2.7,1.1,3,2.7,5.3,3.3-4.3,5.3-8.8,1.1-15,0-1.3-1.5-3.6-1.9-5.4-2.5-20.2-6.1-42.1-7.8-63.1-5-6.5.9-13.8,2.5-20,4.4-.5,0-1,0-1.5,0-4.4.3-7.5,3-10.9-1.5-2.3-2.9-3.1-7.2-2.4-10.8.2-1.1,1.3-1.7,1.4-2,1.7-.1,3.6.2,5.2,0h0Z"/>
  <path class="st4" d="M102.9,33c.2,0,.6,0,.8,0"/>
  <path class="st0" d="M629.4,238.5c0,0,.4-.7,1-.6l1.6,1.4,16.2,38.6c.5,1.9-3.9,1.1-5.2,1.1l-13.5-40.5h0Z"/>
  <path class="st10" d="M621.9,247.5c1.8-.4,1.6.8,2,2.1,1.1,3.4,8.8,28.4,7.7,29.4-1.2,0-2.5,0-3.8,0-2-10.5-4.2-20.9-6-31.5h0Z"/>
  <path class="st19" d="M630.2,162c6.8,13.2,6.8,35,1.5,48.8-.3-5.8-2.7-12.9-3-18.8-.4-7,.5-12.7-.8-20.6-.2-1.4,1-3-1.5-2.6,0-1.8,0-3.5,0-5.2,0-2,0-4,0-6,2.8.6,2.7,2.4,3.7,4.5h0Z"/>
  <path class="st16" d="M628.7,192c.3,5.9,2.7,12.9,3,18.8,0,1.1-.8,3.3-.8,5.2v.8c-.8.3-1.1.8-1.5,1.5-.8,1.5-.7,1.4-.8,3-.8,0-1.6.6-2.2.8-.1-2.5.2-5,0-7.5,0-1.4-.7-3.2-.8-3.8,0-1.2,0-2.5,0-3.8,0-.8,0-1.5,0-2.2,0-3.9.7-8.5.8-12.8h2.2Z"/>
  <path class="st11" d="M381.9,186c-4.5,9.3-8.4,20.3-12.8,30H61.7c-2.2-.5-8.2-10.7-9.6-13.3s-6.9-13.2-7.4-15.1c-.2-.8-.3-1.6-.2-2.4l337.5.8h0ZM122.4,189.7h-8.3c-1.2,6.2,9.4,5.6,8.3,0ZM191.2,193.3c.7-.6,1.4-2.6.2-3.2l-7.5-.4c-1.2,4.3,4.8,5.6,7.3,3.6h0ZM271.6,192.7l-.3-2.2-7.9-.7c-1.7,5.2,6.9,5.1,8.2,2.9h0ZM355.7,190.5c-1.1,4.6,7.4,4.3,8.2,1.8,1.3-4-6.4-2.3-8.2-1.8Z"/>
  <path class="st25" d="M67.4,220.6c2.8-.9,11.2,7.6,7.8,10.1-3.4,2.1-12.3-8.7-7.8-10.1Z"/>
  <path class="st25" d="M87.2,229.5h-5.3l.3-3.8c3.6-2.1,5.6-.2,4.9,3.8h0Z"/>
  <path class="st10" d="M620.4,193.5c-.2,5.3.6,10.1.8,15h-119.2c0-5,.8-10.4.8-15h117.8Z"/>
  <polygon class="st24" points="501.9 226.5 501.9 227.2 500.4 226.9 501.9 226.5"/>
  <polygon class="st10" points="61.7 222.7 61.7 224.2 59.4 225.7 60.2 222.7 61.7 222.7"/>
  <path class="st22" d="M424.7,273c-1.6,1.9-1.3,2.7-4.5,4.1-5.3,2.4-9.7,2.2-15,0-1.6-.7-3.4-2.6-4.5-3-1-.4-2.1.5-2.2.4-.1-.2.1-1.6-.2-2.4-.7-1.6-1.5-2.3-2-4.4,3.2,1.1,5.4,4.5,8.5,6.1,7,3.8,13.2,2.3,20-.9h0Z"/>
  <path class="st16" d="M467.4,238.5l.8,1.1-1.5,1.9h-1.5v-2.2c.6-.8,1.7-.5,2.2-.8h0Z"/>
  <path class="st19" d="M462.9,240c.2-.1.6.1.8,0l-.4.7-.4-.7Z"/>
  <path class="st18" d="M437.4,123c13,0,26,0,39,0,3.7,0,7.5,0,11.2,0-.8,3.6,3.7,2.6,4.4,5,.6,2-1.2,3.6-1.4,5.5h-3.8c0-.7-.1-1.6,0-2.2,0-.1,1.2-.4,1.2-1.1.2-2.5-3.1-2.9-1.2-.4h-1.5c-13.2,1.3-29.6-1.7-42.4,0-3.1.4-3.1,1.4-3.4,4.1-1.6,16.3-.1,39,0,55.9,0,1.2-1.2,3.2,1.9,3.8,13.2-1,28.3,1.3,41.3,0,5-.5,4.2-3.5,4.8-3.8.7-.4,2.3.8,3-2.2,0,.5,1.3,4.1,1.5,4.2l4.5.3v13.5c0,2.5,0,4.9,0,7.5,0,4.7,0,9.5,0,14.2-13,0-26,0-39,0h-5.2c-4,0-8,0-12,0-2.2,0-4.5,0-6.8,0-2.3-4.2-1.5-9.2-1.5-13.9.2-28.1,1.5-57.1,0-85.5,0-1.7-.6-3.2-.8-4.8,2,0,4,0,6,0h0Z"/>
  <path class="st24" d="M503.3,230.4"/>
  <path class="st24" d="M506.4,233.2v1.5"/>
  <path class="st18" d="M428.4,254.2c4-1.4,1,.5,1.5,1.8.4,1,4.7,3.2,0,4.2-.3-1.7-.8-4.5-1.5-6h0Z"/>
  <path class="st10" d="M431.4,123c.1,1.6.7,3.2.8,4.8,1.5,28.5.1,57.4,0,85.5,0,4.7-.8,9.7,1.5,13.9-.8,0-1.5,0-2.2,0s-1.5,0-2.2,0c0-4.7,0-9.5,0-14.2v-1.5c0-2.5,0-5,0-7.5,0-3.5,0-7,0-10.5v-9c0-5.2,0-10.5,0-15.8v-45.8c.8,0,1.5,0,2.2,0Z"/>
  <path class="st4" d="M610.7,345h-.8c.7-.2.7,0,.8,0Z"/>
  <path class="st19" d="M590.4,109.5c.5,0,1.1,0,1.5,0,3.3.9,2.5,9.3,1.5,12-.5,0-1,0-1.5,0s-1,0-1.5,0v1.5c-.2,0-.5,0-.8,0l-.8-9h-28.8c0,0-1.2-3-1.2-3,0,0-.4-1.8,1.1-1.6,9.9.7,20.7-.8,30.4,0Z"/>
  <path class="st11" d="M489.9,123c1.5,0,3,0,4.5,0,.5,0,1,0,1.5,0,.1,1,.7,2,.8,3,.6,6.9,0,15.4,0,22.5v3c0,4.1-.6,9.1.8,12.8v4.5c-1.4,3.7-.7,8.6-.8,12.8v3c0,2.5,0,5,0,7.5l-4.5-.3c-.2-.1-1.4-3.7-1.5-4.2-.6-4.2.8-8.9.8-12.4v-24c0-5.5-1.4-11.7-.8-17.6.2-1.9,2-3.4,1.4-5.5-.7-2.4-5.2-1.5-4.4-5,.8,0,1.5,0,2.2,0Z"/>
  <path class="st18" d="M558.9,111l1.2,3.1h28.8c0,0,.8,8.9.8,8.9-.2,0-.5,0-.8,0s-.5,0-.8,0c-.1,0-.8-.8-1.8-.8-9.6-.4-19.2.8-28.8-.5-2.2-1-2.1-8.1-.5-10,.6-.7,1.6-.6,1.8-.8h0Z"/>
  <path class="st26" d="M582.9,127.5v3l-16.5.8v18c-.9,0-2,.6-3,.8-.2,0-.5,0-.8,0l-.8-1.5c1.8-1.1,0-5.3,0-6.8,0-.8,0-1.5,0-2.2,0-2.1-.4-11.1.9-11.9,6.7,0,13.5-.3,20.1,0Z"/>
  <path class="st18" d="M591.9,121.5v1.5c-.5,0-1,0-1.5,0v-1.5c.5,0,1,0,1.5,0Z"/>
  <path class="st17" d="M561.9,151.5l.8-.8c-.2,0-.5.6-.8.8Z"/>
  <path class="st11" d="M621.2,156c0,2.5,0,5,0,7.5,0,5.8.8,11.7.8,17.2,0,3.4-1.4,9.1-1.5,12.8h-117.8c0-12.5-.4-25,0-37.5l39.3-.6c2.2,1-.2,1.9-.3,4-.5,6,3,9.6,8.8,9.9,8.4.4,18.9-.5,27.7-.5,3.6,0,7.6,1.8,11.2-1.4,2.6-2.4,1.8-6,3-8.3.2-.4,3.5-3,3.7-3h18c.2,0,.8-.6,1.5-.6,1.7,0,3.7,1.1,5.7.6h0ZM522.7,161.4c-5,1.5-2.4,8.8,2.7,7.2,4.3-1.3,2.6-8.8-2.7-7.2ZM539.2,162.2c-2.2-2.1-7.8-1.1-7.3,3.1.9,7.8,11.7,1.2,7.3-3.1Z"/>
  <path class="st8" d="M439.7,66.7c16.8-5,27.5-6,43.4,2.2,3,1.5,2.1,1.5,4.1,2.8.6.4,1.9,0,2.5.5,1,.7,9.8,9.7,10.4,10.6,2.8,4.1,6.7,11.2,6.3,16.2-5.2,0-10.5,0-15.8,0l-6-.8v-3.8c-1.4-.5-2.9.7-3.8.8-5.6.4-3.8-3.8-9-3v5.3c-1.9,0-11,.9-12,0-.1-.1-.1-1.7-.8-2.9-.9-1.6-1.7-2.6-3.7-2.2l-.8,5.2c-6.8.8-10.5,0-16.5,0l-.7-4.2c-3.5-1.3-7.1.3-4.5,4.2-.1,0-.8.8-1.8.8-3.9,0-7.8-.1-11.7,0,2.2-12.8,10.4-24,21.7-30.4l-1.5-1.1h0ZM462.1,65.3c-2.5-.4-6.2-.6-6.7,2.6-.9,6.2,11.1,5.4,6.7-2.6ZM470.3,73.6c-3.5-2.2-7.6.4-6.3,4.4l6.4.7v-5.1ZM450.8,76.7c-1.5-1.6-5.9-.2-6.5,1.8-1.8,5.9,11.8,3.7,6.5-1.8ZM458.1,77.5c-2.8,0-6.2,5.8-2.1,7.1,5.9,1.3,7.3-7.1,2.1-7.1ZM479.4,77.2c-4.9-1.9-9.8,5.2-4.1,6,4,.6,4.5-2.8,4.1-6ZM438.1,81.1c-1.6-1-5,.5-6.5,1.5-2.1,6.2,7.4,6.8,7.4,1.8,0-.6-.6-3.1-.9-3.3ZM482.5,87.7l6,.5c3.9-7.6-7.5-8-6-.5ZM464.2,84.1c-1.9.7-2.7,4.8-1.3,6.3l1.8.9c5.3-1.1,6.2-9.6-.5-7.3h0ZM444.4,92.8c1,1,4.8,1.4,5.9.6,1.1-1.3,1.1-4,0-5.4-1.9-2.4-6.6-.2-6.8,2.3.1.8.3,1.9.9,2.5h0ZM496.5,88.7c-1.5-1.7-5.2-.8-5.8,1.7-1.4,5.9,10.1,3.3,5.8-1.7Z"/>
  <path class="st11" d="M582.9,130.5c0,6.3-.2,12.5.8,18.8-5.5-.2-11.7-.2-17.2,0v-18l16.5-.8Z"/>
  <path class="st13" d="M480.9,95.2l-.8,3.8h-6.8c-4.2,0-8.5,0-12.8,0h-1.5v-4.5c.7,1.2.7,2.8.8,2.9.9.9,10.1,0,12,0v-5.3c5.2-.8,3.4,3.4,9,3h0Z"/>
  <path class="st6" d="M480.9,95.2c.8,0,2.4-1.3,3.8-.8v3.8l6,.8h-10.5l.8-3.8h0Z"/>
  <path class="st9" d="M44.4,144c2.7-.3,5.9,2.8,7.6,3.3,11.7,3.2,15.9-7.3,24.3-7,8.1.3,14.9,8.6,21.8,8.3,5.2-.2,12.7-7.8,18-7.6,5,.2,11.8,7.2,17.4,7.3,4,0,9.9-5.3,14-4.3,1.9.5.6,5.4-1,6-.1-1.1-2.1-1.1-2.2,0-.2,0-.5,0-.8,0-3,.2-6,0-9,0s-6,0-9,0v1.5h-2.2v-1.5c-.9-.1-2.1.2-3,0-5-1-5.8,0-9.8,0-3.5,0-7,0-10.5,0-17.4.1-39,1.4-55.9,0-1.2-.1-2.2-.5-3.4-.8l1.5-1.2c.3-1.4-.8-2.2-.8-2.6,0-.2,0-.6,0-.8l3-.8h0Z"/>
  <path class="st11" d="M141.2,135c4.8-6.1,14-1.1,11.2,6-.8-1.1-4.9-2.6-5.2-3-.3-.3-1.2-3.7-1.5-4.5-1.6,1-2.6,1.3-4.5,1.5Z"/>
  <path class="st9" d="M48.9,102c0,2,.9,2.1,2.6,2.3,4.4.5,9.6-.5,14.2,0,6.1.7,9,4.1,16.2,2.6,2.6-.5,6.1-3,8.7-3.2,3.5-.2,8.3,3.5,13.4,3.6s7.3-2.5,11.6-3.1c1.6-.2,3.6,0,5.2,0,6.2-.2,12.5.2,18.8,0,3.8,1.4,6.3,6.1,9,7.5-.5.7-.8,1.4-1.7,1.7l-103.7.6-1.6-.7c-.7-.9,0-5.7.6-6.6.2-.3,6-4.5,6.5-4.7Z"/>
  <path class="st2" d="M45.9,118.5h100.1c3.5-1.3,5.4,5.5,3.4,5.2-.1,0-.4-.7-.7-.8l-.8,2.3c-.1-1,.9-2.1-1.1-2.3-3.8-.3-8.6,0-12.4,0-1.9-7-12.1-.6-16-1.5-.6-.1-.2-1.4-1.6-1.6-6.9-.9-32.7-.5-38.9,1.6-.8.3-.4,2.2-3.1,1.4-.6-.2-.2-1.4-1.6-1.6-5.2-.7-7.8,2.5-11.9,1.5-.6-.1-.2-1.4-1.6-1.5-3-.4-6,1.1-9,.9l-.4-2.2h-4.5v-1.6h0Z"/>
  <path class="st13" d="M134.4,123c3.8-.1,8.7-.3,12.4,0,1.9.2.9,1.2,1.1,2.3l.8-2.3c.3,0,.6.8.7.8,0,2.6.5,2.1-1.8,2.2-14.1,1.1-28.9.6-43.2,0-1.2,0-2.5,0-3.8,0v-2.2c11.3-.2,22.6-.4,33.8-.8h0Z"/>
  <path class="st9" d="M106.7,130.5c0,0,1.2,0,.8,1.5-2.9-.8-4.3,2.7-7.2,3-1.7.1-5.9-1-7.8-1.5-.2-3.1,0-1.9,1.9-2.2s3.5-1.2,4.7-1.4c2.2-.4,5.2,1.3,7.7.6h0Z"/>
  <path class="st13" d="M138.9,157.5c.5,0,1,0,1.5,0,2.2,2.2,5.7.8,8.2,2.2,0,.2-.6,1.3-.8,1.5H47.1c-.8.1-.4-1-.5-1.5,1.1-4.3,5.4-1.6,8.6-1.5,27.9.8,56.3,1.1,83.7-.8h0Z"/>
  <path class="st6" d="M45.9,155.2l.8.8c.1,1.2-.2,2.6,0,3.8,0,.5-.4,1.6.5,1.5h100.8c-1.9,2.4-13.2,1.6-16.9,1.5-19.3-.4-38.7-.8-58.1-.8-10.2,0-20.5,0-30.8,0h-1.5c-1.3-2.1-2.1-3.9-.4-6,1.3-1.3,3.9-.7,5.6-.7Z"/>
  <path class="st3" d="M147.2,156.7c-1.5,1.5-4.6.6-6.8.8-.5,0-1,0-1.5,0,.4-2.3-1.1-1.4-2.6-1.5-29.6-1.2-60,.9-89.7,0l-.8-.8c28.3-1,63.1-1.6,91.2,0,2.2.1,8.8.8,10.1,1.5Z"/>
  <path class="st9" d="M72.9,162c-.8,1.2-2.8.8-4.1.8-8.1.1-18.2-.9-25.9,0l-.8-.8c10.2,0,20.5,0,30.8,0Z"/>
  <path class="st2" d="M148.7,159.7c-2.6-1.4-6,0-8.2-2.2,2.1-.2,5.2.7,6.8-.8,1.4.9,1.6,1.2,1.5,3Z"/>
  <path class="st7" d="M45.9,120h4.5c0,0,.4,2.3.4,2.3,3,.2,6-1.3,9-.9,1.4.2,1,1.4,1.6,1.5,4.2,1,6.7-2.2,11.9-1.5,1.4.2,1,1.4,1.6,1.6,2.7.7,2.3-1.2,3.1-1.4,6.1-2.2,32-2.5,38.9-1.6,1.4.2,1,1.4,1.6,1.6,3.8.9,14.1-5.5,16,1.5-11.2.3-22.5.5-33.8.8-4.2,0-8.9.7-13.5.8-.9-1.2-4.3-1.2-5.2,0-2.5,0-5,0-7.5,0-2.2-1.4-6.2-.7-9-.8-6.5,0-13,0-19.5.8v-4.5h0Z"/>
  <path class="st13" d="M74.4,124.5c-3.1,0-6-.3-9,.8v-1.5c2.8,0,6.8-.6,9,.8Z"/>
  <path class="st13" d="M87.2,124.5c-1.8,0-3.5,0-5.2,0,.9-1.2,4.3-1.2,5.2,0Z"/>
  <path class="st6" d="M69.9,87c1,1.1,3,.1,2.1,2.5-.8,2.2-5.7,3.8-6.6,6.5-1.9-.2-4.3-.2-4.5-3l3-.3v-2.7c3.9.9,2.3-1.4,4.5-3h1.5Z"/>
  <path class="st6" d="M411.9,21.7c.2,0,.4.6.8.8l-.8,3.7c-6.4,1.1-5.5-4.9,0-4.4Z"/>
  <rect class="st21" x="177.9" y="79.5" width="3" height="1.5"/>
  <path class="st21" d="M308.4,141c4.5-1.4,9.4-7.1,13.1-7.6,7.7-.9,10.4,10.4,20.5,7,4.5-1.5,8.1-9.1,13.7-6.5,1.1.5,2.2,2.6,3.4,3.4.7.5,1.5.5,1.9.7,4.6,2.9,4.2,2.6,9.8,3l-.3,9.1c-.8,1.2-4.1.6-5.7.7-4.5-.9-5.5-5.6-8.7-7.4-6.2-3.4-11.6.3-17.9,0-3.9-.2-7.8-2.4-12-2.4-7.4,0-17.6,6.6-23.6.8,2.5.4,3.9-.1,6-.8h0Z"/>
  <path class="st23" d="M306.2,150.7c-.5,1.2-3.3,1.2-3.8,0,1.2,0,2.5,0,3.8,0Z"/>
  <path class="st7" d="M194.4,121.5c7.6-2.5,10-.3,17.6,0,.1-2.5,3.7-3.6,6.1-3.8,3.6-.2,6.8,3.2,10.5,3.7,4.8.6,5.2-.5,9.9,1.4s7.6,2.2,12.2,3.4c6.8,1.8,6.1,4.8,9.7,9.6,1.7,2.2,4.4,3.7,6.6,5,2.6,1.5,2.4.3,3.9,3.1-4,2.9-4.3,5.5.8,7.5.1,1.6.5,5.6.8,6.9.1.7,1.3,1,1.5,1.3-1.6.5-3.2.9-4.9.8-16.2-.8-36.6-2.7-52.5-1.6-1.6.1-3.1,0-4.1,1.5-12.1-.6-27.1,1.4-38.7,0-.8-.1-1.7,0-2.3-.7-.6-1.6-.4-3.3-.3-4.9.5-6.6,10.8-26.7,16.2-30.3,1.6-1.1,5.1-2.5,7-3.1h0ZM240.9,129.7c-.7-5.7-7.8-7.8-12.1-4,.3,7.4,5.9,2.4,8.7,2.6,1.4,0,1.8,1.8,3.3,1.5h0ZM195.9,129.7c.3-3.2-4.5-1.5-6.3-.7-2.5,1.1-4.4,3-4.2,5.9,4.8,1,6.6-3.9,10.5-5.3ZM206.2,130.7c-2.9.3-4.4,3.9-2,6.2,4.5,4.3,8.1-6.8,2-6.2ZM216.2,136.6c-2.3,3.5,3.8,9.9,6.8,6.4,2.1-2.5-3.9-7.5-6.8-6.4ZM232.1,144.2c-.7.8-1.2,2.8-.9,3.8,1,3.2,8.9-1.9,9-3.6-.2-3.4-6.7-1.7-8.1-.2h0ZM182.9,144.8c-2.6.9-2.9,5.4,1.4,5.9,5.9.6,3.6-7.6-1.4-5.9ZM252.7,145.6c-.9.2-2.9,2.2-2.7,3.2,8.3,11.4,10.9-5.4,2.7-3.2ZM207.9,156c1-5.2-4.4-9.9-9-6.4,2,3.1,4.8,6.9,9,6.4Z"/>
  <path class="st13" d="M273.9,159.7c.2.4-.1,1.6,0,2.2-13.1-1.9-36,0-50.2,0-2.4-1.5-6.4-.5-9.4-.7-1,0-1.7-.8-1.8-.8,1-1.5,2.5-1.4,4.1-1.5,15.9-1.1,36.4.9,52.5,1.6,1.7,0,3.3-.4,4.9-.8h0Z"/>
  <path class="st13" d="M271.7,151.5c-5.1-2-4.7-4.6-.8-7.5,2.4,4.6.5,4.4.8,7.5Z"/>
  <path class="st13" d="M368.4,159c0,.5.1,1.1,0,1.5,0,.2,0,.5,0,.8-1.2.9-2.7.7-4.1.8-12.2.4-25.6.3-37.9,0-.1,0-1.2-.8-2.5-.8-9.4-.2-18.9.9-28.1-.8-1.2-1.4-.2-2.3-.1-2.9,4.2,1.2,9.5,1,13.9.8,1.3,0,2.6-.8,3-.8h49.5c2.1,1.3,5.2-1.6,6.4,1.5h0Z"/>
  <path class="st3" d="M295.7,155.2h73.5c.7,1.5-.7,3-.8,3.8-1.1-3.1-4.2-.2-6.4-1.5h-49.5c-.3,0-1.6.8-3,.8-4.4.1-9.8.4-13.9-.8,0-.7,0-1.5,0-2.2h0Z"/>
  <rect class="st0" x="129.9" y="64.5" width="2.2" height=".7"/>
  <path class="st12" d="M344.4,91.5c1.9.8,8.8,4.8,10.5,6,5.2,3.7,10.6,10.8,13.5,16.5.4.8.1,2.4,1.5,3-.3,1.6.2,3.6,0,5.2-.1,0-.7,1.1-1.4.7-.2-.1-1.2-2.4-3.1-2.9.9-3.1-1.6-4-2.2-5.1-1.8-3.3-1.9-3.3-3.8-5.4-.9-1.1-1.2-1.2-1.5-1.5-8.3-9.1-11.1-10.3-23.5-13.5-.6-.2-.5-1.3-1-1.4-8.6-2.1-28.6.9-37,4.5.9-.5,1.6-1.8,2.2-2.2,2.8-2.1,8.5-4.3,12-5.2,10.8-2.9,23.3-2.7,33.8,1.5Z"/>
  <path class="st6" d="M323.4,47.2c-.4,2.9,1.6,5.2,3,7.5-2,4.7-2.1,5.8,0,10.5.1.2-.1.6,0,.8,2.1,3.7,9.5,7.6,13.5,6.8.3,4.3,2.2,8.3,1.5,12.8-.4-.1-1,0-1.5,0-3.7-.8-7.4-1.3-11.2-1.6-.1-1.1-.5-1.9-.8-2.9-3.4-9.7-7.4-19.2-12-28.5,0-.5,0-1,0-1.5,0-.6-.3-1.2.5-1.6,2.2-1.2,4.7-1.5,7-2.2ZM337.7,77.2c-3.7-.2-4.7,1.8-4.5,5.2h4.4c1-1.8.3-3.4.1-5.2Z"/>
  <path class="st21" d="M366.9,99c-2.4,1.5-4.6-2.2-7.5-3.8-.3-.1-.5-.7-.8-.8l-2.2-1.5c-1.1-1.5-2.7-1.6-4.5-1.5v-3c5.3-3.9,12.9-2.2,14.6,4.5.6,2.2,0,4.4.4,6Z"/>
  <path class="st9" d="M312.2,39c.8,3.7,1.5,7.2,6.2,6,.5-.1.7-2.4,3.6-1.2l5.9-1.1c-1.5,1.5,1,2.8-4.5,4.5-2.3.7-4.8,1-7,2.2-.8.3-.4,1-.5,1.6-1.3-.7-1.1-2-1.5-3-1-2.4-4.3-7-2.2-9h0Z"/>
  <path class="st2" d="M350.8,81.7c.5.2.5.5,0,.8v-.8Z"/>
  <path class="st21" d="M383.2,54.2c9.5,9.5-9,21-13.4,9.3-3.3-8.6,6.9-15.8,13.4-9.3Z"/>
  <path class="st7" d="M374.4,42c-1.2,0-2.9-.2-4,0-.2,0-2,3-3.5,1.5-1-1,1.6-5.4,2.9-4.4.1,0-.1,1.3.5,1.4,1.5.4,3.9-.3,5.5,0,.1,1.1-.7.4-1.5,1.5,1.5,0,3,0,4.5,0,.7,2.2-1.3,1.1-1.5,1.9-.4,2,1.7.4,1.5,1.9-1.4,1.3-6.4-.5-6,2.3-.2,0-2,.6-2.2.8l-.8-3.8c3.4.7,3.3-1.2,4.5-3h0Z"/>
  <path class="st1" d="M438.2,97.5c-1.8,0-3.5,0-5.2,0-2.6-3.9,1-5.5,4.5-4.2l.7,4.2Z"/>
  <path class="st1" d="M459.2,94.5v3c-1.5.1-3.1-.2-4.5,0l.8-5.2c2-.3,2.9.7,3.7,2.2Z"/>
  <path class="st14" d="M139.7,104.2c-6.2.2-12.5-.2-18.8,0,.8-1.2,2.8-.8,4.1-.8,4.3,0,10.9-.6,14.6.8Z"/>
  <path class="st6" d="M313.7,18c1.2-.1,2.8-1.4,4.5-.8v3.8l-3.8-.4c-.8-.5-.9-1.8-.7-2.6h0Z"/>
  <path class="st11" d="M626.4,168.7c2.4-.4,1.2,1.2,1.5,2.6,1.2,7.9.4,13.6.8,20.6h-2.2c0-7.7,0-15.5,0-23.2Z"/>
  <path class="st25" d="M122.4,189.7c1.2,5.6-9.4,6.2-8.3,0h8.3Z"/>
  <path class="st25" d="M191.2,193.3c-2.5,2.1-8.5.7-7.3-3.6l7.5.4c1.1.6.5,2.6-.2,3.2h0Z"/>
  <path class="st25" d="M271.6,192.7c-1.4,2.1-9.9,2.3-8.2-2.9l7.9.7.3,2.2h0Z"/>
  <path class="st25" d="M355.7,190.5c1.8-.4,9.5-2.2,8.2,1.8-.8,2.4-9.4,2.8-8.2-1.8Z"/>
  <path class="st15" d="M320.4,123c-1.6,2.4-.2,1.1,1.1,1.5,5.5,1.7,13.8,5.9,19.3,4.4,1.3-.4,2.4-2.2,3.5-2.8,5.8-3.5,7.7-3.4,14.2-2.2l-1.7.7c1.4,0,.3,1.3.9,1.9,1.6,1.7,8.5,3.5,10.9,3.3,3.3-.3,2.4-1.9,2.7-2.2,1.2-1.3,2.2-2.6,4.1-3l3.4,2.3c-1,4.1-1.7,2.4-2.8,4-3.1,4.4-2.4,7.6-10.2,5.6-2.3-.6-6.3-5.4-8.1-5.8-.2,0-.5,0-.8,0l-5.4-2.9c-6.9,1.6-8,10.6-15.6,8.9-1.5-.3-7.2-7.8-12.6-8.1-6-.3-13,8.7-17,8.8-4.7,0-10.3-7.8-14.4-8.8-5.3-1.2-6.6,1.9-10.4,2.1-4.3.3-5.7-2.1-5.6-6,2-.8,3.6,1.4,4.9,1.5,1.4,0,4.7-2.4,6.9-2.8,2.1-.4,6-.5,8-.1,3.1.5,6.2,3.7,8.5,4.3,3.6.9,10.7-3.9,15.9-4.3h0Z"/>
  <path class="st21" d="M410.2,255.1c12.2-3.6,13.2,13.4,2.3,12.4-7.8-.7-7.9-10.8-2.3-12.4Z"/>
  <path class="st16" d="M490.7,133.5c-.6,5.9.8,12.1.8,17.6v24c0,3.5-1.4,8.1-.8,12.4-.7,3.1-2.3,1.8-3,2.2h-.8c.8-18.5-1.1-37.9,0-56.2h3.8Z"/>
  <path class="st19" d="M486.9,189.7h.8c-.6.3.1,3.3-4.8,3.8-13,1.3-28.1-1-41.3,0-3.1-.6-1.9-2.6-1.9-3.8h47.2,0Z"/>
  <path class="st16" d="M485.4,129.7h1.5c-1.9-2.5,1.4-2.1,1.2.4,0,.7-1.2,1-1.2,1.1l-1.5-1.5Z"/>
  <path class="st20" d="M539.2,162.2c4.4,4.3-6.4,10.9-7.3,3.1-.5-4.2,5.1-5.3,7.3-3.1Z"/>
  <path class="st19" d="M522.7,161.4c5.3-1.6,7,5.9,2.7,7.2-5.1,1.6-7.7-5.8-2.7-7.2Z"/>
  <path class="st13" d="M462.1,65.3c4.5,7.9-7.5,8.8-6.7,2.6.5-3.2,4.1-3,6.7-2.6Z"/>
  <path class="st1" d="M438.1,81.1c.3.2.9,2.7.9,3.3,0,5-9.5,4.5-7.4-1.8,1.5-1.1,4.9-2.5,6.5-1.5Z"/>
  <path class="st13" d="M444.4,92.8c-.6-.6-.8-1.7-.9-2.5.2-2.6,4.9-4.7,6.8-2.3,1,1.3,1.1,4,0,5.4-1.1.8-4.9.4-5.9-.6h0Z"/>
  <path class="st1" d="M458.1,77.5c5.2,0,3.8,8.4-2.1,7.1-4.1-1.3-.7-7.1,2.1-7.1Z"/>
  <path class="st1" d="M464.2,84.1c6.7-2.3,5.8,6.1.5,7.3l-1.8-.9c-1.4-1.6-.6-5.7,1.3-6.3h0Z"/>
  <path class="st1" d="M482.5,87.7c-1.5-7.5,9.8-7.1,6,.5l-6-.5Z"/>
  <path class="st1" d="M450.8,76.7c5.3,5.5-8.2,7.7-6.5,1.8.6-2,4.9-3.4,6.5-1.8Z"/>
  <path class="st13" d="M470.3,73.6v5.1c.1,0-6.3-.7-6.3-.7-1.3-4,2.9-6.6,6.3-4.4Z"/>
  <path class="st1" d="M479.4,77.2c.4,3.2-.1,6.6-4.1,6-5.7-.8-.8-8,4.1-6Z"/>
  <path class="st1" d="M496.5,88.7c4.3,5-7.2,7.6-5.8,1.7.6-2.5,4.3-3.4,5.8-1.7Z"/>
  <path class="st2" d="M46.7,156c29.7.9,60-1.2,89.7,0,1.4,0,3-.8,2.6,1.5-27.3,1.9-55.7,1.6-83.7.8-3.2,0-7.5-2.8-8.6,1.5-.2-1.2.1-2.5,0-3.8Z"/>
  <path class="st2" d="M296.4,97.5c8.4-3.6,28.4-6.6,37-4.5.5.1.4,1.3,1,1.4,12.4,3.2,15.2,4.4,23.5,13.5v1.5h1.5c.1,1.5-.4,3.4.1,4.8.4,1.2,3.8,2.8,4.4,4.2l-10-3c-.6,2.1-1.8,1.1-2.8,1.6-.8.4-.7,1.3-1.1,1.4-1.6.4-4.4-1.1-4,1.5-2.2.3-4,1.6-6.4,1.5s-6.1-2.3-7.5-2.3h-17.2c-1.7,0-6.3,2.7-8.4,2.8-3.3.2-9.6-3-16-2.8-1.7-.1-2.6.8-2-1.6,1.8-6.5,4.9-12.8,6.5-19.4.5-.3,1-.5,1.5-.8h0ZM294.2,107.2c7.7,2.9,5.8-7.6,1-3.8l-1,3.8ZM322,105.1l-.8,3.1c5.8,6.5,10.8-4.6.8-3.1ZM311.3,110.9c1.3-.8,2-5.4-2.5-5.2-5.6.3-1.9,8,2.5,5.2ZM337,110.9c2,.4,5.2.3,5.8-1.9,1.5-5.3-8.6-4.3-5.8,1.9Z"/>
  <path class="st6" d="M294.9,98.2c-1.5,6.7-4.6,12.9-6.5,19.4-.7,2.4.2,1.5,2,1.6-.1,0-.9.7-1.8.8-3.3.2-7,.4-10.2,0-.4-.5,4.5-11.2,5.2-12.2.5-.7,3.5-3.3,4.5-4.3l.8-.8c1.8-1.6,3.9-3.3,6-4.5Z"/>
  <path class="st11" d="M344.4,126c-1.1.7-2.3,2.5-3.5,2.8-5.5,1.6-13.8-2.7-19.3-4.3-1.3-.4-2.7.9-1.1-1.5,3.5-.3,8,.2,11.4.9,4.8,1.1,7.4,4.7,12.6,2Z"/>
  <path class="st3" d="M357.9,108c.3.3.6.4,1.5,1.5,1.8,2.2,2,2.2,3.8,5.4.6,1.1,3.2,1.9,2.2,5.1-5.5-1.4-13.9-.8-19.5,0-.5-2.7,2.4-1.1,4-1.5.5-.1.4-1.1,1.1-1.4,1-.5,2.2.5,2.8-1.6l10,3c-.6-1.4-4-3.1-4.4-4.2-.5-1.3,0-3.3-.1-4.8h-1.5v-1.5h0Z"/>
  <path class="st11" d="M358.7,123.7c5.3.9,7.8,3.2,12.8,3.8-.3.3.6,1.9-2.7,2.2-2.4.2-9.3-1.6-10.9-3.3-.6-.6.5-1.9-.9-1.9l1.7-.7h0Z"/>
  <path class="st5" d="M288.2,103.5c.3-.2.5-.5.8-.8l-.8.8Z"/>
  <path class="st6" d="M240.9,129.7c-1.5.3-1.9-1.4-3.3-1.5-2.8-.1-8.4,4.8-8.7-2.6,4.3-3.8,11.4-1.6,12.1,4Z"/>
  <path class="st9" d="M207.9,156c-4.2.5-7-3.3-9-6.4,4.6-3.5,10,1.1,9,6.4Z"/>
  <path class="st9" d="M252.7,145.6c8.1-2.2,5.6,14.6-2.7,3.2-.2-.9,1.9-2.9,2.7-3.2Z"/>
  <path class="st23" d="M232.1,144.2c1.4-1.5,7.8-3.2,8.1.2,0,1.7-8,6.9-9,3.6-.3-1,.1-3,.9-3.8h0Z"/>
  <path class="st9" d="M216.2,136.6c2.9-1.1,8.9,3.9,6.8,6.4-3,3.5-9-2.8-6.8-6.4Z"/>
  <path class="st6" d="M195.9,129.7c-3.9,1.4-5.7,6.3-10.5,5.3-.2-2.9,1.7-4.8,4.2-5.9,1.8-.8,6.6-2.6,6.3.7Z"/>
  <path class="st9" d="M206.2,130.7c6.1-.6,2.4,10.5-2,6.2-2.4-2.3-.9-6,2-6.2Z"/>
  <path class="st9" d="M182.9,144.8c5.1-1.7,7.3,6.5,1.4,5.9-4.4-.4-4.1-5-1.4-5.9Z"/>
  <path class="st21" d="M344.4,63c-1.4.1-2.7,7-9.7,4-1.2-.5-2.6-1.8-3.8-2.5v-.8l-.8-.8c-1.6-3.8-1.1-7.6,2.3-10.1,6.9-5.1,14.6,2.7,12,10.1Z"/>
  <path class="st5" d="M330.9,63.7c-.2-.2-.6-.5-.8-.8l.8.8Z"/>
  <path class="st9" d="M322,105.1c10.1-1.5,5.1,9.6-.8,3.1l.8-3.1Z"/>
  <path class="st9" d="M337,110.9c-2.9-6.3,7.3-7.2,5.8-1.9-.6,2.3-3.8,2.3-5.8,1.9Z"/>
  <path class="st9" d="M311.3,110.9c-4.4,2.8-8.1-4.9-2.5-5.2,4.5-.2,3.8,4.4,2.5,5.2Z"/>
  <path class="st6" d="M294.2,107.2l1-3.8c4.8-3.9,6.7,6.7-1,3.8Z"/>
</svg>