<?xml version="1.0" encoding="UTF-8"?><svg id="Layer_1" xmlns="http://www.w3.org/2000/svg" xmlns:xlink="http://www.w3.org/1999/xlink" viewBox="0 0 766.16 877.52"><defs><style>.cls-1{fill:none;}.cls-2{fill:#00d99a;}.cls-3{fill:#32325d;}.cls-4{fill:#4f566b;}.cls-5{fill:#fff;}.cls-6{fill:#5a6374;}.cls-7{fill:#00bf8e;}.cls-8{clip-path:url(#clippath);}</style><clipPath id="clippath"><rect class="cls-1" x="217.02" y="254.03" width="166.06" height="412.51"/></clipPath></defs><path class="cls-4" d="M765.86,116.48s-112.81,2.61-212.8-30.23C453.07,53.42,383.08,0,383.08,0,383.08,0,313.09,53.42,213.1,86.25,113.11,119.09.3,116.48.3,116.48c0,0-3.14,170.94,10.77,290.03,10.15,86.93,43.64,169.94,83.84,232.38,106.91,166.06,288.17,238.63,288.17,238.63,0,0,181.26-72.57,288.17-238.63,40.2-62.44,73.68-145.44,83.84-232.38,13.91-119.09,10.77-290.03,10.77-290.03Z"/><path class="cls-3" d="M765.86,116.48s-112.81,2.61-212.8-30.23C453.07,53.42,383.08,0,383.08,0v877.52s181.26-72.57,288.17-238.63c40.2-62.44,73.68-145.44,83.84-232.38,13.91-119.09,10.77-290.03,10.77-290.03Z"/><path class="cls-5" d="M383.08,791.06c-50.46-26.15-154.87-89.52-222.45-194.48-37.78-58.68-64-131.26-71.92-199.13-7.58-64.9-9.83-147.56-10.38-206.11,45.18-3.98,103.52-12.54,159.15-30.81,60.5-19.86,111.3-46.47,145.59-67.02,34.29,20.55,85.1,47.16,145.59,67.02,55.63,18.27,113.98,26.83,159.15,30.81-.55,58.55-2.8,141.21-10.38,206.11-7.93,67.87-34.14,140.45-71.92,199.13-67.58,104.96-171.99,168.33-222.45,194.48Z"/><path class="cls-2" d="M383.08,746.6c-48.01-27.14-133.56-84.18-189.58-171.18-34.66-53.84-58.71-120.36-65.96-182.5-5.97-51.14-8.55-114.09-9.6-166.53,48.07-6.13,92.25-15.75,131.75-28.72,53.52-17.57,99.72-40.17,133.4-59,33.68,18.83,79.88,41.43,133.4,59,39.49,12.97,83.68,22.6,131.75,28.72-1.05,52.44-3.63,115.39-9.6,166.53-7.26,62.15-31.3,128.67-65.96,182.5-56.02,87.01-141.58,144.04-189.58,171.19Z"/><path class="cls-7" d="M516.48,197.66c-53.52-17.57-99.72-40.17-133.4-59v607.94c48.01-27.14,133.57-84.18,189.58-171.19,34.66-53.83,58.7-120.35,65.96-182.5,5.97-51.14,8.55-114.09,9.6-166.53-48.07-6.13-92.25-15.75-131.75-28.72Z"/><path class="cls-3" d="M239.65,482.48c1.89-14.61,19.54-30.94,37.42-31.77,13.07-.6,25.81,4.04,35.79,12.51,11.37,9.66,22.57,24.2,33.92,45.62,84.99-122.25,161.96-191.62,233.38-218.57,2.89-1.09,6.06-1.27,9.01-.38.04.01.08.02.12.04,2.83.89,3.57,4.56,1.34,6.52-92.41,80.83-173.12,193.24-245.69,327.64-2.37,4.04-4.66,3.28-6.56,1.04-.45-.52-.83-1.1-1.17-1.7-30.89-84.86-52.86-148.59-97.55-140.95Z"/><g class="cls-8"><path class="cls-6" d="M239.64,482.45c1.89-14.61,19.54-30.94,37.42-31.77,13.07-.6,25.81,4.04,35.79,12.51,11.37,9.66,22.57,24.2,33.92,45.62,84.99-122.25,161.96-191.62,233.38-218.57,2.89-1.09,6.06-1.27,9.01-.38.04.01.08.02.12.04,2.83.89,3.57,4.56,1.34,6.52-92.41,80.83-173.12,193.24-245.69,327.64-2.37,4.04-4.66,3.28-6.56,1.04-.45-.52-.83-1.1-1.17-1.7-30.89-84.86-52.86-148.59-97.55-140.95Z"/></g></svg>